<?xml version="1.0" encoding="UTF-8" standalone="no"?>
<!-- Created with Inkscape (http://www.inkscape.org/) -->

<svg
   width="235.36859mm"
   height="147.36681mm"
   viewBox="0 0 235.36859 147.36681"
   version="1.1"
   id="svg1"
   inkscape:version="1.3.2 (091e20e, 2023-11-25)"
   sodipodi:docname="bear.svg"
   xmlns:inkscape="http://www.inkscape.org/namespaces/inkscape"
   xmlns:sodipodi="http://sodipodi.sourceforge.net/DTD/sodipodi-0.dtd"
   xmlns="http://www.w3.org/2000/svg"
   xmlns:svg="http://www.w3.org/2000/svg">
  <sodipodi:namedview
     id="namedview1"
     pagecolor="#ffffff"
     bordercolor="#000000"
     borderopacity="0.25"
     inkscape:showpageshadow="2"
     inkscape:pageopacity="0.0"
     inkscape:pagecheckerboard="0"
     inkscape:deskcolor="#d1d1d1"
     inkscape:document-units="mm"
     inkscape:zoom="0.2102413"
     inkscape:cx="447.1053"
     inkscape:cy="280.62992"
     inkscape:window-width="1312"
     inkscape:window-height="449"
     inkscape:window-x="0"
     inkscape:window-y="25"
     inkscape:window-maximized="0"
     inkscape:current-layer="layer1" />
  <defs
     id="defs1" />
  <g
     inkscape:label="Layer 1"
     inkscape:groupmode="layer"
     id="layer1"
     transform="translate(13.229161,-74.877083)">
    <path
       style="fill:#000000;stroke-width:0.264583"
       d="m 1.4554692,221.83972 c -6.5396943,-1.60471 -14.6664892,-11.28443 -14.6837832,-17.48966 -0.0067,-2.41972 -0.05136,-2.24571 3.493205,-13.62394 4.7321409,-15.19041 5.2294075,-19.13589 3.9513994,-31.35171 -4.8800064,-46.64549 30.5534816,-81.123457 77.6585926,-75.564402 19.671604,2.32152 21.273315,2.218187 28.287687,-1.824961 10.2738,-5.921917 17.60143,-6.265045 30.51518,-1.428919 2.58342,0.967475 5.96236,2.06842 7.50876,2.446541 l 2.81163,0.687491 0.15043,1.610966 c 0.40167,4.301352 3.08737,7.656123 6.76645,8.452098 1.05385,0.228005 1.06985,0.369007 -0.34669,-3.05499 -3.55036,-8.581816 0.08,-16.247033 7.48451,-15.802745 4.19606,0.251778 6.96793,2.819845 8.61652,7.982971 0.13899,0.435282 0.33658,0.47793 1.54288,0.333029 0.76091,-0.0914 2.69316,-0.167384 4.29389,-0.168849 l 2.91042,-0.0027 0.46781,-1.591921 c 2.36305,-8.041301 15.01564,-5.49529 15.78427,3.17618 l 0.15209,1.715818 3.44565,2.291529 c 6.40315,4.258414 10.10964,8.695622 10.45822,12.520014 0.31529,3.45923 -0.049,3.1214 9.56003,8.86648 11.73952,7.01889 12.55825,9.65025 4.74912,15.26355 -0.7728,0.5555 -1.08683,0.99464 -1.20074,1.6791 -0.93127,5.59614 -3.76913,7.16921 -13.38624,7.42021 -6.6563,0.17373 -6.77978,0.18728 -9.19762,1.00963 -2.63362,0.89573 -4.84864,1.20576 -11.43988,1.60119 -4.86203,0.29168 -5.16607,0.38086 -13.62604,3.99631 -3.34698,1.43036 -8.46667,3.57769 -11.37709,4.77184 -9.39697,3.8556 -12.12378,5.50555 -15.76423,9.53872 -2.87343,3.1834 -8.78517,10.70354 -11.21075,14.26083 -1.14108,1.67349 -3.58827,5.06677 -5.4382,7.54062 -7.53063,10.0705 -9.68817,14.94039 -10.83976,24.46702 -0.8412,6.95893 -0.56673,7.53962 4.50833,9.53801 7.90149,3.11136 12.29511,9.74571 7.09032,10.70636 -2.83339,0.52296 -27.340411,0.006 -28.862469,-0.60863 -5.527693,-2.2328 -9.90999,-8.76282 -14.112793,-21.02931 -4.34794,-12.6901 -4.952328,-23.59593 -1.950421,-35.1942 2.156087,-8.33034 2.903286,-11.532 3.515889,-15.06518 0.680032,-3.92208 0.639726,-4.23823 -0.320172,-2.51136 -5.746575,10.33812 -9.282766,19.98684 -9.752528,26.61039 -0.217935,3.07285 0.389263,2.8179 -9.996546,4.19718 -3.163898,0.42018 -13.648909,0.58094 -18.782821,0.28798 l -1.320321,-0.0753 -2.119262,2.80381 c -4.567129,6.04238 -10.400964,12.08059 -19.44947,20.13081 -8.349721,7.42853 -7.997352,6.61584 -3.704167,8.54321 8.174135,3.66967 12.856326,9.27751 9.704303,11.6228 -0.928219,0.69065 -23.9042019,0.96423 -26.5455928,0.31609 z M 191.06967,106.62361 c 1.72941,-1.25355 1.55633,-3.42705 -0.34734,-4.36175 -2.57503,-1.26435 -5.67553,1.44258 -4.39432,3.83652 0.68198,1.2743 3.30708,1.56508 4.74166,0.52523 z m -33.90789,115.21918 c -5.13492,-1.83424 -14.48076,-12.20009 -20.97781,-23.26734 -2.61047,-4.44675 -7.82055,-15.96209 -7.82055,-17.28502 0,-0.62211 5.46666,-8.51851 9.13392,-13.19365 1.82317,-2.32422 3.8672,-4.99977 4.54229,-5.94566 3.34364,-4.68489 8.03335,-7.92708 16.0631,-11.1051 2.53855,-1.00471 2.37485,-1.169 3.02428,3.03531 0.69495,4.49904 0.71981,4.70402 1.50808,12.43542 1.52153,14.9232 3.06675,22.86778 6.23479,32.05543 2.65031,7.68618 3.96857,9.10007 10.69042,11.46586 1.74625,0.6146 3.82984,1.42419 4.63021,1.79909 3.72379,1.74427 7.52499,7.8765 5.89365,9.50784 -0.82209,0.82209 -30.74782,1.2746 -32.92238,0.49782 z M 48.194675,221.42986 c -2.90944,-0.9993 -3.639714,-2.48158 -5.676257,-11.52145 -1.336524,-5.9326 -2.528985,-9.80527 -4.411945,-14.32834 l -0.813602,-1.95436 1.680591,-1.78283 c 0.924325,-0.98055 2.731873,-3.06171 4.016777,-4.62479 l 2.336189,-2.84197 5.204436,-0.004 c 4.821899,-0.004 11.32862,-0.27142 16.690589,-0.68709 l 2.225735,-0.17255 -0.168693,5.65726 c -0.168706,5.65775 -0.686096,12.06721 -1.328401,16.45636 -0.395782,2.70456 -0.717243,2.30127 2.998748,3.76205 6.414674,2.52165 9.141941,4.49654 10.977829,7.94937 1.098336,2.06569 0.814893,3.55831 -0.804169,4.2348 -1.565153,0.65397 -30.979525,0.52657 -32.927827,-0.14261 z"
       id="path1" />
  </g>
</svg>
