<?xml version="1.0" encoding="UTF-8" standalone="no"?>
<!-- Created with Inkscape (http://www.inkscape.org/) -->

<svg
   width="206.95227mm"
   height="151.18738mm"
   viewBox="0 0 206.95227 151.18738"
   version="1.1"
   id="svg1"
   inkscape:version="1.3.2 (091e20e, 2023-11-25)"
   sodipodi:docname="beaver.svg"
   xmlns:inkscape="http://www.inkscape.org/namespaces/inkscape"
   xmlns:sodipodi="http://sodipodi.sourceforge.net/DTD/sodipodi-0.dtd"
   xmlns="http://www.w3.org/2000/svg"
   xmlns:svg="http://www.w3.org/2000/svg">
  <sodipodi:namedview
     id="namedview1"
     pagecolor="#ffffff"
     bordercolor="#000000"
     borderopacity="0.25"
     inkscape:showpageshadow="2"
     inkscape:pageopacity="0.0"
     inkscape:pagecheckerboard="0"
     inkscape:deskcolor="#d1d1d1"
     inkscape:document-units="mm"
     inkscape:zoom="0.2102413"
     inkscape:cx="390.02803"
     inkscape:cy="285.38636"
     inkscape:window-width="1312"
     inkscape:window-height="449"
     inkscape:window-x="0"
     inkscape:window-y="25"
     inkscape:window-maximized="0"
     inkscape:current-layer="layer1" />
  <defs
     id="defs1" />
  <g
     inkscape:label="Layer 1"
     inkscape:groupmode="layer"
     id="layer1"
     transform="translate(-1.0583315,-73.024999)">
    <path
       style="fill:#000000;stroke-width:0.264583"
       d="M 43.65029,223.72762 C 20.306489,220.73601 1.0773375,202.77579 1.0583642,183.94633 c -0.00831,-8.24866 1.5617587,-11.63699 9.5016158,-20.50521 5.38928,-6.01941 4.997032,-5.37516 4.527323,-7.43588 -3.041529,-13.34383 0.914542,-37.82889 8.046479,-49.80157 12.826888,-21.533033 38.315047,-34.870247 63.075261,-33.005458 10.597705,0.798152 17.386657,2.57258 32.924587,8.605493 8.55656,3.322254 9.14472,3.450495 10.70565,2.334228 12.37954,-8.853008 42.26707,-4.434086 61.30679,9.064313 19.72357,13.983224 21.40108,20.797844 8.91321,36.208584 -0.40925,0.50504 -1.03017,1.70697 -1.37982,2.67096 -1.45126,4.00109 -3.51698,6.59716 -6.29387,7.90973 -2.98077,1.40894 -3.0974,1.11014 -1.13675,-2.91245 0.93172,-1.91158 1.7741,-3.84013 1.87195,-4.28566 l 0.17792,-0.81007 -2.72996,0.13956 c -1.86648,0.0954 -3.43805,0.0111 -4.96859,-0.2667 -2.73421,-0.49619 -2.62855,-0.62233 -1.4457,1.72604 0.53892,1.06994 1.2025,2.59222 1.47461,3.38285 l 0.49474,1.4375 -0.70916,1.02333 c -3.74081,5.39798 -11.41143,8.24856 -20.79899,7.72937 -4.32813,-0.23937 -4.94102,0.26133 -6.37437,5.20752 -2.2555,7.78326 -1.23435,15.69742 2.76015,21.39198 1.56943,2.23737 3.46606,2.90779 9.77624,3.45571 6.73555,0.58485 11.01068,3.05301 13.32195,7.69112 1.74493,3.50162 0.2674,4.91281 -2.27536,2.1732 -2.28024,-2.45675 -2.63492,-2.74668 -4.52979,-3.70281 -2.176,-1.09798 -2.38045,-1.00879 -1.14464,0.49936 2.66031,3.24655 3.30844,6.29267 1.33891,6.29267 -1.01055,0 -1.38051,-0.2708 -2.74901,-2.01218 -2.2286,-2.83584 -3.69023,-3.57917 -8.72909,-4.43926 l -0.92604,-0.15807 1.08029,0.98965 c 0.59416,0.54431 1.53071,1.33317 2.08123,1.75304 1.85144,1.41204 2.47142,3.93606 1.05418,4.29176 -1.00566,0.25241 -1.73676,-0.0438 -3.70823,-1.50219 -2.44439,-1.80828 -2.65942,-1.90621 -6.3283,-2.8819 -7.62962,-2.029 -10.94968,-4.95944 -15.14879,-13.37106 -3.0084,-6.02639 -4.28885,-10.71353 -4.29461,-15.72066 -0.004,-3.52626 -0.12185,-3.58965 -0.72503,-0.39013 -1.55668,8.25724 0.0342,18.6013 3.7876,24.6274 1.84875,2.96819 3.39811,4.00951 7.81039,5.24932 6.27727,1.76386 10.10522,5.14989 10.9524,9.68798 0.48939,2.62158 -1.76122,2.77041 -3.78612,0.25038 -1.04401,-1.2993 -3.00155,-2.48089 -5.30444,-3.20183 -2.41908,-0.75732 -2.65461,-0.65858 -1.19732,0.50194 5.12817,4.08383 3.87487,8.28345 -1.33716,4.48063 -2.56298,-1.87001 -3.50585,-2.23432 -7.39918,-2.8589 -5.26192,-0.84414 -6.90772,-1.51455 -11.93274,-4.86073 -6.21603,-4.13928 -11.36052,-8.47102 -16.99639,-14.31126 l -4.03181,-4.178 1.18252,2.70383 c 0.65039,1.48712 1.43262,3.10851 1.7383,3.6031 0.42785,0.69229 0.47468,0.92614 0.20345,1.01605 -0.82657,0.27398 -9.02461,1.75744 -13.239813,2.39577 -6.923373,1.04844 -6.83337,0.90434 -1.388398,2.22297 11.053271,2.67683 14.393421,4.51732 16.545931,9.11712 2.05895,4.39988 0.55447,7.69934 -2.11385,4.63587 -2.83975,-3.26028 -5.03891,-4.82985 -7.54667,-5.38617 -0.76845,-0.17047 -0.7649,-0.16117 0.36935,0.96952 2.08219,2.07563 3.04171,3.78972 3.04739,5.44384 0.01,2.8952 -1.394,2.61033 -4.88262,-0.9907 -2.664,-2.74982 -3.845189,-3.50968 -7.26342,-4.67255 -2.34855,-0.79896 -2.613946,-0.7816 -1.475013,0.0965 4.359405,3.36105 6.651823,6.8773 5.044477,7.73752 -1.130853,0.60521 -2.42938,0.11634 -4.912185,-1.84934 -2.95657,-2.34076 -11.493783,-4.871 -22.244751,-6.59284 -7.615147,-1.21962 -9.336018,-1.86814 -12.728191,-4.79665 -0.462931,-0.39966 -1.534493,-0.91938 -2.38125,-1.15495 -0.846757,-0.23556 -3.426674,-1.02826 -5.73315,-1.76155 -5.383715,-1.71161 -4.944266,-0.52953 1.239567,3.33432 27.987469,17.48745 22.097328,39.59173 -9.471964,35.54598 z m 3.390723,-11.28612 1.812652,-1.83937 2.130058,1.17822 c 1.171532,0.64802 2.434828,1.37749 2.807324,1.62106 1.384953,0.90557 0.237485,-0.21 -1.746427,-1.69788 -1.129565,-0.84715 -2.165263,-1.63317 -2.301547,-1.74673 -0.140282,-0.11689 0.607266,-1.09765 1.723019,-2.26055 1.083945,-1.12975 2.662542,-2.81427 3.507994,-3.7434 l 1.537184,-1.68931 0.774692,0.57275 c 0.42608,0.31502 0.774693,0.46383 0.774693,0.33069 0,-0.13315 -0.309727,-0.44502 -0.68828,-0.69306 l -0.688279,-0.45098 0.754425,-0.82226 c 0.701699,-0.76479 0.708197,-0.79062 0.09297,-0.36946 -1.146167,0.7846 -1.236197,0.77114 -2.817569,-0.42121 -1.803342,-1.35972 -3.745595,-2.60043 -6.236258,-3.98372 l -1.777786,-0.98736 0.923033,-1.20924 c 1.985156,-2.6007 1.689598,-2.71893 -1.124635,-0.44989 l -1.111337,0.89605 -2.350913,-1.30537 c -1.293,-0.71796 -3.442039,-1.85337 -4.775639,-2.52314 -1.333601,-0.66978 -2.424729,-1.27568 -2.424729,-1.34646 0,-0.19112 2.626164,-3.87313 3.254068,-4.56236 1.420283,-1.559 -1.681036,0.44064 -3.680958,2.37339 l -1.35293,1.30748 -4.37795,-2.43039 -4.377949,-2.43039 2.622026,-3.10925 c 1.442114,-1.71008 2.622026,-3.19379 2.622026,-3.29713 0,-0.32019 -3.197346,2.27348 -4.981368,4.04086 -1.292728,1.28068 -1.798529,1.62663 -2.127581,1.45521 -0.237421,-0.12369 -1.893559,-0.97163 -3.680304,-1.88432 l -3.248628,-1.65944 1.546902,-2.04473 c 2.261209,-2.98891 2.225088,-3.07962 -0.256479,-0.64407 l -2.235872,2.19442 -2.022245,-0.80975 c -3.331273,-1.33391 -4.1263937,-1.31734 -1.760312,0.0367 1.102145,0.63071 2.223955,1.28201 2.492906,1.44732 0.449221,0.27612 0.340003,0.49022 -1.342445,2.63171 -1.007298,1.28212 -2.00691,2.57562 -2.221362,2.87443 -0.7333751,1.02186 1.843018,-1.21092 3.378258,-2.92771 0.830265,-0.92844 1.58896,-1.68814 1.685988,-1.68822 0.593612,-5.3e-4 7.07131,3.80251 6.918786,4.06196 -0.09814,0.16693 -0.911493,1.13695 -1.807459,2.1556 -0.895967,1.01864 -2.139897,2.50692 -2.764287,3.30729 -0.624393,0.80036 -1.209477,1.45241 -1.300189,1.449 -0.200271,-0.008 -5.254596,-2.57218 -6.9118085,-3.50715 -2.3186681,-1.30816 -0.3496998,0.17722 2.9104165,2.19561 1.819011,1.12617 3.348831,2.08366 3.399602,2.12776 0.119322,0.10362 -2.141249,3.31801 -3.484877,4.95526 -1.806472,2.20126 -0.856054,1.65506 2.102353,-1.20819 l 2.854899,-2.76309 3.715575,2.2541 c 2.043565,1.23975 3.857355,2.38392 4.030644,2.54259 0.238122,0.21802 -0.134702,0.87006 -1.526503,2.66973 -4.334195,5.60433 -2.508562,5.76019 2.382713,0.20341 l 1.38874,-1.57769 4.470559,2.49675 4.470558,2.49674 -1.765551,2.29144 c -0.971053,1.26029 -2.278885,2.90574 -2.906297,3.65655 -0.627412,0.75081 -1.140748,1.43986 -1.140748,1.53121 0,0.33181 3.309082,-2.09206 5.360511,-3.92652 1.156425,-1.03412 2.251067,-1.98745 2.432537,-2.1185 0.221223,-0.15977 1.77506,0.51754 4.715618,2.05553 l 4.385675,2.29382 -0.802767,0.85488 c -0.947428,1.00894 -3.656158,4.58865 -3.656158,4.83178 0,0.29248 1.914827,-1.35302 3.797025,-3.26298 z m 0.5686,-3.90617 c -0.49939,-0.3821 -3.751313,-2.32882 -6.56364,-3.92924 l -1.271977,-0.72384 1.007393,-1.10579 c 0.554064,-0.60818 1.936562,-2.25597 3.07222,-3.66175 l 2.064827,-2.55597 3.22684,1.59268 c 1.774759,0.87597 4.024265,2.05814 4.9989,2.62705 l 1.772062,1.03437 -3.58063,3.50216 c -3.861064,3.77646 -3.934102,3.82622 -4.725995,3.22033 z m -13.789996,-7.7241 c -2.054706,-1.12653 -4.00586,-2.23247 -4.335896,-2.45764 l -0.600067,-0.40941 2.857211,-3.49319 c 1.571467,-1.92126 2.961955,-3.4932 3.089974,-3.4932 0.186163,0 9.072914,4.63877 9.438227,4.92663 0.124105,0.0978 -6.3446,6.98046 -6.557669,6.97733 -0.08577,-0.001 -1.837073,-0.924 -3.89178,-2.05052 z m -10.55167,-5.8859 c -1.74625,-0.99827 -3.560895,-2.03146 -4.032541,-2.29598 l -0.857544,-0.48093 2.929043,-3.50573 c 3.339674,-3.99721 2.92159,-3.77474 4.923428,-2.61992 0.844542,0.4872 2.702165,1.51048 4.128053,2.27396 l 2.592519,1.38814 -1.198906,1.36406 c -0.6594,0.75024 -2.004629,2.33803 -2.989397,3.52843 -2.146451,2.59465 -1.622653,2.56148 -5.494655,0.34797 z m 60.395166,-16.1491 c 4.551802,-2.27456 9.90337,-10.07217 11.703106,-17.05224 5.883931,-22.82015 -11.129521,-44.69577 -34.659731,-44.56491 l -3.042708,0.0169 2.645833,0.61349 c 29.486857,6.83712 41.660417,43.72532 20.114196,60.94984 l -1.052473,0.84139 h 1.34094 c 0.964534,0 1.792846,-0.22582 2.950837,-0.80448 z M 200.92597,119.88777 c 1.06104,-1.20846 1.3326,-1.93055 1.3326,-3.54349 v -1.28948 l -1.25677,-0.17184 c -0.69123,-0.0945 -1.67349,-0.27973 -2.18281,-0.41161 -2.41043,-0.62412 -2.77781,0.19831 -1.19689,2.6794 0.50589,0.79392 1.1663,1.94952 1.46759,2.56798 0.66578,1.36664 0.77587,1.37678 1.83628,0.16904 z m -27.29541,-12.3824 c 3.20785,-1.67585 3.394,-5.64468 0.36143,-7.705371 -1.71017,-1.16209 -2.76191,-0.939866 -4.59761,0.971431 l -1.55981,1.62405 0.27871,1.29959 c 0.73689,3.43599 3.10426,5.07093 5.51728,3.8103 z m -35.4182,-3.87832 c -6.74159,-7.216898 -3.72479,-13.008958 4.45792,-8.558933 2.02272,1.100018 1.90912,1.099534 1.90912,0.0081 0,-3.852679 -6.29398,-7.124477 -10.0123,-5.204684 -6.39265,3.300576 -4.72721,12.255757 2.66029,14.304467 2.01392,0.5585 2.01759,0.55646 0.98497,-0.54897 z"
       id="path1" />
  </g>
</svg>
