<?xml version="1.0" encoding="UTF-8" standalone="no"?>
<!-- Created with Inkscape (http://www.inkscape.org/) -->

<svg
   width="198.91217mm"
   height="178.38177mm"
   viewBox="0 0 198.91217 178.38177"
   version="1.1"
   id="svg1"
   inkscape:version="1.3.2 (091e20e, 2023-11-25)"
   sodipodi:docname="birb.svg"
   xmlns:inkscape="http://www.inkscape.org/namespaces/inkscape"
   xmlns:sodipodi="http://sodipodi.sourceforge.net/DTD/sodipodi-0.dtd"
   xmlns="http://www.w3.org/2000/svg"
   xmlns:svg="http://www.w3.org/2000/svg">
  <sodipodi:namedview
     id="namedview1"
     pagecolor="#ffffff"
     bordercolor="#000000"
     borderopacity="0.25"
     inkscape:showpageshadow="2"
     inkscape:pageopacity="0.0"
     inkscape:pagecheckerboard="0"
     inkscape:deskcolor="#d1d1d1"
     inkscape:document-units="mm"
     inkscape:zoom="0.2102413"
     inkscape:cx="375.75871"
     inkscape:cy="337.70719"
     inkscape:window-width="1312"
     inkscape:window-height="449"
     inkscape:window-x="0"
     inkscape:window-y="25"
     inkscape:window-maximized="0"
     inkscape:current-layer="layer1" />
  <defs
     id="defs1" />
  <g
     inkscape:label="Layer 1"
     inkscape:groupmode="layer"
     id="layer1"
     transform="translate(-5.027082,-59.266665)">
    <path
       style="fill:#000000;stroke-width:0.264583"
       d="m 85.974905,236.81046 c -0.898435,-2.72229 1.465307,-5.55315 7.650792,-9.16271 1.371534,-0.80037 3.155415,-2.07887 3.964183,-2.84112 l 1.470485,-1.3859 -1.10001,0.37335 c -2.048293,0.69519 -9.996988,2.76934 -12.6848,3.30999 -3.073286,0.61818 -3.972475,0.95928 -6.746396,2.55917 -2.851068,1.64438 -3.4765,1.50625 -2.898526,-0.64019 0.917549,-3.40751 4.581713,-5.52626 11.126607,-6.4338 12.663096,-1.75591 15.06047,-2.88158 16.27434,-7.6415 0.24122,-0.94589 1.07426,-3.68433 1.85121,-6.08542 6.93692,-21.43802 6.63903,-22.17101 -9.029161,-22.2178 l -2.412987,-0.007 -0.130614,1.15881 c -0.100148,0.88851 -0.687462,2.01479 -2.517982,4.82864 -4.96467,7.63165 -11.972305,19.66241 -11.972305,20.55414 0,0.72224 0.551103,0.8343 5.481875,1.1146 5.504889,0.31295 5.838312,0.43806 6.920677,2.59702 0.800399,1.59652 1.361684,1.43905 -5.658784,1.5876 -7.036345,0.14889 -7.808999,0.2834 -12.43231,2.16442 -4.17731,1.69955 -6.823051,2.51185 -11.509375,3.53361 -4.345871,0.94754 -6.109009,1.58913 -8.118774,2.95437 -2.361684,1.60429 -2.966783,1.41347 -2.328928,-0.73442 0.841462,-2.8335 3.516127,-4.78278 8.198744,-5.9752 1.455208,-0.37056 3.598333,-1.03244 4.7625,-1.47084 l 2.116666,-0.7971 -1.322916,-0.01 c -6.663436,-0.0488 -15.387828,1.36257 -18.096047,2.92736 -2.491262,1.43944 -2.147385,-1.44631 0.449656,-3.77341 2.193827,-1.9658 2.934931,-2.13102 10.634933,-2.37101 11.781631,-0.36721 13.426267,-1.1758 17.984305,-8.84204 0.778688,-1.30969 2.114675,-3.42405 2.968863,-4.69859 2.032143,-3.03217 5.556208,-8.80341 6.598611,-10.80632 1.454052,-2.79387 0.592426,-4.83258 -2.393897,-5.66425 C 43.945462,174.01762 24.540814,144.98189 31.533686,107.7915 33.138421,99.256987 31.709364,90.818422 28.0375,87.146558 26.597164,85.706222 27.392991,85.942151 18.259479,84.247801 6.2334948,82.016875 4.4479595,81.483549 5.1631467,80.336014 6.5157787,78.16569 15.416841,75.272873 22.595783,74.670464 l 3.704167,-0.310827 1.058333,-1.104164 c 0.582083,-0.607288 2.00111,-2.144932 3.153394,-3.416983 14.810422,-16.349826 40.089746,-13.246983 48.330085,5.932146 0.532932,1.24038 1.709954,4.576956 2.615607,7.414612 2.771915,8.685154 3.51813,9.64919 11.675898,15.084136 15.999483,10.659326 26.074183,20.469256 49.450883,48.151276 9.90719,11.73181 22.87335,25.59365 28.62698,30.6045 4.02901,3.50887 2.02477,4.71249 -5.74035,3.44731 -3.80993,-0.62076 -5.83867,-2.48564 17.19792,15.80884 22.07255,17.5289 21.36555,16.88133 21.23831,19.45311 -0.27262,5.51033 -5.92381,3.61233 -26.66227,-8.95473 -38.91294,-23.5804 -38.91392,-23.58091 -44.45,-22.79957 -0.94589,0.1335 -3.86292,0.43695 -6.48229,0.67434 -10.3228,0.93553 -11.43202,1.20558 -10.8337,2.63753 0.57028,1.36488 0.51598,1.71766 -1.1869,7.71145 -0.86325,3.03848 -2.40495,8.7392 -3.42598,12.66826 -3.04999,11.73674 -3.06761,11.67606 3.40978,11.74266 4.30258,0.0442 5.65245,0.59285 6.78239,2.75651 0.47995,0.91903 0.24226,1.89826 -0.39189,1.61446 -0.77933,-0.34878 -12.8928,-0.18595 -13.58175,0.18256 -0.33864,0.18113 -1.51609,1.06211 -2.61657,1.95772 -2.88904,2.35122 -3.98859,3.06057 -7.373671,4.75692 -3.445089,1.72643 -7.916756,4.6537 -9.264343,6.06469 -1.131593,1.18483 -1.480822,1.19674 -1.854911,0.0632 z m 56.344835,-65.70348 c -0.21828,-0.0785 -2.59953,-0.9548 -5.29167,-1.94732 -2.69213,-0.99251 -7.75229,-2.83378 -11.24479,-4.0917 -44.932164,-16.18353 -62.40113,-30.7841 -61.740264,-51.60257 0.109606,-3.45272 -0.07183,-3.3472 -1.162548,0.67606 -6.148467,22.67951 17.640819,44.11335 59.727812,53.81399 8.43928,1.94517 22.69407,4.22428 19.71146,3.15154 z M 48.672283,80.539613 c 2.726324,-0.757375 3.959942,-4.515265 2.177592,-6.633466 -1.945894,-2.312565 -5.133544,-2.068431 -6.882691,0.527129 -2.000369,2.968345 1.173491,7.08742 4.705099,6.106337 z"
       id="path1" />
  </g>
</svg>
