<?xml version="1.0" encoding="UTF-8" standalone="no"?>
<!-- Created with Inkscape (http://www.inkscape.org/) -->

<svg
   width="245.50948mm"
   height="167.73514mm"
   viewBox="0 0 245.50948 167.73514"
   version="1.1"
   id="svg1"
   inkscape:version="1.3.2 (091e20e, 2023-11-25)"
   sodipodi:docname="boar.svg"
   xmlns:inkscape="http://www.inkscape.org/namespaces/inkscape"
   xmlns:sodipodi="http://sodipodi.sourceforge.net/DTD/sodipodi-0.dtd"
   xmlns="http://www.w3.org/2000/svg"
   xmlns:svg="http://www.w3.org/2000/svg">
  <sodipodi:namedview
     id="namedview1"
     pagecolor="#ffffff"
     bordercolor="#000000"
     borderopacity="0.25"
     inkscape:showpageshadow="2"
     inkscape:pageopacity="0.0"
     inkscape:pagecheckerboard="0"
     inkscape:deskcolor="#d1d1d1"
     inkscape:document-units="mm"
     inkscape:zoom="0.2102413"
     inkscape:cx="466.13106"
     inkscape:cy="318.68144"
     inkscape:window-width="1312"
     inkscape:window-height="449"
     inkscape:window-x="0"
     inkscape:window-y="25"
     inkscape:window-maximized="0"
     inkscape:current-layer="layer1" />
  <defs
     id="defs1" />
  <g
     inkscape:label="Layer 1"
     inkscape:groupmode="layer"
     id="layer1"
     transform="translate(18.25625,-64.558334)">
    <path
       style="fill:#000000;stroke-width:0.264583"
       d="m 113.66414,231.85659 c -3.45282,-0.74003 -3.97182,-1.5089 -5.84201,-8.65461 -0.48985,-1.87162 -0.94761,-3.45992 -1.01725,-3.52956 -0.0696,-0.0696 -0.87376,1.02946 -1.78694,2.44244 l -1.66031,2.56906 -0.63844,-0.74223 c -0.63684,-0.74038 -0.63787,-0.75184 -0.41046,-4.59574 0.57809,-9.77195 0.1884,-13.78679 -1.74574,-17.98557 -2.063558,-4.47972 -2.090064,-4.60363 -3.596602,-16.81427 -0.620836,-5.03195 -0.794115,-5.84169 -1.868432,-8.73125 -2.338977,-6.29108 -2.482053,-7.17086 -2.491181,-15.31858 -0.0089,-7.95799 -0.0299,-8.00384 -1.432695,-3.13015 -2.60109,9.03689 -2.557407,15.15587 0.138409,19.38801 0.425241,0.66758 0.773165,1.30504 0.773165,1.41657 0,0.40238 -12.815967,-0.37068 -17.727083,-1.0693 -10.832317,-1.54094 -23.597203,-5.65652 -31.663134,-10.20865 l -1.380845,-0.7793 0.943494,-2.03343 c 4.572971,-9.85573 5.47887,-13.38263 5.483325,-21.34801 0.0029,-5.09755 -0.881972,-11.08594 -1.54069,-10.42723 -0.06161,0.0616 -0.479388,2.55201 -0.928396,5.53421 -3.145917,20.89431 -9.200317,30.54718 -29.122087,46.43096 -9.1048438,7.25936 -8.8731058,6.9828 -10.5320486,12.56935 -0.9320556,3.13872 -1.1675216,4.40971 -1.7891178,9.65729 -0.7249054,6.1197 -0.376428,7.69386 2.6649997,12.03854 2.7099234,3.87112 6.1378017,10.75031 5.6165727,11.27154 -0.08252,0.0825 -0.616694,0.21263 -1.187051,0.28913 l -1.0370157,0.13909 -0.9780772,-2.05955 c -1.0639108,-2.2403 -2.8114519,-5.23146 -2.9660665,-5.07685 -0.053059,0.0531 0.2382361,1.33996 0.6473243,2.85979 1.257673,4.67241 1.2598188,4.42607 -0.040235,4.61898 -1.5912597,0.23612 -7.04825913,-0.29097 -8.3325519,-0.80484 -1.6172259,-0.64709 -2.162937,-1.76299 -3.9281174,-8.0324 -0.5167778,-1.83545 -0.9730152,-3.37121 -1.0138608,-3.41281 -0.040846,-0.0416 -0.794621,0.66969 -1.6750567,1.58062 l -1.6007921,1.65623 -0.334174,-0.73343 c -0.273694,-0.60069 -0.252182,-1.55716 0.118861,-5.28478 1.2395222,-12.45263 1.3167901,-13.92166 1.2715085,-24.17407 -0.05203,-11.78037 -0.3015176,-10.65697 3.1795346,-14.31687 8.2126494,-8.63461 9.2738826,-13.44031 5.79254537,-26.23103 -2.49747087,-9.17591 -2.73000517,-14.4595 -0.94602034,-21.49516 0.34401918,-1.35674 0.59244176,-2.49985 0.55205047,-2.54024 -0.0403939,-0.0404 -1.3114999,1.20981 -2.824681,2.77822 -4.738474,4.91145 -5.3988557,7.02783 -4.1905613,13.42989 1.6191767,8.57908 0.4852027,13.16984 -4.4744863,18.11442 -4.105668,4.09315 -5.083137,4.37285 -4.165947,1.19204 0.481294,-1.66912 0.647426,-3.10106 0.797165,-6.87105 0.104038,-2.61937 0.279072,-5.38757 0.388963,-6.15156 0.271514,-1.88762 0.09908,-1.76901 -1.430006,0.98369 -1.603134,2.88599 -1.622902,2.88978 -1.860262,0.35679 -0.81205,-8.66577 2.161618,-16.19494 9.5423749,-24.16079 2.6600012,-2.87087 3.0125259,-3.43914 4.3509152,-7.01377 1.7835959,-4.7637 3.99945481,-7.51973 11.2355972,-13.97455 2.6301515,-2.34617 7.1038107,-6.534582 9.9414667,-9.30759 9.034934,-8.829098 11.200427,-9.73835 31.168078,-13.086908 7.464928,-1.251863 11.854016,-2.211052 18.101109,-3.955809 6.614681,-1.847419 9.112422,-2.379697 13.569354,-2.891674 l 3.96875,-0.455898 -2.595568,-1.477709 c -3.17047,-1.805011 -3.133526,-1.833205 2.635208,-2.011145 4.334748,-0.133707 7.887758,0.23391 10.835799,1.12114 0.639707,0.192524 1.163103,0.255458 1.163103,0.139853 0,-0.491505 -3.241884,-3.154349 -4.857213,-3.989654 -1.827591,-0.945068 -2.1741,-1.288018 -1.162058,-1.150126 0.327422,0.04461 1.726406,0.216652 3.108854,0.382313 3.392527,0.406527 6.303399,1.137168 10.114876,2.538875 1.75329,0.644787 3.23525,1.12489 3.29324,1.066893 0.22918,-0.229174 -4.72753,-4.609785 -6.483629,-5.730073 -2.41817,-1.542646 -2.374064,-1.659745 0.549989,-1.46026 7.24231,0.494086 10.79707,1.696665 17.52865,5.929966 1.60073,1.006653 2.95296,1.789065 3.00496,1.738694 0.56918,-0.551371 -3.73614,-5.681125 -6.08386,-7.248872 -1.98731,-1.327076 -1.68736,-1.364456 3.12755,-0.389752 8.64737,1.750526 25.74822,8.691681 25.74822,10.451084 0,0.131627 -0.19216,1.340702 -0.42702,2.686836 -2.07527,11.894375 2.22958,21.702596 10.18772,23.211826 3.13018,0.59362 3.64655,0.28801 1.55542,-0.92056 -7.87989,-4.554214 -10.47654,-17.324146 -6.01224,-29.567229 1.94503,-5.334145 2.05494,-5.392732 6.30647,-3.361819 9.65342,4.611338 14.99262,11.056379 17.49361,21.11685 l 0.69977,2.814932 0.48126,-1.777905 c 0.53458,-1.974895 0.44169,-3.921294 -0.26821,-5.620335 -0.55114,-1.319075 -0.38916,-1.394042 1.26144,-0.583813 8.53901,4.191526 13.70249,10.624772 17.55672,21.874109 3.00935,8.78336 4.24298,10.52361 14.49938,20.45376 l 6.23221,6.03397 1.28628,-1.75168 c 0.70745,-0.96343 1.49947,-2.34457 1.76004,-3.06919 1.40773,-3.91476 3.58081,4.49595 2.53683,9.81855 -0.3847,1.96131 1.62767,3.7038 4.27833,3.70458 6.32201,0.002 5.33791,5.36328 -2.43407,13.26107 -5.50143,5.59048 -12.56997,3.60823 -22.878,-6.41572 l -2.91906,-2.83862 0.97836,-1.01138 c 2.10226,-2.17323 2.93381,-5.38897 2.8037,-10.84242 -0.0563,-2.35815 -0.47477,-5.03817 -0.47477,-3.04029 0,0.12405 -0.67241,1.45182 -1.49425,2.95061 -0.82184,1.49879 -2.12569,4.3096 -2.89745,6.24626 -2.02372,5.07835 -1.7156,4.77123 -4.9428,4.92661 -4.00334,0.19275 -4.83428,0.68291 -2.20816,1.30258 4.16554,0.98292 8.02637,3.30012 12.73328,7.64227 1.60073,1.47668 3.65069,3.28667 4.55545,4.0222 1.89377,1.53955 1.89241,1.56424 -0.1287,2.32335 -2.98208,1.12004 -5.65172,1.02607 -10.24758,-0.36072 -8.58956,-2.59187 -15.30508,-2.48732 -21.24481,0.33074 -1.54901,0.73492 -2.9164,1.23621 -3.03863,1.11398 -0.34394,-0.34393 -1.24869,-6.30855 -1.24897,-8.23385 l -2.5e-4,-1.71979 -1.52117,2.98991 c -1.09781,2.15779 -1.63162,2.95472 -1.91804,2.86349 -0.8099,-0.25798 -6.47274,-2.31606 -6.52986,-2.37319 -0.0326,-0.0326 0.28653,-1.16223 0.70917,-2.51029 0.76809,-2.44991 1.45553,-6.21397 1.2823,-7.02113 -0.0595,-0.27714 -0.60435,0.28432 -1.54703,1.59416 -0.80036,1.11208 -1.97937,2.74368 -2.62002,3.62578 l -1.16482,1.6038 -2.05357,-2.16393 c -7.07399,-7.45412 -10.0217,-19.69441 -6.99236,-29.03568 0.37737,-1.16368 -1.80731,1.68148 -2.64113,3.43958 -6.04689,12.74993 1.94262,31.54654 14.789,34.79352 1.15238,0.29127 2.13626,0.57061 2.18642,0.62076 0.37624,0.37624 -5.94016,4.75587 -12.67228,8.78663 -8.81994,5.28083 -15.70092,8.50561 -19.79792,9.27834 -3.54339,0.66832 -3.53591,0.69281 -0.89981,-2.94383 3.13214,-4.32095 4.08983,-6.36478 4.23571,-9.03951 0.0822,-1.50792 0.0461,-1.86997 -0.13272,-1.32818 -0.3359,1.01792 -1.07085,1.93697 -4.34217,5.42984 -7.16999,7.65556 -10.27004,17.30697 -10.6794,33.24826 -0.29376,11.43949 0.0636,12.67361 6.40368,22.11628 3.69058,5.49658 4.58909,7.00125 4.32482,7.2425 -0.0497,0.0453 -0.68562,0.16099 -1.41322,0.257 l -1.32292,0.17458 -0.73828,-1.32712 c -0.95379,-1.71453 -5.20709,-8.15267 -5.21149,-7.88854 -0.002,0.11098 0.51604,1.95645 1.15086,4.10104 0.63481,2.1446 1.2324,4.22669 1.32796,4.62687 l 0.17374,0.7276 -2.45244,-0.0216 c -1.34884,-0.0118 -3.27914,-0.19876 -4.28957,-0.41532 z m 102.66552,-81.7329 c 3.09497,-1.76314 4.02471,-4.40892 1.60348,-4.56305 -1.53715,-0.0978 -1.92959,0.19285 -3.10738,2.3017 -0.45592,0.81634 -1.01008,1.69038 -1.23146,1.94232 -1.11284,1.26641 0.70101,1.47796 2.73536,0.31903 z m -30.9925,-32.70089 c -0.99206,-2.91678 -3.69587,-6.97203 -5.08637,-7.62868 -0.83747,-0.39548 -6.14624,-0.71378 -6.14028,-0.36814 0.005,0.31824 2.50525,2.13385 3.96473,2.87963 2.89765,1.48068 2.92422,2.30775 0.10264,3.19524 -0.78406,0.24662 -1.42556,0.56254 -1.42556,0.70206 0,0.65872 1.1641,1.79865 2.09192,2.04848 1.15836,0.31192 5.37058,0.99041 6.42513,1.03494 l 0.71184,0.0301 z M 163.6516,93.728534 c -0.60127,-2.70256 -2.15254,-5.652461 -4.27954,-8.137948 l -1.80203,-2.105753 -0.0778,1.605111 c -0.19376,3.999473 1.53142,8.301175 4.53065,11.29707 l 1.89712,1.895002 0.0825,-1.302579 c 0.0454,-0.71642 -0.11254,-2.179325 -0.35094,-3.250903 z M 55.496566,228.02672 c -3.745945,-0.48183 -4.822603,-1.58985 -7.086645,-7.29305 -0.451139,-1.13643 -0.868656,-2.11507 -0.927815,-2.17475 -0.05916,-0.0597 -0.65764,1.06863 -1.329954,2.50734 l -1.222388,2.61584 -0.597289,-0.74907 c -0.469839,-0.58923 -0.635895,-1.23718 -0.778198,-3.0365 -0.612077,-7.73924 -4.594344,-16.4383 -11.752987,-25.67381 -3.360304,-4.33519 -3.338304,-4.26157 -2.261852,-7.56897 0.531985,-1.63452 1.338046,-3.08329 3.533582,-6.35108 1.56441,-2.32843 3.59364,-5.54311 4.509397,-7.14375 0.915757,-1.60063 1.688306,-2.94126 1.716775,-2.97917 0.02847,-0.0379 1.174367,0.46285 2.546443,1.11281 3.867777,1.83218 8.694176,3.71346 13.330645,5.19613 2.328333,0.74457 4.444142,1.4311 4.701796,1.52563 0.496247,0.18205 -0.189635,0.98951 -7.341841,8.64321 -4.778028,5.11305 -4.872201,5.63805 -2.25358,12.56303 3.065759,8.10743 4.425772,10.54436 9.228725,16.53645 4.239363,5.28897 7.703441,10.56328 7.703441,11.72906 0,0.64351 -8.036123,1.01427 -11.718255,0.54065 z m 98.369294,-0.15114 c -4.00885,-0.53171 -5.17256,-1.63142 -6.99322,-6.60865 l -0.69443,-1.89842 -0.85921,1.63383 c -1.43259,2.72415 -1.55409,2.82924 -2.29067,1.98141 -0.93364,-1.07466 -1.67007,-3.63879 -2.25519,-7.85215 -1.05157,-7.57218 -1.55469,-9.01847 -4.60866,-13.24818 -4.79328,-6.63865 -11.27049,-17.67329 -11.27049,-19.20053 0,-0.16731 0.80367,-0.45065 1.78593,-0.62964 5.57147,-1.01524 13.73519,-4.83226 18.74594,-8.76481 l 1.61416,-1.26684 0.1762,4.00833 c 0.93761,21.32949 3.01303,29.84849 9.333,38.30917 3.58823,4.80364 5.38912,7.56625 7.02657,10.779 l 1.2972,2.54516 -0.74106,0.16714 c -0.80321,0.18115 -8.96993,0.21709 -10.26607,0.0452 z M 187.40672,88.819997 c -2.69469,-3.321267 -8.22176,-8.163592 -11.71273,-10.261661 -0.80037,-0.481017 -1.48882,-0.89717 -1.5299,-0.924784 -1.07785,-0.724625 5.31022,-9.646328 6.90691,-9.646328 2.64503,0 7.4804,11.329339 7.98571,18.710614 0.26802,3.91509 0.0413,4.206697 -1.64999,2.122159 z"
       id="path1" />
  </g>
</svg>
