<?xml version="1.0" encoding="UTF-8" standalone="no"?>
<!-- Created with Inkscape (http://www.inkscape.org/) -->

<svg
   width="200.58795mm"
   height="220.94809mm"
   viewBox="0 0 200.58795 220.94809"
   version="1.1"
   id="svg1"
   inkscape:version="1.3.2 (091e20e, 2023-11-25)"
   sodipodi:docname="coot.svg"
   xmlns:inkscape="http://www.inkscape.org/namespaces/inkscape"
   xmlns:sodipodi="http://sodipodi.sourceforge.net/DTD/sodipodi-0.dtd"
   xmlns="http://www.w3.org/2000/svg"
   xmlns:svg="http://www.w3.org/2000/svg">
  <sodipodi:namedview
     id="namedview1"
     pagecolor="#ffffff"
     bordercolor="#000000"
     borderopacity="0.25"
     inkscape:showpageshadow="2"
     inkscape:pageopacity="0.0"
     inkscape:pagecheckerboard="0"
     inkscape:deskcolor="#d1d1d1"
     inkscape:document-units="mm"
     inkscape:zoom="0.2102413"
     inkscape:cx="380.51515"
     inkscape:cy="418.56666"
     inkscape:window-width="1312"
     inkscape:window-height="449"
     inkscape:window-x="0"
     inkscape:window-y="25"
     inkscape:window-maximized="0"
     inkscape:current-layer="layer1" />
  <defs
     id="defs1" />
  <g
     inkscape:label="Layer 1"
     inkscape:groupmode="layer"
     id="layer1"
     transform="translate(-4.2333318,-38.1)">
    <path
       style="fill:#000000;stroke-width:0.264583"
       d="m 86.874134,258.68008 c -2.02171,-0.54371 -3.958519,-1.6298 -9.687012,-5.4321 -9.230987,-6.12709 -9.508625,-6.48013 -10.583185,-13.45712 -0.234723,-1.52403 -0.455078,-2.79926 -0.489681,-2.83387 -0.0346,-0.0346 -1.50373,0.9867 -3.264722,2.26955 -5.947733,4.33281 -9.848498,3.63667 -9.97154,-1.77955 l -0.03254,-1.43228 1.719792,-1.58752 c 0.945885,-0.87314 3.12456,-2.66002 4.841497,-3.97085 1.716939,-1.31083 3.412519,-2.76461 3.76796,-3.23061 l 0.646253,-0.84728 -1.046054,-6.26091 c -0.575332,-3.44349 -1.475711,-8.18479 -2.000846,-10.5362 -1.55253,-6.95182 -1.490538,-8.90359 0.401873,-12.65243 1.729208,-3.42555 1.383697,-3.77751 -5.70135,-5.80782 -14.14971,-4.05478 -25.291991,-9.58949 -34.565523,-17.16974 -1.20717,-0.98675 -4.159382,-2.90354 -6.560476,-4.25954 -5.7162145,-3.22819 -7.6845981,-4.54899 -8.9907693,-6.03288 -1.8031327,-2.04847 -1.9315906,-1.77719 3.3624679,-7.10095 4.4114824,-4.43624 8.0459814,-8.46754 18.8449554,-20.90238 28.776242,-33.13539 65.992734,-46.680727 99.126336,-36.078085 3.8306,1.225785 4.91584,0.823825 3.70247,-1.371327 -1.33823,-2.421009 -4.83192,-13.680774 -5.60885,-18.07663 -5.0241,-28.426465 23.71502,-51.339772 47.97995,-38.253754 8.98492,4.845547 12.96838,11.217804 13.84056,22.140434 l 0.28385,3.554756 4.03702,4.019365 c 8.78668,8.748239 14.59562,17.306737 13.82653,20.371048 -0.42501,1.693368 -4.80364,2.120577 -9.29723,0.907108 -1.30969,-0.353674 -5.95312,-1.569421 -10.31875,-2.70166 l -7.9375,-2.058617 -1.9907,0.280514 c -8.71602,1.228188 -9.5177,4.518181 -3.14468,12.905358 30.14962,39.67821 9.52986,80.0863 -48.04587,94.15443 -7.7294,1.88861 -6.99584,1.49768 -8.0404,4.28499 -0.48375,1.29087 -1.39016,3.29953 -2.01424,4.46369 -0.9911,1.84882 -1.09169,2.18363 -0.79488,2.64584 6.65969,10.37068 15.36847,21.86585 17.14445,22.62986 3.22372,1.38681 8.60221,1.5729 25.85195,0.89445 l 4.6302,-0.18211 1.36958,1.23434 c 3.21775,2.9 1.88047,5.4407 -2.87779,5.46754 -2.39558,0.0135 -2.44334,0.0257 -1.80925,0.46302 0.35821,0.24703 1.25118,0.92417 1.98438,1.50475 0.73319,0.58058 1.91085,1.26062 2.61702,1.5112 5.1742,1.83604 6.9389,5.96553 3.26258,7.63463 -1.85728,0.84324 -2.44924,0.69724 -7.38134,-1.82047 -2.51543,-1.28406 -6.29992,-3.01986 -8.40997,-3.85732 -2.11005,-0.83747 -5.92005,-2.39373 -8.46666,-3.45836 -4.33158,-1.81085 -7.67292,-2.66824 -7.67292,-1.96888 0,2.00381 0.52795,2.38622 10.45104,7.5702 9.07086,4.73875 8.70204,9.50079 -0.60066,7.75542 -9.61816,-1.80456 -16.66778,-5.55619 -18.94939,-10.08441 -0.80928,-1.60614 -3.34072,-6.34819 -3.49562,-6.54821 -0.04,-0.0517 -0.46704,0.36263 -0.94895,0.92066 -3.08836,3.57609 -5.75332,4.65417 -7.91083,3.20022 -2.66307,-1.79464 -2.09672,-4.52404 1.74146,-8.39258 l 2.49382,-2.51354 -3.79143,-5.06996 c -4.34535,-5.81065 -8.85443,-11.61586 -10.9575,-14.10721 -2.326143,-2.75561 -2.767055,-5.23779 -1.494579,-8.41396 0.391019,-0.976 0.408019,-1.29644 0.122809,-2.3151 l -0.331025,-1.18231 -3.074469,-0.002 c -1.690957,-0.001 -6.289156,-0.29841 -10.218219,-0.66058 -3.929062,-0.36217 -7.403441,-0.65889 -7.720838,-0.65937 -0.422822,-5.3e-4 -0.987443,0.58263 -2.112166,2.18194 -0.84429,1.20055 -2.476815,3.16567 -3.627826,4.36694 l -2.092754,2.18414 0.593527,3.50441 c 0.32644,1.92742 1.002779,5.46894 1.502979,7.87003 1.179941,5.66406 1.100182,5.20902 1.538329,8.77647 1.047745,8.53092 4.767858,10.21123 24.486457,11.06013 6.262715,0.26962 7.407605,0.54711 8.851525,2.14536 2.16163,2.39269 0.43068,5.00557 -3.31602,5.00557 h -1.33296 l 1.49207,1.30567 c 0.82063,0.71812 2.47463,1.79242 3.67553,2.38732 5.05559,2.50441 5.60156,7.03027 0.94304,7.81732 -1.5627,0.26402 -15.999427,-6.64854 -26.713337,-12.7908 -2.544406,-1.45871 -4.642858,-2.63054 -4.663229,-2.60408 -0.02037,0.0265 -0.117554,0.71283 -0.215966,1.52526 l -0.178932,1.47715 4.445286,2.8193 c 8.868915,5.62488 11.456744,7.92111 11.456744,10.16583 0,2.88556 -2.675308,4.14067 -6.584863,3.08926 z m 9.377442,-90.30552 c 20.526484,-3.47602 36.579064,-17.83955 37.364894,-33.43335 0.20621,-4.09192 -1.22763,-7.01312 -1.64248,-3.34629 -0.98873,8.73923 -8.51486,19.0297 -18.9408,25.89777 -6.35796,4.18829 -13.519037,6.91006 -26.516849,10.07847 -5.065536,1.23479 -4.495319,1.58933 2.312447,1.43776 2.614869,-0.0582 5.452708,-0.30074 7.422788,-0.63436 z M 197.5461,87.317536 c -1.28474,-2.528602 -6.85236,-9.137637 -11.66848,-13.851043 -2.33453,-2.284733 -2.46029,-2.464859 -2.46029,-3.52375 0,-5.785916 -2.53683,-14.581431 -5.23117,-18.137156 -4.48435,-5.917996 -12.53725,-2.47274 -9.25697,3.960387 2.39675,4.700378 6.89971,11.05994 10.33622,14.597914 2.81344,2.896513 2.85879,2.605646 -0.74917,4.804817 -3.31073,2.017996 -4.04351,2.924998 -3.72685,4.612939 0.45369,2.41835 1.94486,3.059907 14.56617,6.266892 4.06639,1.033243 7.44975,1.934932 7.51857,2.003758 0.59949,0.599488 1.08188,0.07202 0.67197,-0.734758 z m -15.41358,-6.451621 c -4.59734,-1.071245 -4.61665,-1.108901 -1.39713,-2.724531 3.04861,-1.529863 3.2296,-1.533141 5.00894,-0.09068 3.52673,2.859029 1.9271,4.105854 -3.61181,2.815209 z M 162.25733,68.065696 c 3.51149,-1.791425 2.27663,-7.414157 -1.6254,-7.401031 -2.28037,0.0077 -3.67293,1.452081 -3.67293,3.809667 0,3.264511 2.55041,4.993251 5.29833,3.591364 z"
       id="path1" />
  </g>
</svg>
