<?xml version="1.0" encoding="UTF-8" standalone="no"?>
<!-- Created with Inkscape (http://www.inkscape.org/) -->

<svg
   width="165.63036mm"
   height="192.31526mm"
   viewBox="0 0 165.63036 192.31526"
   version="1.1"
   id="svg1"
   inkscape:version="1.3.2 (091e20e, 2023-11-25)"
   sodipodi:docname="deerhead.svg"
   xmlns:inkscape="http://www.inkscape.org/namespaces/inkscape"
   xmlns:sodipodi="http://sodipodi.sourceforge.net/DTD/sodipodi-0.dtd"
   xmlns="http://www.w3.org/2000/svg"
   xmlns:svg="http://www.w3.org/2000/svg">
  <sodipodi:namedview
     id="namedview1"
     pagecolor="#ffffff"
     bordercolor="#000000"
     borderopacity="0.25"
     inkscape:showpageshadow="2"
     inkscape:pageopacity="0.0"
     inkscape:pagecheckerboard="0"
     inkscape:deskcolor="#d1d1d1"
     inkscape:document-units="mm"
     inkscape:zoom="0.2102413"
     inkscape:cx="302.0339"
     inkscape:cy="437.59242"
     inkscape:window-width="1312"
     inkscape:window-height="449"
     inkscape:window-x="0"
     inkscape:window-y="25"
     inkscape:window-maximized="0"
     inkscape:current-layer="layer1" />
  <defs
     id="defs1" />
  <g
     inkscape:label="Taso 1"
     inkscape:groupmode="layer"
     id="layer1"
     transform="translate(-24.741949,-32.251908)">
    <path
       style="fill:#000000;stroke-width:0.264583"
       d="m 103.27905,224.28275 c -12.468414,-1.33373 -19.23255,-8.45661 -21.433666,-22.57042 -1.730997,-11.09937 -3.811482,-17.25194 -10.260341,-30.3427 -4.36762,-8.86598 -5.0556,-12.0395 -5.266597,-24.29376 l -0.14578,-8.46667 H 61.24409 c -19.530145,0 -33.940356,-13.40693 -36.308633,-33.78073 -0.541793,-4.66095 -0.272553,-4.933483 5.186304,-5.249673 18.036463,-1.0447 30.484659,5.791613 40.122308,22.034413 1.374891,2.31718 1.376071,2.31829 1.925672,1.81085 0.302463,-0.27926 2.067983,-1.41973 3.923374,-2.53437 3.934258,-2.36354 3.794114,-1.90738 1.804908,-5.87492 C 72.777362,104.80143 69.187662,101.12881 58.421713,95.088527 43.000204,86.436227 34.385357,77.390529 30.546732,65.81944 25.140363,49.522575 30.46977,27.485946 38.444169,33.164222 c 1.842754,1.312156 2.022954,3.266704 0.665051,7.213523 -2.670162,7.760978 -2.660608,19.447732 0.0181,22.129263 0.133588,0.133731 2.577348,-1.652572 4.392501,-3.210767 3.32718,-2.856174 7.384142,-8.433376 10.150813,-13.954561 2.856254,-5.699958 7.223877,-6.709741 9.128911,-2.110579 1.722596,4.158713 -8.990491,20.135625 -17.499811,26.098265 -1.144601,0.802042 -2.081091,1.562891 -2.081091,1.690772 0,1.091308 6.218648,7.320079 9.974781,9.991019 3.836707,2.72824 15.296242,9.56451 15.539119,9.26998 0.04113,-0.0499 -0.01918,-1.51944 -0.134001,-3.26569 -0.494866,-7.525693 1.736186,-19.859096 4.180015,-23.10742 3.511494,-4.667451 9.166037,-0.82458 7.233975,4.916265 -2.322936,6.902265 -3.065375,12.816635 -2.416421,19.249495 0.930101,9.21974 2.577478,13.022273 10.001115,23.084893 1.607254,2.17861 1.483294,2.14508 4.701625,1.27145 6.10716,-1.65783 24.063529,-1.65898 30.608109,-0.002 1.40925,0.3568 2.73744,0.64874 2.95153,0.64874 0.67097,0 6.48622,-8.40526 8.26327,-11.94358 4.14576,-8.254693 4.65268,-20.490493 1.28202,-30.944081 -2.0508,-6.360263 1.21003,-10.61303 5.66381,-7.386724 2.98519,2.162455 5.20626,11.273509 5.20626,21.356552 v 6.40405 l 2.68181,-1.41941 c 10.00543,-5.29557 17.40825,-10.935106 21.60889,-16.46182 1.52757,-2.00981 1.63507,-1.61915 -0.94122,-3.420563 -8.78714,-6.144225 -19.16768,-22.146005 -17.06563,-26.306962 2.20851,-4.371678 6.12433,-3.182186 9.17178,2.786073 3.3578,6.576044 7.34329,11.679055 11.7688,15.068719 2.38769,1.828829 2.37762,1.829626 3.06743,-0.24325 2.06204,-6.196427 1.65415,-14.340765 -1.05389,-21.043177 -1.89571,-4.69188 1.33952,-8.591095 5.46936,-6.591874 3.75427,1.817412 6.7445,14.582304 5.54333,23.663703 -2.17656,16.45562 -11.24028,28.034541 -30.78132,39.323161 -10.79636,6.236923 -13.64838,9.129603 -18.40287,18.665243 -2.17784,4.3679 -2.27078,3.90661 1.20505,5.9813 1.34025,0.79998 3.08839,1.89315 3.88477,2.42927 0.79638,0.53612 1.48944,0.85034 1.54013,0.69827 0.68003,-2.04009 6.47227,-9.87421 9.71191,-13.13557 8.09513,-8.14949 15.09082,-10.840903 28.17812,-10.840903 9.30332,0 9.36976,0.0759 7.64301,8.731253 -3.76632,18.87881 -17.04318,30.1625 -35.49043,30.1625 h -5.22554 l -0.005,7.54063 c -0.009,12.54243 -0.67647,15.75055 -5.2882,25.4 -6.42148,13.43613 -8.50906,19.55844 -10.18739,29.87692 -2.82476,17.3668 -12.49956,24.73094 -30.02756,22.856 z m -2.25803,-13.15687 c 2.78791,-1.16487 2.21769,-4.63639 -1.065955,-6.48956 -2.59706,-1.4657 -3.62104,-6.91676 -1.622198,-8.63562 l 0.74236,-0.63837 h 8.525333 c 9.51213,0 9.45311,-0.0106 9.95423,1.79373 0.91306,3.28759 -0.14132,6.27353 -2.70256,7.65357 -3.91165,2.10765 -2.9742,7.53199 1.11157,6.4318 9.3968,-2.53029 10.73814,-19.41117 1.73504,-21.83571 -2.77876,-0.74832 -19.643081,-0.47506 -21.431247,0.34727 -7.450481,3.42625 -6.076105,18.08534 1.984375,21.1653 1.770922,0.67668 1.665301,0.66876 2.769052,0.20759 z m -15.055201,-53.7213 c 3.866274,-1.61544 0.97544,-10.67636 -3.222649,-10.10095 -4.618725,0.63307 -6.153017,3.73564 -3.973919,8.03588 1.030192,2.03299 4.731435,3.09507 7.196568,2.06507 z m 47.904331,-0.19172 c 2.57981,-0.84689 3.90419,-4.03638 3.00685,-7.24134 -0.42131,-1.50477 -2.77724,-2.74751 -5.23272,-2.76022 -1.64167,-0.008 -4.55791,4.05306 -4.54692,6.33266 0.0179,3.70165 2.52908,5.06202 6.77279,3.6689 z"
       id="path1" />
  </g>
</svg>
