<?xml version="1.0" encoding="UTF-8"?>
<svg xmlns="http://www.w3.org/2000/svg" xmlns:xlink="http://www.w3.org/1999/xlink" width="2079" height="2509" viewBox="0 0 2079 2509" fill="currentColor">
<path fill-rule="nonzero" fill-opacity="1" d="M 42.542969 0 C 41.421875 0 40.382812 0.691406 39.972656 1.78125 C 16.082031 65.640625 -8.269531 130.519531 2.710938 189.519531 C 13.585938 247.929688 59.007812 300.171875 95.253906 341.949219 L 96.3125 343.171875 L 96.394531 343.261719 L 96.394531 343.269531 C 130.277344 382.320312 156.375 412.78125 181.945312 442.671875 L 181.945312 442.679688 L 121 424.921875 L 120.929688 424.929688 C 119.175781 413.570312 117.210938 401.820312 111.832031 390.960938 C 106.214844 379.621094 96.949219 369.378906 88.011719 359.488281 L 88.007812 359.5 C 87.472656 358.851562 86.695312 358.5 85.898438 358.5 C 85.523438 358.5 85.144531 358.578125 84.785156 358.738281 C 83.664062 359.238281 83.011719 360.429688 83.1875 361.640625 C 85.027344 374.320312 86.835938 386.78125 87.160156 396.070312 C 87.421875 403.570312 86.71875 409 85.820312 414.171875 L 85.820312 414.179688 C 79.351562 411.210938 72.378906 407.53125 61.347656 398.5 C 48.335938 387.839844 29.808594 369.851562 11.121094 351.699219 C 10.59375 351.191406 9.902344 350.929688 9.210938 350.929688 C 8.625 350.929688 8.039062 351.109375 7.546875 351.488281 C 6.464844 352.308594 6.152344 353.808594 6.808594 355 C 27.222656 391.921875 48.054688 429.75 82.683594 450.449219 C 101.609375 461.769531 124.546875 467.898438 149.054688 474.46875 C 169.433594 479.929688 191.03125 485.730469 212.914062 495.019531 C 261.445312 515.648438 311.183594 553.410156 326.066406 576.140625 C 335.265625 590.191406 330.710938 597.621094 321.199219 603.851562 C 316.957031 606.628906 311.792969 609.058594 306.316406 611.511719 C 303.996094 599.71875 300.765625 587.25 288.4375 579.25 C 280.625 574.179688 269.242188 571 255.878906 567.238281 C 246.6875 564.648438 236.339844 561.738281 225.109375 557.730469 C 197.273438 547.800781 163.707031 531.070312 129.933594 514.238281 C 129.546875 514.050781 129.125 513.949219 128.710938 513.949219 C 128.039062 513.949219 127.375 514.199219 126.859375 514.671875 C 126.019531 515.441406 125.742188 516.640625 126.15625 517.699219 C 146.945312 570.71875 167.992188 624.53125 195.613281 654.769531 C 222.878906 684.628906 256.390625 691.441406 289.128906 697.640625 L 289.0625 697.640625 L 286.691406 778.230469 L 286.625 778.230469 C 261.195312 809.53125 235.140625 841.628906 229.75 865.820312 C 225.109375 886.628906 235.601562 901.429688 242.324219 911 C 243.734375 913.011719 244.976562 914.789062 245.894531 916.308594 C 247.207031 918.488281 247.96875 920.320312 248.679688 922.039062 C 249.203125 923.300781 249.753906 924.640625 250.492188 925.871094 C 253.007812 930.050781 257.234375 932.140625 267.273438 933.890625 C 285.136719 937.019531 324.476562 939.519531 360.058594 940.410156 C 367.101562 940.578125 374 940.691406 380.769531 940.691406 C 408.246094 940.691406 433.535156 938.839844 455.871094 931.699219 C 477.140625 924.898438 495.578125 913.351562 513.164062 900.828125 L 513.230469 900.839844 C 499.148438 918.101562 483.472656 933.628906 459.875 942.910156 C 432.183594 953.789062 393.449219 956.160156 374.042969 957.339844 C 371.878906 957.460938 369.878906 957.589844 368.257812 957.699219 C 365.148438 957.910156 361.871094 958.089844 359.886719 959.75 C 359.378906 960.179688 358.964844 960.691406 358.640625 961.269531 L 358.640625 961.28125 C 357.828125 962.761719 357.773438 964.46875 357.882812 966.089844 C 358.027344 968.171875 358.539062 970.929688 359.179688 974.441406 C 360.644531 982.398438 363.007812 995.269531 364.453125 1016.308594 C 364.789062 1021.171875 365.070312 1026.378906 365.285156 1032.148438 C 365.804688 1046.019531 365.914062 1062.78125 366.03125 1081.351562 C 366.179688 1104.730469 366.347656 1130.988281 367.378906 1158.621094 C 369.636719 1219.070312 376.039062 1285.761719 395.59375 1340.25 C 431.085938 1439.140625 509.714844 1497.308594 587.695312 1554.78125 L 587.628906 1554.789062 L 587.714844 1556.476562 C 590.679688 1617.097656 593.679688 1677.867188 597.839844 1733.503906 C 602.058594 1789.933594 607.515625 1841.863281 615.910156 1864.828125 C 618.414062 1871.667969 621.183594 1875.984375 623.777344 1880.035156 C 626.257812 1883.90625 628.554688 1887.496094 630.589844 1893.066406 C 633.734375 1901.660156 636.308594 1915.140625 637.28125 1941.339844 C 639.542969 2002.242188 633.125 2130.425781 626.664062 2259.023438 L 626.601562 2259.027344 C 614.160156 2269.140625 601.085938 2279.9375 596.070312 2293.761719 C 591.089844 2307.492188 594.183594 2323.835938 597.285156 2339.296875 L 597.222656 2339.300781 C 572.324219 2358.472656 546.859375 2378.207031 537.617188 2396.160156 C 529.613281 2411.703125 533.484375 2426.457031 547.960938 2433.90625 L 547.960938 2433.910156 C 551.082031 2435.511719 554.648438 2436.753906 558.628906 2437.597656 L 558.628906 2437.605469 C 563.03125 2438.53125 567.945312 2438.976562 573.117188 2438.976562 C 593.472656 2438.976562 618.867188 2432.042969 634.445312 2418.925781 C 653.734375 2402.679688 657.433594 2377.363281 660.765625 2353.230469 L 660.699219 2353.238281 C 680.027344 2342.859375 700.234375 2331.929688 708.785156 2317.488281 C 717.605469 2302.597656 713.855469 2284.472656 710.441406 2267.753906 L 710.417969 2267.761719 C 703.785156 2131.710938 697.167969 1995.90625 699.582031 1933.464844 C 701.355469 1887.65625 707.96875 1882.195312 714.152344 1876.332031 L 714.152344 1876.335938 C 716.679688 1873.9375 719.46875 1871.304688 722.039062 1866.628906 C 731.269531 1849.820312 737.589844 1806.023438 740.746094 1769.09375 C 743.835938 1732.914062 743.953125 1702.402344 743.984375 1672.195312 L 743.921875 1672.203125 L 763.207031 1671.214844 C 763.992188 1671.175781 764.71875 1670.804688 765.210938 1670.191406 C 765.699219 1669.578125 765.90625 1668.785156 765.769531 1668.007812 L 765.730469 1667.785156 L 765.730469 1667.792969 C 763.667969 1655.761719 761.449219 1643.21875 748.082031 1628.46875 C 739.820312 1619.351562 727.261719 1609.371094 713.210938 1599.140625 L 713.277344 1599.148438 C 744.316406 1615.015625 772.1875 1635.347656 788.472656 1675.640625 C 803.335938 1712.402344 808.621094 1765.835938 812.472656 1804.988281 C 814.15625 1822.097656 815.582031 1836.597656 817.453125 1845.515625 C 819.886719 1857.128906 823.230469 1859.890625 826.929688 1862.617188 C 829.90625 1864.808594 833.480469 1867.023438 836.8125 1882.902344 C 838.175781 1889.414062 839.492188 1898.21875 840.691406 1910.152344 C 847.453125 1977.449219 850.488281 2143.316406 848.410156 2225.972656 C 846.492188 2302.324219 840.148438 2306.597656 833.234375 2312.761719 L 833.234375 2312.769531 C 832.554688 2313.371094 831.816406 2314.023438 831.066406 2314.746094 C 821.945312 2323.496094 810.386719 2342.144531 814.160156 2357.847656 L 814.160156 2357.855469 C 815.75 2364.453125 820.039062 2370.269531 823.71875 2375.3125 C 827.28125 2380.195312 830.203125 2384.277344 831.175781 2388.308594 L 831.175781 2388.316406 C 831.636719 2390.222656 831.628906 2392.0625 831.007812 2393.957031 C 828.9375 2400.28125 820.203125 2407.582031 808.515625 2417.152344 C 800.300781 2423.878906 791.027344 2431.464844 782.988281 2440.136719 C 766 2458.453125 752.070312 2484.628906 767.640625 2499.070312 L 767.640625 2499.078125 C 768.769531 2500.121094 770.054688 2501.09375 771.46875 2501.964844 C 779.15625 2506.710938 791.222656 2508.925781 804.140625 2508.925781 C 825.023438 2508.925781 849.640625 2503.117188 864.289062 2490.796875 C 879.777344 2477.761719 883.605469 2457.828125 887.015625 2440.523438 C 888.914062 2430.902344 890.660156 2422.136719 893.925781 2415.078125 C 899.175781 2403.746094 908.488281 2396.570312 917 2390.058594 C 923.121094 2385.378906 929.332031 2380.71875 932.019531 2374.917969 C 935.726562 2366.917969 932.496094 2357.394531 928.855469 2346.039062 L 928.855469 2346.042969 C 926.089844 2337.429688 922.769531 2327.054688 920.671875 2314.105469 C 916.089844 2285.824219 917.238281 2244.976562 919.246094 2174.34375 L 919.246094 2174.339844 L 919.808594 2154.371094 L 919.808594 2154.367188 L 920.253906 2138.273438 L 920.253906 2138.277344 L 920.738281 2120.675781 L 920.738281 2120.679688 C 922.9375 2041.660156 926.0625 1945.230469 934.007812 1899.125 C 939.703125 1866.058594 947.773438 1859.503906 953.371094 1854.703125 C 957.089844 1851.511719 960.539062 1848.546875 961.851562 1840.921875 L 961.859375 1840.875 L 961.863281 1840.855469 L 961.863281 1840.863281 L 961.863281 1840.851562 L 961.867188 1840.855469 C 963.234375 1832.765625 962.269531 1819.140625 961.222656 1803.996094 C 959.761719 1782.914062 958.070312 1758.296875 961.308594 1738.503906 C 964.425781 1719.464844 972.128906 1704.800781 980.628906 1688.667969 C 987.296875 1676 994.445312 1662.4375 999.875 1645.453125 C 1009.480469 1615.402344 1013.699219 1574.648438 1016.75 1531.828125 L 1016.808594 1531.835938 C 1018.359375 1549.921875 1019.628906 1566.597656 1020.21875 1579.65625 L 1020.21875 1579.664062 C 1021.191406 1601.003906 1020.339844 1612.753906 1019.480469 1624.570312 L 1019.480469 1624.578125 C 1019.410156 1625.421875 1019.75 1626.253906 1020.378906 1626.824219 C 1020.890625 1627.28125 1021.539062 1627.523438 1022.210938 1627.523438 C 1022.410156 1627.523438 1022.609375 1627.503906 1022.808594 1627.460938 L 1419.890625 1539.644531 L 1419.949219 1539.652344 C 1411.941406 1602.730469 1404.171875 1666.5 1419.699219 1705.328125 C 1430.089844 1731.285156 1450.769531 1745.972656 1470.628906 1760.136719 C 1481.539062 1767.929688 1492.191406 1775.539062 1501.21875 1784.832031 L 1501.21875 1784.839844 C 1515.199219 1799.222656 1525.398438 1817.761719 1534.421875 1834.199219 L 1534.421875 1834.203125 C 1541.230469 1846.601562 1547.5 1858.078125 1554.238281 1865.007812 C 1554.820312 1865.609375 1555.398438 1866.167969 1556 1866.707031 L 1556 1866.714844 C 1560.441406 1870.703125 1565.078125 1872.652344 1569.070312 1874.34375 C 1572.730469 1875.898438 1575.71875 1877.1875 1578.269531 1879.484375 L 1578.269531 1879.488281 C 1583.539062 1884.222656 1587.78125 1894.109375 1587.03125 1922.933594 C 1585.539062 1980.148438 1564.648438 2107.890625 1541.761719 2177.902344 C 1525.839844 2226.589844 1509 2247.183594 1498.480469 2260.074219 C 1494 2265.574219 1490.230469 2270.136719 1488.410156 2275.003906 L 1488.410156 2275.011719 C 1485.589844 2282.542969 1487.511719 2290.433594 1489.148438 2297.507812 C 1490.988281 2305.382812 1492.589844 2312.5625 1489.910156 2319.695312 L 1489.910156 2319.703125 C 1489.628906 2320.46875 1489.289062 2321.226562 1488.890625 2322.003906 C 1484.421875 2330.738281 1472.828125 2339.757812 1460.089844 2349.566406 C 1450.828125 2356.707031 1441.121094 2364.175781 1434.25 2371.90625 C 1421.359375 2386.414062 1417.441406 2403.394531 1428.800781 2413.492188 C 1431.300781 2415.714844 1434.449219 2417.472656 1438.199219 2418.730469 C 1443.269531 2420.425781 1449.488281 2421.222656 1456.171875 2421.222656 C 1475.730469 2421.222656 1500.761719 2414.363281 1515 2400.707031 C 1527.089844 2389.125 1531.070312 2372.933594 1534.511719 2359.175781 C 1536.589844 2350.863281 1538.441406 2343.5625 1541.511719 2337.976562 C 1545.128906 2331.402344 1550.539062 2327.074219 1556.570312 2322.285156 C 1562.769531 2317.371094 1569.570312 2312.015625 1574.308594 2303.40625 C 1575.261719 2301.675781 1576.128906 2299.8125 1576.890625 2297.8125 C 1580 2289.652344 1581.398438 2278.992188 1583.230469 2265.148438 L 1583.230469 2265.152344 C 1586.199219 2242.773438 1590.410156 2211.007812 1604.519531 2164.683594 C 1618.230469 2119.660156 1641.28125 2060.933594 1661.578125 2009.1875 C 1675.230469 1974.40625 1687.660156 1942.742188 1695.089844 1920.71875 C 1710.058594 1876.339844 1705.230469 1869.65625 1695.941406 1860.449219 C 1694.039062 1858.566406 1692.121094 1856.660156 1690.28125 1854.132812 C 1680.230469 1840.316406 1671.851562 1807.480469 1663.261719 1773.605469 C 1663.109375 1773.003906 1662.761719 1772.472656 1662.199219 1772.050781 L 1662.191406 1772.058594 C 1634.589844 1751.046875 1607.570312 1730.433594 1590.621094 1695.390625 C 1579.570312 1672.558594 1572.761719 1643.554688 1567.421875 1612.195312 L 1567.480469 1612.199219 C 1580.460938 1658.964844 1596.46875 1701.890625 1623.53125 1728.4375 C 1644.320312 1748.828125 1671.480469 1759.445312 1698.238281 1769.9375 C 1719.25 1778.179688 1740.039062 1786.34375 1758.101562 1799.011719 C 1780.25 1814.539062 1798.449219 1836.929688 1814.671875 1856.914062 C 1827.210938 1872.359375 1838.738281 1886.605469 1849.878906 1894.414062 L 1849.878906 1894.421875 C 1851.058594 1895.238281 1852.230469 1895.996094 1853.410156 1896.679688 C 1861.949219 1901.628906 1870.238281 1902.460938 1877.859375 1903.253906 C 1885.378906 1904.039062 1892.191406 1904.777344 1899.058594 1908.757812 C 1907.519531 1913.65625 1916.5 1923.777344 1926.011719 1946.433594 C 1951.179688 2006.398438 1978.789062 2150.75 1982.621094 2226.511719 C 1985.269531 2278.910156 1976.519531 2298.066406 1972.03125 2308.035156 C 1970.460938 2311.515625 1968.929688 2314.734375 1969.101562 2317.988281 L 1969.101562 2317.996094 C 1969.128906 2318.734375 1969.261719 2319.472656 1969.46875 2320.214844 C 1970.5 2323.792969 1973.769531 2327.375 1976.761719 2330.757812 C 1981.359375 2335.945312 1986.441406 2341.75 1988.640625 2349.34375 L 1988.640625 2349.347656 C 1990.21875 2354.820312 1990.328125 2361.382812 1987.28125 2369.5 C 1982.539062 2382.148438 1970.300781 2398.289062 1957.480469 2415.148438 C 1944.570312 2432.140625 1931.070312 2449.855469 1925.589844 2464.449219 C 1924.730469 2466.753906 1924.039062 2469.019531 1923.601562 2471.214844 L 1923.601562 2471.222656 C 1919.601562 2490.859375 1934.328125 2502.449219 1952.640625 2506.171875 C 1957.289062 2507.117188 1962.25 2507.589844 1967.328125 2507.589844 C 1974.339844 2507.589844 1981.628906 2506.6875 1988.699219 2504.871094 C 2021.089844 2496.542969 2049.179688 2468.882812 2055.75 2442.292969 L 2055.75 2442.296875 C 2059.539062 2427 2056.109375 2412.296875 2053.210938 2399.675781 C 2050.980469 2389.988281 2049.140625 2381.792969 2050.21875 2374.796875 L 2050.21875 2374.804688 C 2051.53125 2366.316406 2057.191406 2359.257812 2063.480469 2351.527344 L 2063.480469 2351.53125 C 2068.988281 2344.761719 2075.019531 2337.433594 2077.160156 2328.679688 C 2081.570312 2310.664062 2069.21875 2287.582031 2057.71875 2265.992188 L 2057.671875 2265.996094 C 2048.109375 2119.601562 2038.578125 1973.5625 2041.550781 1902.796875 C 2042.410156 1882.386719 2044.300781 1868.257812 2045.691406 1857.867188 C 2046.488281 1851.921875 2047.148438 1847.050781 2047.320312 1842.96875 L 2047.320312 1842.976562 L 2047.320312 1842.960938 L 2047.320312 1842.96875 C 2047.929688 1828.402344 2042.050781 1823.300781 2022.179688 1810.949219 C 2018.171875 1808.457031 2013.609375 1805.683594 2008.539062 1802.597656 C 2002.230469 1798.761719 1995.511719 1794.675781 1988.070312 1790.054688 C 1946.121094 1763.972656 1890.929688 1726.554688 1870.890625 1689.582031 C 1853.5 1657.488281 1862.539062 1625.425781 1873.371094 1587.574219 C 1878.730469 1568.855469 1884.460938 1548.832031 1887.238281 1527.101562 C 1893.75 1476.25 1884.039062 1416.359375 1870.851562 1354.800781 L 1870.898438 1354.808594 C 1876.070312 1371.609375 1880.691406 1388.738281 1884.199219 1406.519531 C 1886.378906 1417.558594 1888.140625 1428.871094 1889.808594 1439.53125 C 1891.28125 1448.949219 1892.660156 1457.851562 1894.191406 1465.589844 C 1896.488281 1477.230469 1899.261719 1487.238281 1903.851562 1491.539062 C 1905.511719 1493.089844 1907.519531 1494.039062 1909.769531 1494.039062 C 1921.570312 1494.039062 1931.808594 1469 1931.808594 1426.300781 C 1931.808594 1424.410156 1931.789062 1422.28125 1931.75 1420.300781 C 1930.570312 1364.28125 1912.71875 1274.589844 1892.941406 1217.691406 C 1873 1160.300781 1850.878906 1135.789062 1794.078125 1108.898438 C 1737.609375 1082.160156 1646.511719 1052.828125 1525.460938 1051.679688 C 1522.949219 1051.648438 1520.359375 1051.640625 1517.828125 1051.640625 C 1462.320312 1051.640625 1400.949219 1057.191406 1340.191406 1062.691406 C 1280.289062 1068.109375 1221.011719 1073.460938 1168.25 1073.460938 C 1159.171875 1073.460938 1150.320312 1073.308594 1141.660156 1072.960938 L 1141.601562 1072.96875 C 1059.320312 1069.679688 997.238281 1049.601562 944.132812 1032.421875 C 924.808594 1026.171875 906.636719 1020.289062 889.125 1015.761719 C 845.628906 1004.511719 806.464844 1001.679688 768.851562 1001.679688 C 749.679688 1001.679688 730.886719 1002.421875 712.160156 1003.148438 L 712.140625 1003.148438 C 711.113281 1003.191406 710.191406 1003.808594 709.761719 1004.738281 C 709.332031 1005.679688 709.460938 1006.769531 710.097656 1007.589844 C 716.449219 1015.679688 722.84375 1023.800781 743.167969 1039.601562 C 757.394531 1050.660156 778.480469 1065.511719 801.570312 1081.460938 L 801.570312 1081.46875 C 767.585938 1064.808594 736.59375 1048.710938 717.367188 1034.609375 C 692.691406 1016.519531 687.726562 1002.089844 671.515625 949.25 L 671.492188 949.171875 L 671.488281 949.160156 C 655.417969 896.78125 628.769531 808.449219 601.820312 719.101562 L 601.753906 719.109375 C 648.597656 711.050781 696.640625 702.328125 720.859375 667.570312 C 745.417969 632.320312 744.988281 570.75 744.691406 510.691406 C 744.683594 509.648438 744.085938 508.699219 743.148438 508.238281 C 742.765625 508.058594 742.355469 507.960938 741.949219 507.960938 C 741.351562 507.960938 740.757812 508.160156 740.269531 508.539062 L 739.40625 509.210938 C 704.65625 536.078125 670.320312 562.550781 643.511719 575.679688 C 629.003906 582.78125 616.683594 585.980469 606.429688 588.640625 C 599.402344 590.460938 593.097656 592.089844 587.898438 594.628906 C 586.691406 595.21875 585.519531 595.871094 584.414062 596.589844 C 572.964844 604.019531 568.683594 618.171875 565.339844 631.859375 L 565.339844 631.871094 L 533.210938 598.441406 L 533.148438 598.449219 C 558.011719 561.53125 582.449219 525.820312 612.027344 509.851562 C 630.273438 500 650.59375 497.609375 684.488281 493.691406 C 705.976562 491.210938 732.734375 488.109375 767.46875 482.03125 C 856.507812 466.429688 998.921875 431.050781 1078.878906 360.140625 C 1159.058594 289.019531 1176.050781 182.648438 1174.839844 118.351562 C 1173.609375 53.558594 1153.878906 30.488281 1134.269531 7.710938 C 1133.730469 7.089844 1132.96875 6.75 1132.191406 6.75 C 1131.789062 6.75 1131.390625 6.839844 1131.019531 7.011719 C 1129.910156 7.53125 1129.28125 8.738281 1129.46875 9.871094 L 1129.46875 9.890625 L 1129.480469 9.96875 C 1135.46875 45.460938 1141.378906 80.550781 1140.941406 107.410156 C 1140.550781 131.871094 1134.878906 149.5 1128.660156 166.839844 L 1128.660156 166.851562 C 1118.910156 154.25 1107.851562 141.308594 1084.269531 126.089844 C 1058.410156 109.410156 1017.378906 89.929688 976.628906 70.578125 C 976.25 70.398438 975.847656 70.320312 975.453125 70.320312 C 974.535156 70.320312 973.648438 70.78125 973.128906 71.601562 C 972.390625 72.769531 972.648438 74.320312 973.726562 75.191406 C 1007.410156 102.429688 1040.890625 129.511719 1062.039062 150.890625 C 1082.980469 172.089844 1091.570312 187.421875 1095.511719 213.679688 C 1099.480469 240.171875 1098.609375 277.078125 1063.601562 308.378906 C 1028.949219 339.339844 960.984375 364.949219 891.390625 390.679688 L 891.390625 390.691406 C 899.695312 363.351562 907.191406 334.921875 898.503906 296.320312 C 889.328125 255.558594 862.070312 203.460938 835.101562 151.890625 C 834.617188 150.960938 833.664062 150.421875 832.671875 150.421875 C 832.328125 150.421875 831.984375 150.480469 831.652344 150.621094 C 830.34375 151.140625 829.644531 152.570312 830.035156 153.921875 C 842.765625 198.140625 855.371094 241.949219 858.324219 274.03125 C 861.167969 304.878906 855.066406 324.859375 848.574219 344.839844 L 848.523438 344.839844 C 842.960938 344.839844 836.945312 344.328125 826.09375 337.941406 C 813.707031 330.648438 795.316406 315.890625 776.664062 300.910156 C 776.164062 300.5 775.554688 300.300781 774.945312 300.300781 C 774.398438 300.300781 773.851562 300.460938 773.378906 300.789062 C 772.378906 301.480469 771.957031 302.75 772.34375 303.910156 L 772.34375 303.921875 L 772.347656 303.929688 C 778.398438 322.140625 784.648438 341.078125 795.453125 354.039062 L 795.453125 354.050781 C 805.660156 366.300781 819.785156 373.070312 833.554688 379.269531 L 833.492188 379.28125 L 811.289062 417.898438 L 811.226562 417.910156 C 732.878906 434.019531 654.515625 450.160156 608.867188 462.601562 C 564.597656 474.660156 550.796875 483.308594 538.226562 491.871094 C 517.132812 477.398438 497.074219 462.929688 489.171875 429.089844 L 489.167969 429.089844 C 480.941406 393.828125 485.835938 337.660156 490.832031 280.730469 C 490.953125 279.339844 490.015625 278.078125 488.652344 277.800781 C 488.46875 277.761719 488.28125 277.738281 488.097656 277.738281 C 486.9375 277.738281 485.871094 278.480469 485.496094 279.628906 L 485.222656 280.460938 C 466.921875 336.109375 448.402344 392.53125 451.859375 435.949219 C 455.316406 479.339844 480.632812 509.539062 505.542969 538.859375 L 505.476562 538.859375 L 496.746094 562.429688 L 496.746094 562.441406 L 390.582031 559.371094 L 390.511719 559.371094 C 381.378906 541.929688 371.808594 524.128906 352.5 507.289062 C 333.21875 490.46875 304.265625 474.671875 275.503906 459.078125 L 275.4375 459.089844 C 279.6875 435.089844 283.875 410.789062 283.070312 386.429688 C 282.242188 361.410156 276.15625 336.441406 270.164062 311.789062 C 269.863281 310.558594 268.757812 309.699219 267.5 309.699219 C 267.453125 309.699219 267.410156 309.699219 267.363281 309.699219 C 266.050781 309.769531 264.96875 310.75 264.78125 312.058594 L 264.765625 312.160156 C 261.085938 338.089844 257.410156 363.949219 253.339844 383.960938 C 249.648438 402.078125 245.617188 415.480469 241.53125 428.5 C 197.789062 390.019531 155.148438 352.03125 135.054688 315.660156 C 114.640625 278.699219 117.59375 243.398438 129.621094 218.46875 C 141.65625 193.511719 162.863281 178.710938 184.78125 163.488281 C 185.933594 162.691406 186.296875 161.148438 185.625 159.921875 C 185.128906 159.019531 184.191406 158.5 183.21875 158.5 C 182.863281 158.5 182.507812 158.558594 182.164062 158.710938 L 181.507812 158.980469 C 154.882812 170.058594 127.777344 181.359375 110.277344 195.46875 C 93.804688 208.75 85.914062 224.429688 78.859375 239.808594 L 78.859375 239.820312 C 58.550781 217.390625 39.316406 194.789062 33.539062 157.078125 C 27.4375 117.269531 36.277344 60.558594 45.253906 3.171875 C 45.46875 1.78125 44.601562 0.449219 43.238281 0.0898438 C 43.007812 0.03125 42.773438 0 42.542969 0 Z M 42.542969 0 "/>
</svg>
