<?xml version="1.0" encoding="UTF-8" standalone="no"?>
<!-- Created with Inkscape (http://www.inkscape.org/) -->

<svg
   width="186.15227mm"
   height="316.668mm"
   viewBox="0 0 186.15227 316.668"
   version="1.1"
   id="svg1"
   inkscape:version="1.3.2 (091e20e, 2023-11-25)"
   sodipodi:docname="deer.svg"
   xmlns:inkscape="http://www.inkscape.org/namespaces/inkscape"
   xmlns:sodipodi="http://sodipodi.sourceforge.net/DTD/sodipodi-0.dtd"
   xmlns="http://www.w3.org/2000/svg"
   xmlns:svg="http://www.w3.org/2000/svg">
  <sodipodi:namedview
     id="namedview1"
     pagecolor="#ffffff"
     bordercolor="#000000"
     borderopacity="0.25"
     inkscape:showpageshadow="2"
     inkscape:pageopacity="0.0"
     inkscape:pagecheckerboard="0"
     inkscape:deskcolor="#d1d1d1"
     inkscape:document-units="mm"
     inkscape:zoom="0.2102413"
     inkscape:cx="351.97651"
     inkscape:cy="599.31136"
     inkscape:window-width="1312"
     inkscape:window-height="449"
     inkscape:window-x="0"
     inkscape:window-y="25"
     inkscape:window-maximized="0"
     inkscape:current-layer="layer1" />
  <defs
     id="defs1" />
  <g
     inkscape:label="Layer 1"
     inkscape:groupmode="layer"
     id="layer1"
     transform="translate(-11.377129,9.7895833)">
    <path
       style="fill:#000000;stroke-width:0.264583"
       d="m 109.80979,306.74116 c -2.88402,-0.74335 -3.82887,-2.30976 -3.88578,-6.442 l -0.0407,-2.95455 -1.15334,-0.33411 c -2.25535,-0.65336 -2.28328,-0.9226 -0.89718,-8.65053 1.05513,-5.88266 1.11224,-24.94325 0.0913,-30.46193 -0.55569,-3.00368 -0.64332,-4.32816 -0.69144,-10.45104 l -0.0551,-7.01146 -1.35302,-8.33437 c -0.74416,-4.58391 -2.027931,-12.62063 -2.85283,-17.85938 -0.8249,-5.23874 -1.601536,-9.6381 -1.725859,-9.77635 -0.274058,-0.30475 -0.272737,9.51243 0.0016,12.2527 l 0.194974,1.94717 -1.864977,-0.17965 c -8.136098,-0.78364 -17.757703,-3.45969 -30.836792,-8.5766 -5.158775,-2.01827 -5.151134,-2.00243 -3.328022,-6.89799 0.511942,-1.37471 0.889788,-2.5405 0.839652,-2.59063 -0.197154,-0.19715 -2.78467,3.63184 -3.976129,5.88386 -3.988832,7.5394 -9.892577,14.8841 -17.612584,21.91133 -13.948468,12.69677 -16.157766,18.07554 -16.593262,40.39804 -0.242509,12.43047 0.535506,16.56506 5.51929,29.33118 3.166846,8.11199 3.560308,7.45974 -4.519824,7.49255 -8.916122,0.0362 -9.672775,-0.52589 -9.500195,-7.0575 l 0.09087,-3.43897 -2.182813,-0.92099 c -2.606357,-1.09969 -2.485249,-0.38145 -1.266303,-7.50964 1.939776,-11.34346 2.04775,-28.08462 0.263882,-40.91538 -0.354058,-2.54662 -0.709986,-5.12112 -0.790954,-5.72114 -0.41865,-3.1024 1.090356,-6.80995 4.778815,-11.74136 6.683666,-8.93596 8.177344,-17.14624 6.113137,-33.60208 -0.374209,-2.98318 -0.761201,-6.58115 -0.859986,-7.99548 -0.220806,-3.16132 -0.384612,-3.09894 -1.171475,0.44608 -0.795665,3.58468 -0.987771,3.6003 -2.211972,0.17982 -6.693484,-18.70199 14.55574,-45.08098 37.721085,-46.82732 3.290601,-0.24807 6.579946,-0.0216 14.639917,1.00798 17.947184,2.29255 21.220321,2.11266 29.439915,-1.61797 2.28919,-1.039 5.65045,-2.41401 7.46946,-3.05558 7.83906,-2.76485 9.2845,-5.33431 12.17622,-21.64482 0.59339,-3.34698 1.66837,-9.0794 2.38884,-12.7387 2.00864,-10.202023 2.20265,-9.739102 -4.17116,-9.953097 -9.48744,-0.318532 -16.56146,-4.075697 -21.496894,-11.417448 -3.617833,-5.38175 -6.187803,-13.984745 -4.044403,-13.538668 0.400183,0.08329 3.164615,0.513426 6.143183,0.95587 13.058154,1.939692 19.882844,4.748398 24.085464,9.912395 2.93658,3.608337 7.95659,1.60424 5.94425,-2.373077 -2.61657,-5.171564 -7.37383,-7.81341 -19.57029,-10.867964 C 93.694976,61.154677 86.634178,57.856637 76.608002,49.845091 58.266699,35.189236 51.183169,20.153497 55.211053,4.4272143 c 1.87983,-7.3395205 6.024636,-9.5339032 5.067308,-2.6827824 -1.13084,8.0928394 0.795054,17.6627841 4.716682,23.4376351 2.512195,3.69937 2.797886,3.39371 3.602688,-3.854487 C 70.10507,7.7522039 73.246137,-0.4230956 79.39585,-6.7768235 84.424037,-11.971819 86.023552,-10.20957 82.527583,-3.3264637 78.431955,4.7372927 75.378817,16.007357 76.675868,18.273995 78.126716,20.809402 85.985499,16.05395 95.755961,6.7283854 99.833479,2.8365366 100.1683,2.6014517 101.28449,2.8466067 105.82437,3.8437339 95.739396,16.981355 84.981228,24.084732 c -8.66358,5.720371 -9.535662,8.8172 -4.572481,16.237238 4.659749,6.9664 14.667391,13.450035 20.760443,13.450035 3.19905,0 3.55606,-0.669919 3.80703,-7.14375 0.29073,-7.499387 1.72946,-12.811394 3.8454,-14.197811 1.86118,-1.219496 2.31455,0.453734 2.08623,7.69961 -0.38589,12.246877 1.41968,14.748304 15.69583,21.744914 7.52343,3.687164 9.13421,4.640135 12.24023,7.241593 1.02463,0.858181 2.02451,1.49834 2.22195,1.422574 0.19744,-0.07577 1.17062,-0.218194 2.1626,-0.316505 l 1.80361,-0.17875 -0.0748,-1.190625 c -0.1787,-2.843707 -1.59871,-5.795256 -5.02806,-10.451041 -7.87299,-10.688611 -11.85511,-23.44565 -8.3079,-26.615073 1.85233,-1.655061 2.39072,-0.885843 5.20237,7.432781 3.01605,8.923377 10.51324,18.548633 14.42149,18.515023 5.32488,-0.0458 12.25205,-12.635447 12.2984,-22.351481 0.0309,-6.487819 -1.08934,-8.56569 -6.19878,-11.497358 -10.8292,-6.213512 -14.04779,-8.737613 -18.23569,-14.3008582 -4.37471,-5.8114141 -6.18323,-10.41870685 -4.28458,-10.9152133 0.94461,-0.247023 2.15635,0.66705951 6.84947,5.1669261 9.21148,8.8321754 18.83096,14.7066584 21.3642,13.0468184 1.89145,-1.239327 -0.22776,-10.9308344 -4.27291,-19.5407569 -5.26032,-11.1963381 2.36269,-7.8581141 8.00306,3.50465222 2.96932,5.98182958 4.66952,13.35954768 5.37817,23.33760168 0.14891,2.096638 0.34656,4.191146 0.43922,4.654463 l 0.16848,0.842399 1.17411,-0.84318 c 5.60509,-4.025278 9.11178,-15.995885 7.5196,-25.669348 -0.56211,-3.41516754 2.05404,-3.11454002 3.68834,0.423836 4.29748,9.304348 1.50214,22.01605 -7.0198,31.92231 -3.88347,4.514307 -4.55459,5.375724 -6.07542,7.798122 -3.39973,5.415137 -3.45869,8.018547 -0.16598,7.32907 5.18511,-1.085731 11.46418,-6.101017 16.37183,-13.076672 3.09723,-4.402359 4.68732,-4.149857 4.1883,0.665097 -0.85483,8.248081 -8.55672,15.275184 -22.25811,20.307995 -8.32367,3.057462 -12.77016,6.181342 -14.76722,10.374715 -1.21017,2.541063 -1.20324,2.923156 0.06,3.31261 1.71545,0.528849 1.80856,0.478035 4.89042,-2.668876 4.29315,-4.383778 9.74805,-6.221286 11.94545,-4.023879 1.84385,1.84385 -2.1239,9.301869 -6.16077,11.580135 -0.78498,0.443019 -1.32999,0.89104 -1.21112,0.995609 0.11886,0.104568 1.16473,0.882607 2.32415,1.728978 1.15942,0.846373 2.68099,2.136441 3.38127,2.866824 1.24127,1.294614 1.73054,1.97631 3.63882,5.069932 1.60638,2.604188 6.91417,6.142001 15.34584,10.228495 2.69213,1.304772 5.18839,2.514979 5.54724,2.689359 2.23023,1.08373 3.16752,5.87147 1.53036,7.81713 -0.40018,0.47559 -0.73022,1.12346 -0.73341,1.43972 -0.0484,4.79245 -7.64729,8.26689 -15.20774,6.95344 -4.28281,-0.74404 -5.57007,-0.75049 -10.24873,-0.0514 -2.43534,0.36389 -6.543,0.85195 -9.12812,1.08456 -8.85319,0.79663 -8.66138,0.66684 -2.5343,1.71482 l 5.34093,0.91352 0.28626,1.64382 c 5.87199,33.71946 6.0981,44.9958 1.19021,59.35686 -2.61505,7.65194 -5.07124,12.16602 -9.95471,18.29521 -1.20551,1.51302 -5.73645,20.39447 -7.38741,30.785 -0.53187,3.3474 -0.60077,4.94006 -0.7154,16.53646 -0.34689,35.09169 0.0328,37.76935 6.82453,48.12855 2.2298,3.40104 3.59062,5.90212 4.46872,8.21309 l 0.51094,1.34467 -0.5477,0.2931 c -0.79025,0.42294 -10.22608,0.62794 -12.49266,0.27141 -2.91447,-0.45841 -3.81148,-1.37853 -4.64928,-4.7689 -0.98873,-4.00116 -1.19692,-4.34679 -2.50053,-4.15131 -1.86616,0.27985 -1.86639,0.27887 -1.77253,-7.65053 0.14136,-11.94176 -0.71179,-21.92804 -2.74361,-32.11447 -0.78944,-3.95782 -1.26806,-7.19428 -1.44772,-9.78958 -0.34807,-5.02793 -2.33379,-16.20081 -4.09627,-23.04809 -0.20442,-0.79418 -0.34676,-1.46098 -0.31631,-1.4818 0.0305,-0.0209 0.81042,-0.41656 1.73326,-0.87945 3.68526,-1.84851 7.53601,-5.06738 10.00786,-8.36565 1.30197,-1.73725 1.2557,-1.78104 -0.49009,-0.4636 -3.57887,2.70071 -14.00116,6.74214 -14.94726,5.79604 -0.19471,-0.19471 0.64071,-4.66939 1.21818,-6.52478 0.73507,-2.3618 0.46234,-2.3099 -0.6632,0.12618 -1.89555,4.10268 -4.13596,11.03945 -5.80398,17.97034 -1.55291,6.45258 -1.74588,8.00605 -1.97558,15.90415 -0.18104,6.22478 -0.32365,7.97899 -0.89264,10.98021 -0.99788,5.26344 -1.23043,8.19912 -1.40431,17.72709 -0.21023,11.52077 -0.0438,12.45594 3.81357,21.43125 3.63526,8.45846 4.00771,9.95838 2.58038,10.39193 -1.04075,0.31612 -11.13404,0.49702 -12.2131,0.21889 z m 81.66623,-197.01237 c 0,-0.36523 -0.25945,-0.87124 -0.57656,-1.12448 -0.31711,-0.25324 -0.99022,-0.84738 -1.4958,-1.32033 -0.98139,-0.91804 -1.0752,-0.95845 -1.52605,-0.6574 -1.64364,1.09749 -1.08037,2.75965 1.14234,3.37093 2.01118,0.5531 2.45607,0.50442 2.45607,-0.26872 z M 154.25543,91.571396 c 2.41588,-0.485175 2.4033,-1.483879 -0.052,-4.131162 -1.19246,-1.285679 -4.86906,-1.148434 -5.59547,0.208873 -1.35472,2.531324 1.76945,4.701114 5.6475,3.922289 z M 70.693729,304.68376 c -3.062595,-0.67389 -4.384869,-2.20832 -4.752944,-5.51545 -0.518424,-4.65804 -0.935222,-5.68381 -2.309481,-5.68381 -0.563402,0 -1.424808,-0.16732 -1.91424,-0.37182 l -0.889878,-0.37182 -0.165695,-3.13391 c -0.594683,-11.24764 -4.355534,-23.3069 -12.405561,-39.7787 -4.271486,-8.74022 -4.311454,-10.00678 -0.474819,-15.04696 4.218149,-5.54135 7.895489,-12.42414 10.362591,-19.39536 1.283502,-3.62675 1.411174,-3.86871 1.935015,-3.66696 0.308464,0.11882 2.465845,0.99232 4.794178,1.94116 2.328334,0.94883 6.078802,2.3802 8.334375,3.18083 4.094422,1.45335 6.937148,2.53029 7.094929,2.68787 0.665366,0.66456 -6.254014,10.43332 -12.184848,17.20255 -6.312135,7.20442 -6.530652,8.92966 -2.949051,23.28333 3.872994,15.52144 6.630926,22.67389 12.979143,33.66016 2.767002,4.78861 5.239769,9.94815 5.029885,10.49509 -0.207653,0.54113 -10.444607,0.96248 -12.483599,0.5138 z"
       id="path1" />
  </g>
</svg>
