<?xml version="1.0" encoding="UTF-8" standalone="no"?>
<!-- Created with Inkscape (http://www.inkscape.org/) -->

<svg
   width="107.36361mm"
   height="105.46685mm"
   viewBox="0 0 107.36361 105.46685"
   version="1.1"
   id="svg1"
   inkscape:version="1.3.2 (091e20e, 2023-11-25)"
   sodipodi:docname="duck.svg"
   xmlns:inkscape="http://www.inkscape.org/namespaces/inkscape"
   xmlns:sodipodi="http://sodipodi.sourceforge.net/DTD/sodipodi-0.dtd"
   xmlns="http://www.w3.org/2000/svg"
   xmlns:svg="http://www.w3.org/2000/svg">
  <sodipodi:namedview
     id="namedview1"
     pagecolor="#ffffff"
     bordercolor="#000000"
     borderopacity="0.25"
     inkscape:showpageshadow="2"
     inkscape:pageopacity="0.0"
     inkscape:pagecheckerboard="0"
     inkscape:deskcolor="#d1d1d1"
     inkscape:document-units="mm"
     inkscape:zoom="0.2102413"
     inkscape:cx="218.79621"
     inkscape:cy="337.70719"
     inkscape:window-width="1312"
     inkscape:window-height="449"
     inkscape:window-x="0"
     inkscape:window-y="25"
     inkscape:window-maximized="0"
     inkscape:current-layer="layer1" />
  <defs
     id="defs1" />
  <g
     inkscape:label="Layer 1"
     inkscape:groupmode="layer"
     id="layer1"
     transform="translate(-46.180621,-59.494079)">
    <path
       style="fill:#000000;stroke-width:0.132291"
       d="m 99.501779,164.82803 c -0.158565,-0.0928 -0.475222,-0.42683 -0.703682,-0.74238 -0.74853,-1.03387 -1.163211,-1.12871 -4.087303,-0.93479 -3.278691,0.21744 -3.338434,0.17901 -2.511295,-1.6155 0.656793,-1.42493 0.723976,-1.34796 -2.353842,-2.69656 -3.500583,-1.53383 0.06933,-2.83719 10.14286,-3.70309 2.146433,-0.1845 4.346743,-0.37935 4.889563,-0.43298 l 0.98697,-0.0975 0.18684,-0.59531 c 0.12181,-0.38809 0.20936,-1.49328 0.25153,-3.175 l 0.0647,-2.57969 -4.67808,-0.006 c -4.10946,-0.005 -7.171902,-0.1172 -11.256261,-0.41134 l -1.154225,-0.0831 -0.27583,0.64349 c -0.343257,0.80079 -1.074309,3.59603 -1.467644,5.61168 -0.292285,1.49781 -0.307241,1.53233 -0.966559,2.23036 -2.395066,2.53573 -8.465902,6.34773 -10.491125,6.58759 l -0.690035,0.0817 -0.252433,-0.5803 c -0.138839,-0.31917 -0.441645,-0.75891 -0.672903,-0.97719 l -0.420469,-0.39687 -2.075192,-0.0745 c -2.647416,-0.095 -2.942238,-0.26068 -2.339776,-1.31457 0.464406,-0.8124 0.122092,-1.08152 -2.38125,-1.8721 -3.591044,-1.13409 -3.709931,-1.48454 -0.88265,-2.60186 3.063686,-1.21075 4.397333,-1.48241 12.239726,-2.49321 2.782403,-0.35862 2.896789,-0.38495 3.06117,-0.70451 0.424471,-0.82519 1.929779,-5.07075 1.831322,-5.16505 -0.06049,-0.0579 -0.883891,-0.32597 -1.829777,-0.59561 -16.797264,-4.78847 -25.596148,-13.18816 -25.957703,-24.78005 -0.224479,-7.19707 1.457303,-10.76084 9.686029,-20.52512 5.584305,-6.626407 7.111463,-9.119952 7.732151,-12.625095 0.535134,-3.021997 -0.845661,-4.837815 -4.682651,-6.157934 l -0.778462,-0.26783 -1.481233,0.520151 c -9.383439,3.295099 -20.701251,1.943251 -19.969948,-2.385295 0.173858,-1.029057 0.595186,-1.257026 3.767964,-2.03875 5.12122,-1.26179 11.008463,-5.571565 13.605134,-9.959682 8.727477,-14.748575 27.979007,-8.999085 28.556574,8.528452 0.166474,5.052008 -0.570821,7.796238 -3.868318,14.397946 -3.850316,7.70847 -3.707241,9.821307 0.587809,8.68032 11.334935,-3.01115 20.717735,-1.91824 31.696405,3.691987 3.30848,1.69067 4.82596,2.59945 10.71562,6.41725 9.25887,6.00181 11.52058,6.59668 18.58698,4.8887 4.08548,-0.98747 4.42084,-0.47778 2.70623,4.11308 -4.92987,13.19975 -22.13452,25.83435 -39.45202,28.97243 -1.04768,0.18985 -1.23447,0.26277 -1.28751,0.50259 -0.16603,0.75078 -0.72816,5.69251 -0.72816,6.40131 0,1.04263 0.14707,1.40521 0.65539,1.61576 1.59372,0.66014 0.17809,2.48583 -4.15939,5.36424 -3.90512,2.5915 -7.1124,3.91468 -8.095233,3.33974 z m 11.533091,-33.31254 c 7.36949,-0.44092 14.6342,-2.75481 19.10936,-6.08654 1.41264,-1.0517 3.0495,-2.61773 3.0495,-2.91754 0,-0.32939 0.18208,-0.39469 -2.20281,0.79006 -13.49474,6.70383 -35.425481,6.34944 -44.805285,-0.72404 -2.653815,-2.00129 -5.509132,-7.3659 -5.511368,-10.35483 -5.5e-4,-0.67339 -0.310257,-0.32598 -0.606216,0.67991 -1.824081,6.1996 4.078432,13.73967 13.067172,16.69245 4.721819,1.5511 11.649967,2.29445 17.899647,1.92053 z M 58.805961,81.178835 c 2.729764,-0.354826 7.358247,-1.426898 7.913607,-1.832987 0.198109,-0.144861 0.193022,-0.217424 -0.06169,-0.879991 -0.3646,-0.948408 -0.874293,-2.985151 -1.058014,-4.227839 -0.372293,-2.518213 -0.623402,-2.55825 -3.429529,-0.546803 -3.132433,2.245346 -6.809194,4.229688 -10.203693,5.506916 -2.620887,0.986147 -2.525791,1.227124 0.727604,1.843781 2.056339,0.389763 3.856327,0.430089 6.111715,0.136923 z m 15.848703,-9.175229 c 1.466449,-0.67681 1.913447,-2.293666 0.987492,-3.571909 -1.716417,-2.369444 -5.586132,-0.276113 -4.444125,2.40406 0.523553,1.228725 2.140826,1.775133 3.456633,1.167849 z"
       id="path1" />
  </g>
</svg>
