<?xml version="1.0" encoding="UTF-8" standalone="no"?>
<!-- Created with Inkscape (http://www.inkscape.org/) -->

<svg
   width="113.08084mm"
   height="97.725044mm"
   viewBox="0 0 113.08084 97.725044"
   version="1.1"
   id="svg1"
   inkscape:version="1.3.2 (091e20e, 2023-11-25)"
   sodipodi:docname="duckhead.svg"
   xmlns:inkscape="http://www.inkscape.org/namespaces/inkscape"
   xmlns:sodipodi="http://sodipodi.sourceforge.net/DTD/sodipodi-0.dtd"
   xmlns="http://www.w3.org/2000/svg"
   xmlns:svg="http://www.w3.org/2000/svg">
  <sodipodi:namedview
     id="namedview1"
     pagecolor="#ffffff"
     bordercolor="#000000"
     borderopacity="0.25"
     inkscape:showpageshadow="2"
     inkscape:pageopacity="0.0"
     inkscape:pagecheckerboard="0"
     inkscape:deskcolor="#d1d1d1"
     inkscape:document-units="mm"
     inkscape:zoom="0.2102413"
     inkscape:cx="204.52689"
     inkscape:cy="280.62992"
     inkscape:window-width="1312"
     inkscape:window-height="449"
     inkscape:window-x="0"
     inkscape:window-y="25"
     inkscape:window-maximized="0"
     inkscape:current-layer="layer1" />
  <defs
     id="defs1" />
  <g
     inkscape:label="Layer 1"
     inkscape:groupmode="layer"
     id="layer1"
     transform="translate(-50.417055,-74.711016)">
    <path
       style="fill:#000000;stroke-width:0.132291"
       d="m 84.523165,172.28723 c -14.855129,-0.82841 -24.886882,-3.58284 -30.536843,-8.38452 -1.083247,-0.9206 -1.985291,-2.02215 -1.892803,-2.31142 0.03656,-0.11435 0.371128,-0.9406 0.743479,-1.83609 3.137287,-7.54513 3.311125,-13.93993 0.599467,-22.05203 -3.882325,-11.61424 -4.009569,-21.19138 -0.446444,-33.60209 6.419803,-22.360798 26.148512,-34.163178 46.085227,-27.569737 9.832232,3.251701 16.001652,9.964927 21.694322,23.606597 1.71217,4.10297 2.2141,4.84868 5.54996,8.24557 7.09869,7.22857 14.8114,12.11947 25.46912,16.15086 15.36299,5.81121 15.65507,13.15852 0.60014,15.09677 -7.04763,0.90735 -16.34288,-0.55299 -27.84739,-4.37499 -17.27678,-5.73964 -23.03153,-6.5599 -28.4902,-4.06083 -5.206073,2.38341 -3.063303,10.83833 4.935,19.47243 7.51661,8.11413 12.13858,16.20863 10.51275,18.41111 -1.66843,2.2602 -15.174136,3.8665 -26.975785,3.20837 z M 151.72197,135.786 c 2.70589,-0.32532 4.27281,-0.81332 5.76005,-1.79393 2.71021,-1.78697 1.21766,-3.32498 -5.96803,-6.14981 -14.2351,-5.59608 -20.36798,-9.69106 -33.23998,-22.19462 -5.90432,-5.735329 -5.92478,-5.733624 -6.04955,0.50396 -0.13965,6.98125 -1.02448,9.64649 -4.60535,13.87192 -2.24875,2.65352 -1.90587,2.9556 8.65406,7.62406 15.81126,6.99003 25.84336,9.29323 35.4488,8.13842 z M 124.8369,119.77273 c -4.09298,-1.64424 -6.02487,-6.04205 -2.54355,-5.79024 1.55168,0.11224 5.02796,3.15298 5.0253,4.3957 -0.003,1.12406 -1.31668,1.86257 -2.48175,1.39454 z M 98.542363,103.63851 c 3.266457,-0.84038 3.834577,-1.56809 2.802817,-3.59012 -2.76177,-5.412453 -7.460267,-7.556754 -12.706309,-5.79891 -2.349872,0.787395 -2.711474,1.429292 -1.879135,3.335738 2.225934,5.098442 6.653238,7.372962 11.782627,6.053292 z m -5.653004,-1.77703 c -0.851273,-0.30377 -1.592025,-0.96852 -2.025218,-1.81743 -1.59422,-3.124128 2.602027,-5.35255 5.415585,-2.875956 2.531586,2.228392 -0.09778,5.868306 -3.390367,4.693386 z"
       id="path1" />
  </g>
</svg>
