<?xml version="1.0" encoding="UTF-8" standalone="no"?>
<!-- Created with Inkscape (http://www.inkscape.org/) -->

<svg
   width="223.17668mm"
   height="221.18971mm"
   viewBox="0 0 223.17668 221.18971"
   version="1.1"
   id="svg1"
   inkscape:version="1.3.2 (091e20e, 2023-11-25)"
   sodipodi:docname="fox.svg"
   xmlns:inkscape="http://www.inkscape.org/namespaces/inkscape"
   xmlns:sodipodi="http://sodipodi.sourceforge.net/DTD/sodipodi-0.dtd"
   xmlns="http://www.w3.org/2000/svg"
   xmlns:svg="http://www.w3.org/2000/svg">
  <sodipodi:namedview
     id="namedview1"
     pagecolor="#ffffff"
     bordercolor="#000000"
     borderopacity="0.25"
     inkscape:showpageshadow="2"
     inkscape:pageopacity="0.0"
     inkscape:pagecheckerboard="0"
     inkscape:deskcolor="#d1d1d1"
     inkscape:document-units="mm"
     inkscape:zoom="0.2102413"
     inkscape:cx="423.3231"
     inkscape:cy="418.56666"
     inkscape:window-width="1312"
     inkscape:window-height="449"
     inkscape:window-x="0"
     inkscape:window-y="25"
     inkscape:window-maximized="0"
     inkscape:current-layer="layer1" />
  <defs
     id="defs1" />
  <g
     inkscape:label="Layer 1"
     inkscape:groupmode="layer"
     id="layer1"
     transform="translate(7.1437493,-37.835416)">
    <path
       style="fill:#000000;stroke-width:0.264583"
       d="M 35.797542,258.67371 C 9.035359,256.10437 -7.7392109,240.86729 -7.1275709,219.68294 -6.5621034,200.09776 11.726894,182.98849 33.920636,181.28255 l 2.208993,-0.1698 1.390655,-3.60136 c 9.9539,-25.77754 26.896419,-41.89611 56.350386,-53.60996 14.95507,-5.94763 21.94241,-10.43287 23.14628,-14.85781 2.91814,-10.725927 8.44771,-23.036677 14.5408,-32.372894 1.60319,-2.456498 1.65488,-2.59175 2.10094,-5.497306 1.82759,-11.904525 10.83029,-29.096875 16.87265,-32.221496 2.145,-1.109225 4.13563,2.848825 7.00037,13.919113 1.10977,4.288525 2.16188,8.3331 2.33802,8.987943 l 0.32027,1.190625 0.2972,-1.322916 c 0.65718,-2.925228 0.85222,-4.190333 0.85222,-5.527924 0,-1.67146 0.58791,-2.635493 4.95475,-8.124634 7.25282,-9.116827 10.8531,-11.723001 13.09609,-9.480011 l 0.81223,0.812224 -0.15338,4.810172 c -0.15409,4.832639 -0.62957,9.146519 -1.997,18.118331 l -0.73792,4.841491 1.73605,1.154882 c 5.77242,3.840015 10.3802,9.397588 12.73157,15.355885 1.69629,4.298355 4.54421,6.450203 16.91803,12.783029 8.55883,4.380346 8.06097,3.787426 6.23426,7.424616 -5.07673,10.10839 -11.69242,13.3081 -28.45926,13.76446 -10.99553,0.29928 -11.37192,0.79739 -10.15551,13.43973 1.80586,18.7685 -2.78757,31.7108 -16.46994,46.40509 -2.18233,2.34372 -2.38914,3.32281 -3.13285,14.83199 -1.52956,23.67033 1.50831,39.72473 7.93017,41.90895 6.59341,2.24258 9.78103,6.66471 8.43219,11.69786 l -0.15953,0.59531 h -8.24464 -8.24464 l -0.73816,-1.6944 c -0.86071,-1.97569 -3.02374,-4.48694 -4.90408,-5.69355 l -1.30432,-0.83698 -1.46548,-4.42034 c -4.22411,-12.74119 -5.86092,-21.99294 -5.86092,-33.12764 0,-14.0994 0.34973,-14.86961 11.56804,-25.47628 13.59069,-12.8497 18.91742,-27.41951 16.51323,-45.16747 -2.11066,-15.58111 -0.44679,-17.22315 17.95623,-17.72068 6.70603,-0.1813 8.25373,-0.2989 9.97581,-0.75801 1.96061,-0.5227 6.46372,-2.31503 6.67163,-2.65545 0.0554,-0.0906 -1.70313,-0.17418 -3.90776,-0.18563 -4.56069,-0.0237 -7.07438,-0.40254 -16.3448,-2.46339 -11.75312,-2.61277 -16.29337,-2.9437 -20.94731,-1.52684 -8.79177,2.6766 -12.50573,8.12512 -12.47313,18.29854 l 0.0161,5.02708 1.63242,7.9375 c 3.81225,18.5368 2.55434,26.85014 -5.95639,39.36491 -5.19808,7.64362 -5.80877,8.6288 -6.61525,10.67183 -5.01802,12.71201 -1.48871,51.5739 4.8993,53.94721 5.8045,2.15651 9.05224,6.78608 8.14671,11.61294 l -0.17861,0.95207 -6.66874,-0.005 c -13.96671,-0.01 -14.19188,-0.24423 -19.87078,-20.70289 -2.69161,-9.69672 -10.74276,-42.01542 -10.74276,-43.12324 1e-5,-0.49355 -0.39723,-0.62595 -0.65017,-0.21669 -0.0837,0.13548 -2.44989,2.19958 -5.25814,4.5869 l -5.1059,4.34057 -0.31734,-3.51351 c -1.39301,-15.42301 -11.598129,-24.99047 -24.387193,-22.86337 -2.895296,0.48155 -2.965688,0.6536 -0.485394,1.18642 19.462975,4.18102 27.353637,25.62028 14.955596,40.63499 l -1.402021,1.69792 2.964772,1.68477 c 14.24911,8.09722 25.77121,25.86723 25.77121,39.74574 0,1.22636 0.11165,1.19016 -1.49941,0.48606 -6.20522,-2.71197 -13.67507,-4.2039 -21.045889,-4.20343 -6.128549,2.6e-4 -9.306602,0.38705 -26.209548,3.18885 -20.080369,3.32849 -28.187438,4.00668 -37.364111,3.12566 z m 38.758545,-9.90554 c 2.110052,-0.21198 5.503333,-0.61886 7.540625,-0.90418 8.813567,-1.2343 10.340864,-1.38247 15.636462,-1.51691 6.334126,-0.16081 11.576586,0.3277 15.288506,1.42464 2.15725,0.6375 -3.19462,-10.40031 -7.65427,-15.78636 C 94.660253,219.05403 79.079626,212.67868 59.871712,213.36923 38.376944,214.142 34.454239,212.10305 33.841433,199.83919 l -0.171874,-3.43959 -1.07755,2.11667 c -4.027945,7.91223 -2.196123,14.67837 4.922412,18.18175 3.634967,1.78895 4.063119,1.84657 15.345833,2.0653 12.135363,0.23527 15.356014,0.6711 21.483076,2.9072 2.964654,1.08197 9.473174,4.71826 9.473174,5.29264 0,0.0861 -3.423047,0.37343 -7.606771,0.63854 l -7.606771,0.482 3.704167,3.74409 c 2.037291,2.05925 4.808373,4.6704 6.15796,5.80255 1.349586,1.13216 2.381694,2.17512 2.293575,2.31771 -0.197456,0.31949 -10.162815,5.32346 -14.669244,7.36596 -1.81901,0.82446 -3.604947,1.64362 -3.96875,1.82036 -0.864137,0.41982 6.882077,0.1917 12.435417,-0.3662 z M 183.03525,89.002314 c 0,-1.841508 -2.55333,-5.493916 -4.60042,-6.580669 -1.8265,-0.969645 -8.89333,-0.285086 -8.89333,0.861489 0,0.53259 3.34373,3.287908 4.8187,3.970732 2.62508,1.215257 8.67505,2.434624 8.67505,1.748448 z"
       id="path1" />
  </g>
</svg>
