<?xml version="1.0" encoding="UTF-8" standalone="no"?>
<!-- Created with Inkscape (http://www.inkscape.org/) -->

<svg
   width="111.52187mm"
   height="107.64288mm"
   viewBox="0 0 111.52187 107.64288"
   version="1.1"
   id="svg1"
   inkscape:version="1.3.2 (091e20e, 2023-11-25)"
   sodipodi:docname="goose.svg"
   xmlns:inkscape="http://www.inkscape.org/namespaces/inkscape"
   xmlns:sodipodi="http://sodipodi.sourceforge.net/DTD/sodipodi-0.dtd"
   xmlns="http://www.w3.org/2000/svg"
   xmlns:svg="http://www.w3.org/2000/svg">
  <sodipodi:namedview
     id="namedview1"
     pagecolor="#ffffff"
     bordercolor="#000000"
     borderopacity="0.25"
     inkscape:showpageshadow="2"
     inkscape:pageopacity="0.0"
     inkscape:pagecheckerboard="0"
     inkscape:deskcolor="#d1d1d1"
     inkscape:document-units="mm"
     inkscape:zoom="0.2102413"
     inkscape:cx="271.11704"
     inkscape:cy="485.15681"
     inkscape:window-width="1312"
     inkscape:window-height="449"
     inkscape:window-x="0"
     inkscape:window-y="25"
     inkscape:window-maximized="0"
     inkscape:current-layer="layer1" />
  <defs
     id="defs1" />
  <g
     inkscape:label="Layer 1"
     inkscape:groupmode="layer"
     id="layer1"
     transform="translate(-33.072916,-20.637719)">
    <path
       style="fill:#000000;stroke-width:0.132291"
       d="m 132.96756,127.62506 c -5.51874,-2.94033 -8.61427,-5.34948 -12.60454,-9.80966 l -1.98242,-2.21588 -0.94889,-0.001 c -3.5711,-0.005 -8.04507,-0.79532 -11.86296,-2.0952 -10.978462,-3.73784 -19.410137,-8.43941 -24.814792,-13.836936 -1.727875,-1.7256 -3.102815,-3.373825 -7.464375,-8.948015 -6.43895,-8.22915 -9.947702,-10.14092 -18.917709,-10.30747 -5.880084,-0.109175 -5.422396,-0.04435 -9.348086,-1.3242 -2.48051,-0.808695 -4.324963,-1.240775 -5.931601,-1.38952 -5.298862,-0.49059 -6.019271,-0.64854 -6.019271,-1.3197 0,-0.756945 1.112885,-1.4302 3.266512,-1.976115 2.605275,-0.660405 3.711511,-1.237005 6.366983,-3.31864 6.397703,-5.015195 10.320354,-5.22956 15.568067,-0.85077 2.319383,1.93533 3.282764,2.53081 7.597582,4.696175 2.141378,1.074635 5.207238,2.659035 6.813023,3.52089 6.373295,3.42067 9.645545,3.878385 12.79271,1.78942 3.56077,-2.363505 6.239295,-8.620205 7.45885,-17.422935 0.476345,-3.43825 1.00424,-4.57438 3.84175,-8.268228 4.070847,-5.299384 9.142527,-10.550527 13.160367,-13.626041 0.85548,-0.654844 2.23891,-1.712671 3.07427,-2.350727 5.25584,-4.014419 11.88983,-10.74949 16.08893,-16.334066 3.42631,-4.556801 4.37598,1.459805 1.20171,7.613342 -0.42451,0.822941 -0.72246,1.477785 -0.6621,1.455208 0.0604,-0.02257 1.08316,-0.864456 2.27289,-1.870842 3.49514,-2.956526 4.03945,-3.247631 4.43229,-2.370467 0.88,1.964925 -0.56521,6.501722 -3.0871,9.69101 -0.45963,0.58127 -0.83569,1.084692 -0.83569,1.118716 0,0.168468 1.32888,-0.544748 2.58401,-1.386845 2.53978,-1.704008 3.93375,-2.214842 4.11149,-1.506691 0.48173,1.91935 -2.37482,6.686411 -5.50012,9.178713 -1.4882,1.186776 -1.48427,1.190317 0.53387,0.481604 1.69357,-0.594734 4.02153,-1.12162 4.19301,-0.949003 1.36118,1.370201 -2.30858,5.820609 -6.90695,8.376225 l -0.53667,0.29826 0.46302,-0.0682 c 0.25466,-0.03751 1.02857,-0.154522 1.71979,-0.260025 0.69123,-0.105501 1.71814,-0.232121 2.28204,-0.281377 l 1.02526,-0.08956 v 0.329236 c 0,1.727152 -3.06803,4.781255 -6.63767,6.607551 l -0.88299,0.451751 1.87517,6.5e-4 c 2.2114,8e-4 2.86736,0.09976 2.86736,0.432582 0,0.906338 -2.22482,2.960838 -5.2909,4.885858 l -1.12372,0.70552 -0.61254,2.41236 c -2.70274,10.644095 -7.1463,21.088795 -10.86502,25.53851 l -0.8731,1.04472 1.0152,0.730645 c 0.55835,0.401855 1.72265,1.24142 2.58732,1.865695 2.20253,1.590185 4.02365,3.183375 7.33657,6.418332 4.09889,4.00242 4.55489,4.34956 6.9663,5.30322 2.76754,1.09451 11.8401,5.82429 11.8401,6.17258 0,1.0241 -1.15718,1.55493 -3.85371,1.76781 l -1.00945,0.0797 0.31492,0.31491 c 0.9732,0.97321 0.31069,1.3093 -2.38854,1.21171 -2.83202,-0.10239 -4.22789,-0.42558 -6.95385,-1.61005 -1.94256,-0.84408 -7.22353,-1.52645 -6.82518,-0.88191 0.22077,0.35722 5.32629,2.5351 8.28039,3.5322 1.24296,0.41953 4.16619,3.65175 5.73435,6.34045 0.97918,1.67885 0.80364,1.91115 -1.3227,1.75033 -0.70904,-0.0536 -0.97381,-0.0312 -0.95991,0.0814 0.16333,1.32274 -0.74412,1.48516 -2.64355,0.47316 z m -5.4384,-14.32307 c 0,-0.0267 -0.253,-0.21183 -0.56224,-0.41138 -0.30923,-0.19955 -1.90169,-1.71848 -3.5388,-3.37539 -2.54008,-2.57079 -4.13425,-3.96987 -4.52345,-3.96987 -0.0524,0 0.2256,0.44716 0.61772,0.99369 1.00854,1.40569 1.34666,2.19967 1.95973,4.60181 l 0.53903,2.11205 2.19177,-0.087 c 1.27054,-0.0504 2.35858,-0.0347 2.58864,0.0375 0.43115,0.13521 0.7276,0.17539 0.7276,0.0986 z M 102.82383,88.812444 c 1.7701,-0.634755 4.27424,-3.826345 3.59289,-4.579225 -0.3045,-0.336465 -0.15123,-0.6641 0.80983,-1.73117 1.2667,-1.40642 1.62433,-2.318905 1.11992,-2.857445 -0.39853,-0.425485 -0.26924,-0.84338 0.59739,-1.930845 0.93338,-1.171235 1.28448,-2.52524 0.83955,-3.237685 -0.24263,-0.388505 -0.0282,-1.0906 0.69779,-2.285095 1.3675,-2.24991 1.53098,-2.85851 1.03105,-3.83844 -0.22881,-0.44852 -0.32734,-0.52732 -0.59531,-0.476095 -0.47828,0.09143 -0.41637,-0.24054 0.29527,-1.583235 1.57371,-2.96921 1.50029,-2.78651 1.50029,-3.73329 0,-1.154835 -0.16935,-1.39763 -0.90591,-1.298835 -0.86196,0.115615 -0.71901,-0.59383 0.54724,-2.715721 1.01733,-1.704782 1.23456,-2.418825 1.04536,-3.43619 -0.1867,-1.003936 -0.1146,-0.966321 -1.09146,-0.569387 -0.45731,0.185823 -0.85147,0.337859 -0.87592,0.337859 -0.0245,0 0.27968,-0.646268 0.67582,-1.436153 1.49593,-2.982802 1.6292,-5.455039 0.4289,-7.956555 l -0.4126,-0.859896 -0.0892,1.322917 c -0.12992,1.927829 -1.01956,4.687389 -2.68093,8.31599 l -0.47614,1.039949 0.32497,0.255627 c 0.79821,0.627867 0.4923,2.69206 -0.76647,5.172025 -0.47088,0.9277 -0.83035,1.68672 -0.79882,1.68672 0.0316,0 0.20008,-0.09352 0.37454,-0.20784 1.36155,-0.89212 1.45728,2.14463 0.13738,4.35801 l -0.31482,0.527935 0.33813,0.401845 c 0.64448,0.76592 0.17031,2.863235 -0.93005,4.113705 l -0.5804,0.659585 0.33616,0.440735 c 0.79378,1.04069 0.43804,2.699355 -0.88971,4.14836 l -0.77512,0.8459 0.38221,0.42776 c 0.8909,0.997095 0.15501,3.45503 -1.32832,4.43665 -0.53197,0.35204 -0.53738,0.363475 -0.32543,0.68695 0.9711,1.48209 -1.36492,4.65169 -4.181752,5.673965 l -0.595315,0.216045 1.455207,-0.05502 c 0.90614,-0.03425 1.69236,-0.140065 2.08373,-0.28041 z M 52.914028,78.335264 c 2.604032,-0.84101 3.620698,-4.30732 1.694291,-5.77666 -0.9616,-0.73345 -1.124495,-0.6821 -2.717562,0.856625 -1.499477,1.44833 -3.33797,2.94717 -4.251551,3.46609 -1.543378,0.876655 3.09964,2.15645 5.274822,1.453945 z m -2.198016,-5.475555 c 0.864468,-0.67999 0.115803,-2.61924 -1.016116,-2.632025 -1.169669,-0.0132 -1.500496,1.448215 -0.554822,2.45092 0.506753,0.537315 1.039947,0.59878 1.570938,0.181105 z"
       id="path1" />
  </g>
</svg>
