<?xml version="1.0" encoding="UTF-8" standalone="no"?>
<!-- Created with Inkscape (http://www.inkscape.org/) -->

<svg
   width="218.97537mm"
   height="202.11304mm"
   viewBox="0 0 218.97537 202.11304"
   version="1.1"
   id="svg1"
   inkscape:version="1.3.2 (091e20e, 2023-11-25)"
   sodipodi:docname="grouse.svg"
   xmlns:inkscape="http://www.inkscape.org/namespaces/inkscape"
   xmlns:sodipodi="http://sodipodi.sourceforge.net/DTD/sodipodi-0.dtd"
   xmlns="http://www.w3.org/2000/svg"
   xmlns:svg="http://www.w3.org/2000/svg">
  <sodipodi:namedview
     id="namedview1"
     pagecolor="#ffffff"
     bordercolor="#000000"
     borderopacity="0.25"
     inkscape:showpageshadow="2"
     inkscape:pageopacity="0.0"
     inkscape:pagecheckerboard="0"
     inkscape:deskcolor="#d1d1d1"
     inkscape:document-units="mm"
     inkscape:zoom="0.2102413"
     inkscape:cx="-19.025757"
     inkscape:cy="38.051515"
     inkscape:window-width="1312"
     inkscape:window-height="449"
     inkscape:window-x="0"
     inkscape:window-y="25"
     inkscape:window-maximized="0"
     inkscape:current-layer="layer1" />
  <defs
     id="defs1" />
  <g
     inkscape:label="Layer 1"
     inkscape:groupmode="layer"
     id="layer1"
     transform="translate(-109.5375,-138.1125)">
    <path
       style="fill:#000000;stroke-width:0.264583"
       d="m 149.01148,339.76246 c -0.36495,-0.95105 2.84067,-4.38993 5.50871,-5.90954 2.89059,-1.64636 3.72786,-1.8117 15.03053,-2.96816 3.44605,-0.35258 5.47469,-0.73694 6.40233,-1.21302 0.39258,-0.20148 1.3169,-1.26411 2.05404,-2.3614 0.73714,-1.09729 2.32094,-3.28817 3.51955,-4.86862 1.19861,-1.58046 3.28322,-4.71363 4.63246,-6.96261 l 2.45318,-4.08905 -5.89276,-5.93064 c -6.63146,-6.6741 -5.29143,-5.77145 -15.12266,-10.18669 -9.3653,-4.20598 -14.85652,-7.6002 -21.46176,-13.26587 -5.86348,-5.02942 -9.58373,-9.41705 -13.76357,-16.23261 -4.22532,-6.88973 -6.83159,-13.1808 -8.42748,-20.34246 -2.13864,-9.59731 -2.24673,-16.33575 -0.4093,-25.51736 1.64375,-8.21377 3.08134,-13.16807 6.34229,-21.85702 5.78169,-15.40559 6.38014,-19.3514 3.77,-24.85687 -1.24568,-2.62745 -5.11096,-6.54423 -7.88486,-7.98991 -3.66405,-1.9096 -8.16748,-3.03508 -13.40401,-3.34989 l -2.82067,-0.16957 0.35038,-1.01626 c 1.31729,-3.82079 9.95235,-9.28667 17.22858,-10.90548 1.07416,-0.23898 1.95301,-0.57297 1.95301,-0.74221 0,-0.16923 0.43179,-0.96095 0.95952,-1.75938 4.19948,-6.35345 12.51797,-9.96057 20.76057,-9.00232 8.98683,1.04478 15.90208,5.66304 19.62589,13.1069 2.66298,5.32329 3.85032,10.68177 4.95392,22.35729 1.09737,11.60967 1.8609,15.41433 3.95573,19.71146 2.34176,4.80366 5.76984,7.74878 11.04056,9.48512 3.45902,1.13952 7.11614,2.06164 11.19965,2.82392 6.53242,1.21942 11.5529,2.68197 19.97604,5.81932 5.64518,2.10266 13.58821,5.52024 18.09838,7.78704 2.43576,1.22421 2.51253,1.24356 3.65951,0.92243 3.95396,-1.10704 6.91807,-4.88746 9.21561,-11.75355 1.30778,-3.90826 2.29211,-8.97164 6.32712,-32.54678 1.03902,-6.07064 2.16557,-11.61491 3.45958,-17.02616 0.76988,-3.21949 2.85565,-6.39829 5.14501,-7.84123 2.77122,-1.74665 6.24152,-1.63558 7.99539,0.2559 l 0.6629,0.7149 0.60776,-1.01629 c 1.43087,-2.39271 3.08864,-3.50072 5.57501,-3.72617 3.17694,-0.28808 6.26723,1.74122 8.03614,5.27707 0.51441,1.02824 0.9353,2.0251 0.9353,2.21524 0,0.65013 0.49266,0.65035 1.45003,5.3e-4 1.40009,-0.95013 2.64787,-1.28461 4.33652,-1.16247 2.91957,0.21119 6.0158,2.47326 7.33784,5.36097 1.00061,2.18564 1.54036,5.46229 1.22103,7.41248 -0.14388,0.87868 -0.2335,1.62948 -0.19916,1.66844 0.0343,0.039 0.58619,-0.16677 1.22632,-0.45721 3.28391,-1.48993 6.8987,0.1336 8.8438,3.97207 1.68727,3.32968 1.80321,6.21069 0.4042,10.04409 -0.44445,1.21781 -0.80808,2.31353 -0.80808,2.43493 0,0.12141 0.32742,0.055 0.7276,-0.14757 2.78899,-1.41177 6.34621,-0.0102 8.04619,3.1702 1.00789,1.88561 1.37374,3.79484 1.2039,6.28258 -0.22543,3.30188 -1.59126,6.82926 -3.39245,8.76131 l -0.73999,0.79375 h 1.92534 c 1.63199,0 2.0842,0.10513 2.96797,0.68998 2.96151,1.95984 3.584,7.23171 1.39575,11.82059 -0.80465,1.68738 -3.2356,4.39861 -5.38618,6.00718 l -1.05708,0.79066 1.25477,0.17949 c 1.68529,0.24107 3.00144,1.10407 3.7106,2.43304 0.47308,0.88657 0.58555,1.53057 0.58448,3.34677 -10e-4,2.0366 -0.0918,2.43901 -0.9599,4.26165 -1.62959,3.42159 -5.01406,6.58886 -8.59663,8.04493 l -1.474,0.59908 0.93661,0.30911 c 1.22504,0.4043 2.20356,1.19141 2.7181,2.18643 0.50788,0.98213 0.55634,4.12863 0.082,5.32358 -0.90738,2.28582 -3.47097,4.75471 -6.88654,6.63214 -3.27544,1.80041 -11.87756,4.26757 -19.02094,5.45536 l -3.57188,0.59393 -1.05833,1.4565 c -1.31413,1.80854 -3.85946,4.16411 -6.55072,6.06236 -2.03195,1.43322 -6.68159,4.03922 -7.22427,4.04902 -0.15469,0.003 -1.59637,-1.69156 -3.20374,-3.76523 -1.60737,-2.07368 -4.05603,-5.08397 -5.44146,-6.68956 -2.66149,-3.08428 -7.7307,-8.06083 -8.21105,-8.06083 -0.15646,0 0.61018,0.92273 1.70365,2.05052 3.20744,3.30807 6.25873,7.65171 11.45341,16.30443 4.2141,7.01935 8.68525,16.33634 8.20927,17.10648 -0.59884,0.96894 -5.18949,2.45913 -8.85905,2.87576 -9.17455,1.04167 -18.65873,0.36204 -29.76562,-2.13296 -13.38456,-3.00666 -27.1727,-7.86579 -38.24849,-13.47931 -6.51213,-3.30053 -12.50468,-7.31443 -18.79237,-12.58741 -7.7795,-6.52405 -12.60857,-14.33948 -14.40749,-23.31728 -0.59654,-2.97709 -0.44153,-9.97176 0.25614,-11.55877 0.72139,-1.64098 0.047,-0.74402 -1.00382,1.33506 -1.19154,2.35755 -1.71334,4.54324 -1.92366,8.05764 -0.57224,9.5625 3.5574,18.81206 12.11302,27.13075 4.75782,4.62605 9.32753,8.0055 16.10146,11.9075 13.36074,7.69624 32.6529,14.19848 50.66771,17.07707 2.03729,0.32554 3.81699,0.69124 3.95488,0.81266 0.29788,0.26228 -0.67148,3.4493 -1.62501,5.34262 -1.21908,2.4206 -1.25084,3.74939 -0.1968,8.23453 3.129,13.31451 3.35843,14.02762 4.91931,15.29004 0.58202,0.47073 2.74568,1.86791 4.80813,3.10483 3.45012,2.06917 3.80073,2.35148 4.38561,3.5313 0.53058,1.07028 0.57433,1.32411 0.26458,1.53493 -0.21394,0.14561 -2.05195,0.20504 -4.33987,0.14032 -3.18049,-0.09 -4.27914,-0.22404 -5.53152,-0.67503 -0.85953,-0.30952 -1.70921,-0.56277 -1.88819,-0.56277 -0.18524,0 -0.40637,0.53984 -0.51335,1.25329 -0.25004,1.66734 -0.70124,2.478 -1.99607,3.58633 -1.76683,1.51234 -7.08991,2.85307 -11.62653,2.92839 -1.88163,0.0312 -2.25514,-0.0322 -2.3287,-0.39564 -0.0596,-0.2946 0.3181,-0.63089 1.18275,-1.05297 l 1.27036,-0.62013 -1.5875,-0.222 c -1.80636,-0.25261 -7.30083,-0.0594 -10.34235,0.36359 -1.12456,0.15641 -3.36372,0.69796 -4.97592,1.20344 -2.86402,0.89797 -4.1286,0.98327 -4.1286,0.27851 0,-0.18702 0.353,-0.89666 0.78444,-1.57698 1.43101,-2.25646 6.75386,-5.62428 10.09637,-6.38807 0.92779,-0.21201 3.68176,-0.4981 6.11993,-0.63576 3.44766,-0.19466 4.59448,-0.35286 5.15937,-0.71175 1.67886,-1.06663 3.49528,-2.59157 3.64362,-3.05894 0.0876,-0.27609 -0.31681,-2.25941 -0.89874,-4.40738 -0.58194,-2.14796 -1.35753,-5.33413 -1.72354,-7.08038 -1.07833,-5.14481 -1.50879,-6.85287 -1.82218,-7.23048 -0.35731,-0.43053 -3.78204,-2.17232 -6.65097,-3.38263 l -2.09274,-0.88286 -3.46351,0.29084 c -1.90919,0.16032 -6.26829,0.2375 -9.71344,0.17197 l -6.24992,-0.11887 -0.15503,1.66011 c -0.26718,2.86119 -0.99,3.8897 -7.04263,10.02108 -3.01669,3.05594 -6.15976,6.36767 -6.98459,7.35941 -2.66433,3.20345 -4.9488,6.92085 -4.49403,7.31289 0.12093,0.10425 1.16366,0.45637 2.31716,0.78249 5.35261,1.5133 8.69862,4.25247 9.52666,7.79886 l 0.1784,0.76405 -3.65221,-0.18295 c -4.22933,-0.21187 -7.55896,-0.72302 -9.76794,-1.49951 -2.13736,-0.75132 -3.51652,-0.68977 -6.44447,0.28757 -2.95492,0.98635 -6.75867,1.30558 -15.61793,1.31073 -5.59905,0.003 -6.6613,-0.16332 -5.68725,-0.89183 0.29033,-0.21714 0.85393,-0.46913 1.25244,-0.55997 0.39852,-0.0908 0.7925,-0.27506 0.87552,-0.40939 0.39988,-0.64703 -5.64191,0.0368 -9.59044,1.08545 -3.38493,0.89898 -3.74342,0.935 -3.94993,0.39683 z m -4.37644,-181.08207 c 1.13104,-0.80537 1.66079,-1.90787 1.67298,-3.48182 0.0328,-4.22898 -5.22792,-5.75357 -7.82949,-2.26905 -0.40561,0.54328 -0.54551,1.12783 -0.54551,2.27936 0,1.74211 0.47598,2.60973 2.0087,3.66143 1.17925,0.80917 3.41742,0.7186 4.69332,-0.18992 z"
       id="path1" />
  </g>
</svg>
