<?xml version="1.0" encoding="UTF-8" standalone="no"?>
<!-- Created with Inkscape (http://www.inkscape.org/) -->

<svg
   width="206.15305mm"
   height="223.75778mm"
   viewBox="0 0 206.15305 223.75778"
   version="1.1"
   id="svg1"
   inkscape:version="1.3.2 (091e20e, 2023-11-25)"
   sodipodi:docname="lynx.svg"
   xmlns:inkscape="http://www.inkscape.org/namespaces/inkscape"
   xmlns:sodipodi="http://sodipodi.sourceforge.net/DTD/sodipodi-0.dtd"
   xmlns="http://www.w3.org/2000/svg"
   xmlns:svg="http://www.w3.org/2000/svg">
  <sodipodi:namedview
     id="namedview1"
     pagecolor="#ffffff"
     bordercolor="#000000"
     borderopacity="0.25"
     inkscape:showpageshadow="2"
     inkscape:pageopacity="0.0"
     inkscape:pagecheckerboard="0"
     inkscape:deskcolor="#d1d1d1"
     inkscape:document-units="mm"
     inkscape:zoom="0.2102413"
     inkscape:cx="390.02803"
     inkscape:cy="423.3231"
     inkscape:window-width="1312"
     inkscape:window-height="449"
     inkscape:window-x="0"
     inkscape:window-y="25"
     inkscape:window-maximized="0"
     inkscape:current-layer="layer1" />
  <defs
     id="defs1" />
  <g
     inkscape:label="Layer 1"
     inkscape:groupmode="layer"
     id="layer1"
     transform="translate(-1.3229164,-36.5125)">
    <path
       style="fill:#000000;stroke-width:0.264583"
       d="m 81.823394,259.81978 c 0.939443,-2.44815 0.327917,-6.64263 -1.225785,-8.40773 -1.567474,-1.78074 -2.225207,-2.07848 -1.649955,-0.74689 0.818269,1.89415 1.165521,3.65311 1.16505,5.90142 -7.94e-4,3.75334 0.462558,3.43959 -5.079497,3.43959 -4.376116,0 -4.745995,-0.0364 -4.586896,-0.45097 0.977371,-2.54699 0.291735,-6.288 -1.439008,-7.85162 -1.414256,-1.2777 -2.811507,-2.00934 -2.511877,-1.3153 1.202666,2.78578 1.63014,6.27902 1.072785,8.76664 l -0.194599,0.86855 -18.167183,-0.0748 -18.16718,-0.0748 -1.522053,-0.71328 c -4.920102,-2.30573 -7.034101,-6.91152 -5.926791,-12.91276 1.622372,-8.7927 0.477084,-13.86073 -1.778175,-7.86861 -3.012045,8.00286 -12.6710195,10.69051 -17.967306,4.99947 -5.6966916,-6.12129 -1.3852157,-17.1304 9.335551,-23.8378 0.800033,-0.50054 1.488418,-0.93123 1.529741,-0.95708 0.04132,-0.0258 -0.04069,-0.56882 -0.182242,-1.2066 -5.5430317,-24.97366 5.61269,-58.81778 25.804563,-78.28563 15.279828,-14.73193 31.576049,-21.22368 61.054623,-24.32167 6.22979,-0.6547 4.91033,0.22167 15.44162,-10.25618 l 8.45986,-8.416937 -0.8618,2.116666 c -10.45825,25.686481 0.34876,51.385331 28.74575,68.356801 2.82046,1.68565 2.78106,1.68775 3.00864,-0.16045 0.79566,-6.4617 5.46307,-17.53226 9.24998,-21.93987 l 0.94848,-1.10393 2.44436,1.82432 c 8.55718,6.38655 15.17451,6.6313 21.42664,0.7925 5.10705,-4.76942 4.77521,-6.17611 -1.1229,-4.76012 -5.40867,1.2985 -10.14952,0.70689 -16.39941,-2.04648 -1.73384,-0.76384 -1.68654,-0.81396 1.84733,-1.95761 l 2.51354,-0.81344 5.82083,0.18149 c 5.46544,0.17041 5.95814,0.14604 8.06979,-0.39911 3.44004,-0.88807 3.42535,-0.85425 1.44746,-3.33262 -3.92573,-4.9191 -0.45308,-7.63535 7.92857,-6.20162 2.95334,0.50518 3.96258,-0.47067 2.40329,-2.32378 -0.99757,-1.18554 -1.96012,-1.47036 -4.44803,-1.31615 -1.19455,0.074 -3.23595,-0.008 -4.53644,-0.1834 -4.06016,-0.54609 -5.09413,-0.0597 -6.65614,3.13095 -1.44394,2.94951 -2.07686,3.13038 -6.58789,1.88257 -4.35307,-1.20412 -7.26905,-0.92257 -13.6279,1.31584 -11.70974,4.122 -17.2136,15.28199 -14.21594,28.82519 0.57778,2.61038 0.68985,2.57329 -1.80678,0.5981 -4.45778,-3.52674 -7.52463,-8.14813 -9.16282,-13.80732 -1.7937,-6.19636 0.51273,-23.2339 4.18725,-30.93116 0.88777,-1.85969 0.73285,-1.77676 -2.05874,1.1021 -7.53543,7.77099 -10.6927,16.59538 -9.11226,25.46824 0.4433,2.48874 0.41707,2.50631 -0.71192,0.4767 -8.01439,-14.40768 -8.56777,-31.09255 -1.50322,-45.323574 1.58072,-3.184242 1.58046,-2.574798 0.002,-5.374359 -5.95083,-10.556357 -6.08175,-22.090856 -0.37964,-33.447958 1.4272,-2.842617 1.46825,-2.365682 -0.45519,-5.289529 -2.05944,-3.130452 -3.53831,-6.026695 -3.07742,-6.026695 0.49183,0 4.06688,1.747015 4.2797,2.091354 0.40903,0.661831 0.59133,0.124351 1.04586,-3.083542 0.26289,-1.85539 0.74503,-4.206874 1.07141,-5.22552 l 0.59342,-1.852084 0.2785,1.058334 c 0.15318,0.582083 0.59917,2.546614 0.99109,4.365625 0.39193,1.81901 1.04261,4.33665 1.44596,5.594754 l 0.73338,2.287466 7.64363,7.638592 c 4.204,4.201224 8.35802,8.492466 9.23114,9.536094 l 1.5875,1.897505 3.175,0.01744 c 20.11836,0.110564 37.0123,9.901121 43.87976,25.42968 l 0.63735,1.441167 -1.75334,0.0037 c -7.87788,0.0168 -9.53962,10.23405 -2.91277,17.90919 5.81873,6.73916 6.96952,8.98985 6.93971,13.57248 -0.0322,4.94188 -2.81188,10.33168 -6.97092,13.51641 -0.40804,0.31246 -0.89032,1.18663 -1.25883,2.28178 -0.79857,2.37323 -2.00677,4.35587 -4.40012,7.22056 -3.77347,4.51662 -5.23139,7.88645 -5.28286,12.21084 l -0.0288,2.42125 -1.57962,-1.09833 c -1.72466,-1.19919 -5.03532,-4.33505 -5.9077,-5.59577 -0.74147,-1.07154 -0.74107,-1.07239 -1.79197,3.86397 -5.08399,23.88109 -14.99909,36.2048 -37.47294,46.57601 -4.4476,2.05248 -4.34536,2.02504 -4.54264,1.21943 -1.23622,-5.04794 -0.88755,-11.0579 0.84783,-14.61391 1.82381,-3.73722 4.14066,-11.19974 3.63432,-11.70608 -0.0467,-0.0467 -0.72697,0.6802 -1.51171,1.61532 -0.78475,0.93512 -2.72616,3.10924 -4.31425,4.83139 -4.0682,4.4116 -5.18439,7.18026 -5.18079,12.85066 0.005,7.48408 4.23695,23.02126 9.51024,34.91382 l 0.54736,1.23443 2.04802,0.17129 c 9.15047,0.7653 16.79128,11.4805 12.79612,17.94481 -1.12692,1.82339 -5.95858,3.12593 -5.4902,1.48008 1.17739,-4.13723 0.11213,-7.25431 -3.02189,-8.84244 l -1.23715,-0.62691 0.67555,1.63965 c 0.6954,1.68784 1.12033,6.17182 0.73164,7.72047 l -0.16717,0.66609 h -4.12907 -4.12908 l 0.17419,-0.8599 c 0.91413,-4.51271 -0.0549,-7.12807 -3.2541,-8.78243 -1.09218,-0.56479 -1.16097,-0.52807 -0.69582,0.37144 1.09883,2.12489 1.57217,8.20685 0.70612,9.0729 -0.14054,0.14053 -2.59871,0.20679 -5.76453,0.15536 l -5.5195,-0.0897 -1.75244,-0.83031 c -3.41244,-1.61684 -4.50471,-3.03417 -7.53373,-9.77569 -6.21477,-13.83186 -8.47199,-18.71167 -13.14606,-28.42004 -9.449513,-19.62731 -9.746408,-20.76674 -8.677062,-33.30101 0.302453,-3.5452 0.5462,-8.01004 0.541657,-9.92188 l -0.0083,-3.47606 -0.661702,1.05833 c -9.850064,15.7543 -8.993025,25.46649 4.342154,49.20651 l 1.334225,2.37526 -1.367147,0.78932 c -4.17441,2.41008 -4.706443,3.94641 -1.780865,5.14258 8.8561,3.62094 13.87311,14.24909 9.01126,19.08963 -1.7036,1.69614 -2.42782,1.84566 -8.939693,1.84566 H 91.30033 l -0.182039,-1.84741 c -1.126503,-11.43224 -9.012811,-17.46718 -22.82568,-17.46718 -0.87353,0 -0.81126,-0.12973 1.396947,-2.91041 11.823289,-14.88848 14.517819,-32.15955 7.265056,-46.56667 -7.046039,-13.99647 -25.812136,-19.43445 -36.522657,-10.5834 l -0.661458,0.54662 1.058333,-0.20603 c 11.390918,-2.21753 25.210479,4.07317 30.018021,13.66429 7.945723,15.85184 1.469155,34.59352 -17.123608,49.55171 -2.863244,2.30353 -3.461523,2.16902 10.38892,2.33584 13.237482,0.15944 13.239551,0.15971 16.324651,2.13942 7.144179,4.58441 8.807537,17.95474 2.23402,17.95739 -0.85289,2.6e-4 -0.992074,-0.0737 -0.847442,-0.45056 z m -8.572526,-100.1708 c 2.929271,-1.54903 3.04519,-5.40573 0.195082,-6.49049 -1.229788,-0.46806 -2.05419,-0.26325 -3.282928,0.8156 -3.507206,3.07937 -0.936856,7.80321 3.087846,5.67489 z m -17.213749,-8.18813 c 3.732276,-1.90684 3.995004,-6.66643 0.386561,-7.00287 -2.340602,-0.21822 -4.336634,1.85177 -4.345704,4.50673 -0.0092,2.67637 1.609249,3.69673 3.959143,2.49614 z m 37.316004,-5.32938 c 2.278933,-1.50813 2.957513,-4.32911 1.380387,-5.73853 -2.259002,-2.01879 -5.882804,0.2314 -5.882804,3.65292 0,2.79853 2.014805,3.73183 4.502417,2.08561 z m -14.844074,-9.88911 c 2.382305,-1.76393 2.595896,-5.12213 0.384548,-6.04609 -2.692596,-1.12504 -5.753817,1.78154 -4.89507,4.64779 0.618636,2.06482 2.727429,2.71856 4.510522,1.3983 z m 121.493671,-0.92313 c 0.97973,-0.65099 2.04897,-2.59506 2.27531,-4.13692 l 0.14008,-0.95427 -2.45013,2.42134 c -1.71494,1.69479 -2.40144,2.54825 -2.28784,2.84428 0.2308,0.60145 1.27264,0.5232 2.32258,-0.17443 z m -21.26737,-23.16704 c 1.97747,-1.01133 3.00323,-1.05143 4.53247,-0.17721 2.79444,1.5975 3.60118,-0.38238 1.53003,-3.75494 -0.52013,-0.84695 -1.19906,-2.37335 -1.50873,-3.392 -2.6882,-8.842759 -11.9733,-11.315144 -21.41926,-5.703401 l -1.8689,1.110291 1.46234,1.5795 c 1.01408,1.09532 1.91586,2.50509 2.9418,4.59899 3.01336,6.1501 8.90924,8.51119 14.33025,5.73877 z m -7.07027,-3.29807 c -1.97698,-1.48221 -3.7773,-4.36237 -4.14565,-6.63225 -0.20044,-1.2352 0.91189,-1.62754 4.54273,-1.60232 5.30413,0.0368 7.06232,1.46457 7.12199,5.78341 l 0.0218,1.57555 -1.55086,0.77271 c -2.44634,1.21887 -4.45545,1.25338 -5.98997,0.1029 z m -28.5981,-24.394049 c 0.15139,-0.81892 0.40082,-1.955281 0.5543,-2.525247 l 0.27904,-1.036304 1.64551,1.336395 c 3.08443,2.505022 5.74654,3.497712 5.74654,2.142868 0,-5.956392 -7.1826,-18.778421 -12.65767,-22.595842 -1.31573,-0.917377 -1.36488,-0.889334 -2.1394,1.220676 -3.59957,9.806173 -0.8991,24.826336 5.12343,28.496874 l 0.8101,0.493728 0.18145,-3.022103 c 0.0998,-1.662154 0.30532,-3.692125 0.4567,-4.511045 z m 29.1938,175.137279 c -4.42873,-1.19256 -6.8265,-4.01328 -13.37204,-15.73077 -1.66644,-2.98317 -4.29569,-7.68614 -5.84277,-10.45104 -1.54708,-2.76489 -4.41558,-7.70599 -6.37445,-10.98021 -3.15993,-5.28179 -3.51304,-5.98982 -3.13125,-6.27851 0.23667,-0.17897 2.10748,-1.17483 4.15735,-2.21302 9.23034,-4.67486 12.95714,-7.26182 19.07671,-13.24212 l 3.97258,-3.88217 0.0243,2.95218 c 0.0636,7.71116 4.50772,23.82345 10.13982,36.76204 l 1.29162,2.96723 1.8089,0.16557 c 0.99489,0.0911 3.11858,0.18327 4.71931,0.20491 7.59869,0.10269 12.2988,3.87588 14.18666,11.38887 1.4313,5.69603 -0.07,8.45317 -4.73621,8.69809 l -2.23209,0.11715 0.20198,-0.63 c 1.39051,-4.33719 0.5439,-7.16616 -2.77578,-9.27536 -1.55605,-0.98865 -1.66943,-0.9499 -1.10341,0.37712 1.05033,2.46247 1.41526,5.68675 0.95319,8.42173 l -0.17523,1.03713 -9.70018,-0.0174 c -7.48263,-0.0134 -10.01769,-0.10291 -11.08906,-0.39141 z M 167.448,134.17745 c 1.56265,-1.88286 11.34169,-3.55683 14.07302,-2.409 1.82534,0.76709 1.06702,1.22508 -2.05052,1.23841 -3.26234,0.0139 -7.64618,0.4766 -9.85165,1.03971 -2.57026,0.65625 -2.60878,0.65857 -2.17085,0.13088 z m 37.27409,-19.3103 c -1.08254,-1.24521 -1.99361,-2.34654 -2.02459,-2.4474 -0.0682,-0.22207 3.93629,-2.47702 4.10294,-2.31038 0.56759,0.5676 0.64871,7.0218 0.0882,7.0218 -0.10909,0 -1.08406,-1.01881 -2.1666,-2.26402 z m -4.21722,-5.59661 c -1.1778,-0.43307 -1.32292,-0.85034 -1.32292,-3.80403 v -2.85139 l 0.78046,-0.55574 c 1.16365,-0.82859 3.43651,-1.79064 4.70965,-1.99348 l 1.12448,-0.179163 -0.002,0.883153 c -0.0127,5.64413 -2.44176,9.54777 -5.28955,8.50065 z M 197.7143,80.064683 c -3.3261,-3.444615 -10.79209,-8.632452 -16.33646,-11.351596 l -3.6489,-1.789543 1.39994,-1.324549 c 0.76997,-0.728502 2.76917,-2.43291 4.44266,-3.787574 12.3223,-9.974707 12.42,-10.127142 13.36571,-20.853156 0.21039,-2.386191 0.42941,-4.38541 0.4867,-4.442708 0.15356,-0.153556 1.68599,5.516466 2.19453,8.119778 0.24162,1.236927 0.45771,2.275898 0.48018,2.308826 0.0225,0.03293 0.62909,-0.16169 1.34802,-0.43248 2.38456,-0.898166 3.6692,-0.99622 3.27525,-0.249997 -0.61948,1.173416 -2.44619,3.797977 -3.86064,5.546854 -1.60853,1.988836 -1.60732,1.983153 -0.86796,4.096314 2.37153,6.777998 2.26715,15.207043 -0.29087,23.488948 -0.63818,2.06619 -0.64021,2.066873 -1.98816,0.670883 z"
       id="path1" />
  </g>
</svg>
