<?xml version="1.0" encoding="UTF-8" standalone="no"?>
<!-- Created with Inkscape (http://www.inkscape.org/) -->

<svg
   width="119.32766mm"
   height="111.56602mm"
   viewBox="0 0 119.32766 111.56602"
   version="1.1"
   id="svg1"
   inkscape:version="1.3.2 (091e20e, 2023-11-25)"
   sodipodi:docname="moosehead.svg"
   xmlns:inkscape="http://www.inkscape.org/namespaces/inkscape"
   xmlns:sodipodi="http://sodipodi.sourceforge.net/DTD/sodipodi-0.dtd"
   xmlns="http://www.w3.org/2000/svg"
   xmlns:svg="http://www.w3.org/2000/svg">
  <sodipodi:namedview
     id="namedview1"
     pagecolor="#ffffff"
     bordercolor="#000000"
     borderopacity="0.25"
     inkscape:showpageshadow="2"
     inkscape:pageopacity="0.0"
     inkscape:pagecheckerboard="0"
     inkscape:deskcolor="#d1d1d1"
     inkscape:document-units="mm"
     inkscape:zoom="0.2102413"
     inkscape:cx="278.2517"
     inkscape:cy="413.81022"
     inkscape:window-width="1312"
     inkscape:window-height="449"
     inkscape:window-x="0"
     inkscape:window-y="25"
     inkscape:window-maximized="0"
     inkscape:current-layer="layer1" />
  <defs
     id="defs1" />
  <g
     inkscape:label="Taso 1"
     inkscape:groupmode="layer"
     id="layer1"
     transform="translate(-31.017584,-39.558615)">
    <path
       style="fill:#020202;stroke:none;stroke-width:0.132291"
       d="m 70.572792,95.021337 c -1.857615,5.708963 1.409786,10.193583 2.691563,15.610423 0.732804,3.09686 1.007541,7.19374 2.732396,9.92187 l 3.042707,-6.35 h 0.132292 c -0.07083,8.55763 -7.912998,16.36927 -3.865348,25.00313 0.435741,0.92945 0.922134,1.80344 1.748782,2.44352 0.583662,0.45191 1.441255,0.65171 1.872807,1.27452 1.356503,1.95771 1.888212,3.85298 3.815634,5.50266 4.416151,3.7798 11.357349,3.45627 15.742709,-0.15393 1.125231,-0.92633 2.109346,-2.08877 2.792716,-3.37823 0.33612,-0.63423 0.44724,-1.50532 0.89073,-2.06502 0.50388,-0.63591 1.50841,-0.8953 2.12544,-1.43642 1.16752,-1.02388 1.79892,-2.68971 2.12677,-4.17148 1.84481,-8.33782 -4.56044,-14.945 -4.62837,-23.15104 h 0.13229 l 3.04271,6.48229 h 0.13229 c 1.52168,-3.94474 2.04973,-8.13187 3.23115,-12.17083 0.88833,-3.03698 2.62207,-5.78109 2.84243,-8.995838 0.10685,-1.55861 -0.24589,-2.885885 -0.64962,-4.365625 1.40419,0.06417 2.75523,0.802135 4.10104,1.17052 2.19225,0.60007 4.49558,0.814985 6.74688,0.492625 2.77724,-0.397685 5.3182,-1.494105 7.67292,-2.993205 2.7673,-1.76177 4.96936,-4.344745 6.64102,-7.136605 0.44972,-0.751085 1.57143,-2.2767 0.95196,-3.16071 -0.56563,-0.807175 -2.06231,-1.04822 -2.96278,-1.231255 -2.6236,-0.533275 -5.26217,-0.69871 -7.9375,-0.63318 -3.46893,0.08498 -6.9098,1.136685 -9.92187,2.81702 -1.38205,0.771005 -2.54552,1.915985 -3.96875,2.607455 -1.35489,0.65827 -4.07715,0.538185 -4.02938,-1.589955 0.0266,-1.183965 1.28768,-2.262045 2.1773,-2.86285 2.5358,-1.712555 5.75633,-2.284825 8.73125,-2.6934 3.56896,-0.49016 7.18444,-0.64601 10.71562,-1.4105 6.45439,-1.397355 12.26942,-4.646225 16.13947,-10.098875 1.31297,-1.849887 2.31948,-3.833471 3.11886,-5.953125 2.03871,-5.405912 2.18223,-11.95812 0.4274,-17.462499 -0.53274,-1.671038 -1.40453,-4.861889 -3.41386,-5.246652 -2.64393,-0.506284 -2.48368,2.631929 -2.6836,4.32061 -0.42878,3.622033 -1.5965,10.45491 -5.91535,11.439353 -1.72097,0.39228 -2.9349,-1.163624 -3.51206,-2.575811 -0.92713,-2.268482 -1.10371,-4.74816 -2.04573,-7.011459 -0.40746,-0.978986 -1.09454,-2.176659 -2.24742,-2.352876 -2.35174,-0.359459 -2.41903,2.186697 -2.37931,3.808085 0.0651,2.658735 1.0196,5.110525 0.46772,7.805208 -0.27381,1.336909 -1.14312,2.805328 -2.58633,3.103032 -1.10555,0.228055 -2.16384,-0.597233 -2.82906,-1.385179 -1.50544,-1.783184 -2.07995,-3.970607 -3.23808,-5.951186 -0.65188,-1.114798 -1.88002,-2.518056 -3.32546,-1.791654 -1.76206,0.885523 -1.35795,3.177066 -0.88021,4.70207 1.02209,3.262616 3.21357,7.929579 1.21359,11.244792 -0.23398,0.387855 -0.53265,0.737084 -0.86459,1.044453 -3.20576,2.968472 -5.10513,-3.224625 -6.54885,-5.011265 -0.71618,-0.886292 -2.06359,-1.494096 -3.09262,-0.709332 -1.74706,1.332348 -0.12299,4.412594 0.3441,5.99906 1.24662,4.234085 0.80993,8.230965 -3.2684,10.68867 -0.77835,0.469065 -1.80834,1.027445 -2.740351,1.06834 -0.88814,0.03895 -2.093155,-0.722955 -2.94819,-0.99586 -1.52758,-0.48757 -3.166745,-0.718155 -4.7625,-0.827435 -2.333405,-0.159795 -4.750468,0.0378 -7.011457,0.63431 -1.088593,0.2872 -2.336413,1.14042 -3.439584,1.18909 -2.446047,0.107915 -5.261746,-2.58476 -6.176266,-4.613365 -1.183103,-2.624387 -0.193173,-6.149947 0.664115,-8.73125 0.455854,-1.372582 1.227796,-3.35355 -0.182107,-4.440548 -1.055786,-0.813984 -2.490946,-0.05631 -3.163567,0.870612 -1.235683,1.702851 -2.940207,7.33492 -5.958841,5.185301 -0.326995,-0.232858 -0.626698,-0.511395 -0.881027,-0.822124 -2.431154,-2.970256 -0.284152,-8.37976 0.748635,-11.508865 0.490239,-1.485318 1.164826,-4.055696 -0.663296,-4.951345 -1.486048,-0.728057 -2.751896,0.593616 -3.414064,1.776345 -1.107845,1.978779 -1.67826,4.232396 -3.221549,5.95302 -0.698741,0.779038 -1.628067,1.59555 -2.755157,1.411323 -1.460387,-0.238704 -2.328924,-1.662132 -2.617863,-2.998718 -0.597292,-2.76297 0.301664,-5.461223 0.489355,-8.202084 0.111855,-1.633427 -0.455272,-4.016631 -2.633992,-3.519713 -1.058634,0.241449 -1.593625,1.299355 -2.013264,2.196797 -1.05222,2.250282 -1.118944,4.852086 -2.089716,7.14375 -0.546751,1.290691 -1.611828,2.739892 -3.173062,2.63297 -1.576543,-0.107971 -2.788359,-1.549954 -3.605051,-2.765262 -2.133379,-3.174653 -2.368547,-7.053494 -2.767916,-10.715625 -0.161457,-1.480514 -1.410775,-2.99691 -3.019639,-2.188529 -1.21231,0.609128 -1.882501,2.32024 -2.354404,3.511446 -1.385687,3.497848 -1.614448,7.134084 -1.614448,10.847916 0,9.37924 5.747226,18.589023 14.419791,22.300738 4.955506,2.120875 10.084032,2.44758 15.345834,3.155405 3.25308,0.43761 6.738102,0.81061 9.657292,2.439125 1.092169,0.60929 2.448243,1.527175 2.824468,2.7964 0.674397,2.27512 -2.375259,2.9047 -3.882802,2.20608 -1.888902,-0.87534 -3.393502,-2.452245 -5.291666,-3.35434 -4.141818,-1.96838 -8.582296,-2.36941 -13.096876,-2.03848 -1.720769,0.12614 -5.023989,0.187795 -6.307944,1.51901 -1.050614,1.089285 1.300292,4.195215 1.962429,5.10731 3.110962,4.28536 7.615764,7.626295 12.944474,8.39001 2.21465,0.317405 4.451586,0.13415 6.614583,-0.4372 1.438842,-0.380065 2.864534,-1.13734 4.365625,-1.205935 m 8.334375,9.921873 c -0.30628,-0.96652 -0.442277,-1.78243 -1.323426,-2.42963 -1.18328,-0.86913 -3.411431,-1.43024 -3.881371,-2.994323 -0.46638,-1.55223 1.468756,-1.964365 2.558964,-1.551475 2.387483,0.90422 4.042651,4.647298 2.645833,6.975428 m 23.283333,0.1323 c -1.62473,-2.06473 0.27964,-6.127973 2.38125,-7.027288 0.96229,-0.41178 3.04563,-0.342585 2.84437,1.20645 -0.13316,1.024838 -1.37939,1.747588 -2.18291,2.211398 -1.5842,0.91443 -2.9541,1.57645 -3.04271,3.60944 m -22.754166,27.25208 c 2.181714,1.01139 4.515224,3.68375 4.965225,6.08542 0.186984,0.99794 0.172547,2.8507 -1.123051,3.10987 -0.78142,0.15632 -0.94479,-1.77561 -1.257792,-2.31612 -1.245478,-2.15078 -3.981225,-4.09596 -2.584382,-6.87917 m 22.092706,0 c 1.34742,2.68478 -1.33907,4.6326 -2.508235,6.74687 -0.279335,0.50514 -0.425185,2.49662 -1.07793,2.44179 -1.45122,-0.1219 -1.5571,-2.20906 -1.288005,-3.23554 0.616655,-2.35222 2.65374,-4.91911 4.87417,-5.95312 z"
       id="path1" />
  </g>
</svg>
