<?xml version="1.0" encoding="UTF-8" standalone="no"?>
<!-- Created with Inkscape (http://www.inkscape.org/) -->

<svg
   width="214.92644mm"
   height="227.87704mm"
   viewBox="0 0 214.92644 227.87704"
   version="1.1"
   id="svg1"
   inkscape:version="1.3.2 (091e20e, 2023-11-25)"
   sodipodi:docname="moose.svg"
   xmlns:inkscape="http://www.inkscape.org/namespaces/inkscape"
   xmlns:sodipodi="http://sodipodi.sourceforge.net/DTD/sodipodi-0.dtd"
   xmlns="http://www.w3.org/2000/svg"
   xmlns:svg="http://www.w3.org/2000/svg">
  <sodipodi:namedview
     id="namedview1"
     pagecolor="#ffffff"
     bordercolor="#000000"
     borderopacity="0.25"
     inkscape:showpageshadow="2"
     inkscape:pageopacity="0.0"
     inkscape:pagecheckerboard="0"
     inkscape:deskcolor="#d1d1d1"
     inkscape:document-units="mm"
     inkscape:zoom="0.2102413"
     inkscape:cx="404.29734"
     inkscape:cy="428.07954"
     inkscape:window-width="1312"
     inkscape:window-height="449"
     inkscape:window-x="0"
     inkscape:window-y="25"
     inkscape:window-maximized="0"
     inkscape:current-layer="layer1" />
  <defs
     id="defs1" />
  <g
     inkscape:label="Layer 1"
     inkscape:groupmode="layer"
     id="layer1"
     transform="translate(2.9104158,-34.660417)">
    <path
       style="fill:#000000;stroke-width:0.264583"
       d="m 55.127886,262.44691 c -2.365253,-0.43055 -2.998197,-1.39564 -3.903101,-5.95128 -0.878364,-4.42203 -0.783879,-4.31632 -4.194374,-4.69282 -0.696962,-0.0769 -1.406419,-1.67203 -6.032682,-13.56343 -2.90223,-7.45993 -6.108483,-15.20526 -8.712967,-21.04789 -3.279989,-7.35798 -3.181932,-7.884 2.488274,-13.34794 3.676494,-3.54275 14.990455,-16.52338 15.259891,-17.50783 0.0068,-0.0249 1.381072,0.4098 3.053882,0.96608 2.897208,0.96344 8.05321,2.14834 11.045121,2.53827 0.763984,0.0996 1.389062,0.22998 1.389062,0.28981 0,0.37103 -9.615347,13.44285 -12.002547,16.31716 -7.812009,9.40604 -7.823253,9.51044 -2.555103,23.72255 4.074052,10.99075 4.6877,12.05568 10.291143,17.85938 9.82925,10.18052 11.989692,13.78757 8.49984,14.19123 -2.229112,0.25783 -13.496086,0.43248 -14.626439,0.22671 z M 5.5319317,262.05649 c -1.4300518,-0.62168 -2.5600845,-3.09135 -3.3833779,-7.39432 -0.4922599,-2.5728 -0.6681708,-2.79569 -2.21047728,-2.8008 -2.28819862,-0.008 -1.98759492,3.56533 -2.67092642,-31.74594 -0.3410981,-17.6264 -0.4864311,-16.44029 2.43143088,-19.84375 3.86806272,-4.51181 5.22619812,-6.87133 6.32018142,-10.98021 0.8029601,-3.01583 0.9906608,-11.45126 0.3973988,-17.85938 -0.6908826,-7.46256 -1.0063771,-14.68166 -0.8122973,-18.58698 0.099436,-2.00091 0.1310058,-3.63802 0.070157,-3.63802 -0.060852,0 -0.5140881,0.29766 -1.0071947,0.66146 -4.60757316,3.39936 -2.0923488,-8.15912 3.3598829,-15.44005 9.6373579,-12.86975 19.1886339,-17.1258 42.5453249,-18.95817 24.320455,-1.90799 29.674746,-3.74259 41.553399,-14.23788 8.638017,-7.632055 17.411997,-10.720563 27.470747,-9.669915 3.96929,0.414596 9.08654,-0.357151 11.87221,-1.790483 1.04632,-0.538375 0.91984,-0.919565 -0.8483,-2.556548 C 127.77501,84.581458 125.0546,83.787558 117.7762,83.467258 104.35891,82.876804 90.78485,76.88633 80.223131,66.89442 69.374286,56.63087 61.594427,38.567567 67.316021,36.926636 c 1.838499,-0.527275 3.019901,0.365332 5.682178,4.293163 4.087193,6.030102 9.629997,10.365102 13.236234,10.351994 2.276263,-0.0083 2.367605,-0.321712 2.260928,-7.758284 -0.100055,-6.97487 0.09683,-7.839632 1.989399,-8.737713 2.039165,-0.967648 2.497757,-0.49482 4.007379,4.131771 3.03135,9.290292 6.862681,14.720267 10.403021,14.743717 2.195,0.01455 2.86869,-1.369724 3.24441,-6.66636 0.56605,-7.979881 1.36217,-9.991755 3.95536,-9.995591 1.68811,-0.0025 1.92832,0.503355 3.30941,6.969017 4.73823,22.182434 12.99,26.533189 17.7037,9.334289 1.6722,-6.101379 3.25137,-7.469696 6.12832,-5.310048 1.63021,1.223756 1.69072,1.598306 1.69244,10.47699 0.002,11.62169 0.68636,15.283373 3.42007,18.306031 4.28165,4.734213 11.9272,-2.939553 13.91531,-13.966674 0.69793,-3.871063 1.60705,-5.437677 3.15552,-5.437677 1.84135,0 2.41162,1.131168 3.3094,6.564328 0.80166,4.85144 1.15368,5.200002 2.90672,2.878119 2.51175,-3.326783 4.11293,-8.304059 4.50252,-13.996043 0.38328,-5.599824 1.23925,-7.286738 3.92795,-7.740991 3.02586,-0.511215 3.93962,2.566879 3.66542,12.347257 -0.18852,6.724137 -0.20247,6.673644 1.5584,5.641705 3.15903,-1.85131 5.4062,-4.781467 7.24624,-9.448601 2.31686,-5.876547 6.88887,-4.769104 6.89358,1.66978 0.009,12.866338 -12.60389,25.15847 -29.15803,28.415575 -9.82644,1.9334 -10.58004,3.471836 -2.90655,5.933601 4.90025,1.572067 6.50799,2.436969 9.72576,5.232085 2.92271,2.538807 3.56256,2.82161 10.56634,4.670121 17.11997,4.518483 23.348,8.458873 26.56213,16.805503 3.78458,9.82803 1.52801,15.72003 -6.18921,16.16022 -2.57255,0.14674 -3.0353,0.24938 -3.98613,0.88414 -4.03322,2.69253 -6.92304,2.34945 -11.64383,-1.38236 -8.46612,-6.69252 -12.36015,-6.14626 -14.93255,2.09473 -2.24413,7.18932 -4.90227,11.27445 -10.01351,15.3891 -5.51777,4.44193 -7.44586,3.74496 -7.44586,-2.69152 0,-4.20055 -0.2333,-5.33511 -1.48784,-7.23557 l -0.67352,-1.02028 -0.79665,0.75569 c -4.31831,4.0963 -9.75255,13.85286 -12.74257,22.87782 -4.6233,13.95479 -9.64467,19.09869 -25.04525,25.65641 -4.80644,2.04663 -5.34615,2.85559 -9.87084,14.79543 -6.596278,17.40638 -9.432778,27.79069 -10.118022,37.04167 -0.27346,3.69178 1.065207,6.24603 7.416632,14.15133 6.55336,8.15664 6.4616,8.3344 -4.303458,8.33677 -9.091448,0.002 -8.810733,0.14965 -10.142055,-5.3341 -1.298787,-5.34972 -1.094542,-4.98317 -2.776707,-4.98317 -2.107047,0 -1.923362,-9.20762 0.952717,-47.75729 0.631796,-8.46833 0.945848,-16.16758 0.69951,-17.14906 -0.376692,-1.50087 -0.900853,-1.60739 -8.878522,-1.8043 -12.599879,-0.31099 -24.191052,-2.30103 -26.67999,-4.58057 -0.03764,-0.0345 0.694528,-1.65907 1.62705,-3.61021 2.631403,-5.50578 3.416985,-8.02815 2.911001,-9.34672 -0.262464,-0.68397 -0.562737,-0.47994 -0.748144,0.50836 -1.198348,6.38775 -11.800379,20.30731 -21.183964,27.81274 -3.643316,2.91409 -15.840782,11.51224 -19.237267,13.5606 -3.178945,1.91716 -4.217733,7.08499 -4.9709546,24.72986 -0.3926946,9.19916 -0.6680226,8.4015 5.9506136,17.23971 5.629987,7.51802 6.94023,10.01616 5.535967,10.55503 -0.932666,0.3579 -15.0301875,0.15268 -15.9142953,-0.23167 z M 203.55225,127.7097 c -1.4268,-3.23974 -3.91755,-5.32961 -4.67195,-3.92 -1.06063,1.98181 0.5232,4.35107 3.65711,5.47068 1.8862,0.67386 1.95096,0.57491 1.01484,-1.55068 z m -38.2172,-23.21218 c 1.70266,-1.88871 0.46088,-4.502926 -2.13894,-4.502926 -1.14889,0 -1.40843,0.105386 -2.00473,0.814056 -2.40472,2.85785 1.64375,6.46198 4.14367,3.68887 z m -13.02529,157.65595 c -1.49258,-0.59552 -2.04929,-1.49824 -3.57074,-5.79013 -1.30553,-3.68278 -1.5005,-3.96722 -2.72465,-3.97506 -1.01718,-0.007 -2.90964,-0.37384 -3.14655,-0.61075 -0.0738,-0.0738 -0.54454,-2.37616 -1.0461,-5.11637 -1.37312,-7.50179 -3.5084,-15.99983 -5.83422,-23.21917 -0.70595,-2.19128 -1.62443,-4.13005 -3.64412,-7.69219 -1.48515,-2.61937 -3.56877,-6.36397 -4.63026,-8.32133 -1.06149,-1.95736 -2.85357,-5.11252 -3.98241,-7.01146 -2.11443,-3.55692 -4.35962,-7.79776 -4.19543,-7.92455 0.0511,-0.0395 1.13774,-0.62146 2.41464,-1.29326 6.9529,-3.65803 12.75252,-8.58826 16.13447,-13.71584 1.123,-1.70265 1.40171,-1.98832 1.46138,-1.49789 0.64186,5.27458 3.44009,18.93739 6.54544,31.95912 0.642,2.69214 1.77152,8.5262 2.51004,12.96459 2.88289,17.3258 4.05145,20.85375 8.50603,25.68033 6.8814,7.45605 8.89579,9.94553 10.3026,12.73239 1.03123,2.04287 1.0176,2.7465 -0.0574,2.96149 -1.34494,0.26899 -14.32388,0.1569 -15.04274,-0.12992 z"
       id="path1" />
  </g>
</svg>
