<?xml version="1.0" encoding="UTF-8" standalone="no"?>
<!-- Created with Inkscape (http://www.inkscape.org/) -->

<svg
   width="214.29465mm"
   height="224.53583mm"
   viewBox="0 0 214.29465 224.53583"
   version="1.1"
   id="svg1"
   inkscape:version="1.3.2 (091e20e, 2023-11-25)"
   sodipodi:docname="muflon.svg"
   xmlns:inkscape="http://www.inkscape.org/namespaces/inkscape"
   xmlns:sodipodi="http://sodipodi.sourceforge.net/DTD/sodipodi-0.dtd"
   xmlns="http://www.w3.org/2000/svg"
   xmlns:svg="http://www.w3.org/2000/svg">
  <sodipodi:namedview
     id="namedview1"
     pagecolor="#ffffff"
     bordercolor="#000000"
     borderopacity="0.25"
     inkscape:showpageshadow="2"
     inkscape:pageopacity="0.0"
     inkscape:pagecheckerboard="0"
     inkscape:deskcolor="#d1d1d1"
     inkscape:document-units="mm"
     inkscape:zoom="0.2102413"
     inkscape:cx="404.29734"
     inkscape:cy="423.3231"
     inkscape:window-width="1312"
     inkscape:window-height="449"
     inkscape:window-x="0"
     inkscape:window-y="25"
     inkscape:window-maximized="0"
     inkscape:current-layer="layer1" />
  <defs
     id="defs1" />
  <g
     inkscape:label="Layer 1"
     inkscape:groupmode="layer"
     id="layer1"
     transform="translate(2.6458346,-36.247937)">
    <path
       style="fill:#000000;stroke-width:0.264583"
       d="m 10.535396,259.96979 c -0.272264,-0.44771 -0.8224759,-2.24343 -1.2226899,-3.99049 -0.7697152,-3.36007 -0.8764085,-3.53287 -3.155479,-5.11051 -1.5333715,-1.06144 -1.8638864,-3.19533 -0.9857449,-6.36421 1.0919883,-3.94057 0.410935,-18.06356 -1.600581,-33.19126 -1.2845706,-9.66067 -1.2454784,-9.84794 2.9856827,-14.30274 8.4224631,-8.86763 10.4137331,-15.62081 7.4702461,-25.33453 -1.694993,-5.59359 -2.490671,-11.26055 -2.690249,-19.16043 l -0.15653,-6.19584 -1.2363825,3.55001 c -3.2010481,9.19114 -11.1869694,17.83593 -12.017388,13.00887 -2.5877531,-15.04211 3.684262,-27.85022 17.1670765,-35.05697 2.009087,-1.07389 4.292333,-2.5961 6.217708,-4.14527 13.218023,-10.6353 20.309351,-12.19094 41.142708,-9.02555 18.376408,2.79209 31.135664,2.80127 41.267257,0.0297 2.04155,-0.55848 5.15884,-1.22797 6.92732,-1.48777 3.55694,-0.52252 2.62612,-0.63569 8.82313,1.07278 7.41059,2.04305 16.5516,0.0755 23.31722,-5.01891 10.05821,-7.57367 10.57709,-15.402888 0.98261,-14.826416 l -3.13316,0.188254 v -0.907937 c 0,-1.108628 2.43945,-6.084421 3.96338,-8.084185 l 1.06157,-1.393018 -1.12341,-0.518974 c -0.61788,-0.285436 -2.66181,-1.118222 -4.54207,-1.850639 -6.95447,-2.708974 -9.24626,-4.925841 -11.08163,-10.719348 -0.80466,-2.539997 -0.80412,-2.541447 1.21209,-3.217455 6.98707,-2.342681 15.15036,-0.793522 21.70081,4.118197 2.99673,2.247035 3.20607,1.776085 1.10604,-2.488242 -9.50726,-19.305449 -39.90875,-11.538092 -39.86988,10.186458 0.0248,13.881423 13.18129,23.168295 27.17622,19.183133 6.5998,-1.879335 7.59679,-0.427458 2.95777,4.307262 -9.98314,10.18908 -30.49108,6.65677 -40.78295,-7.024501 -15.775448,-20.970747 -2.581484,-53.169163 24.20703,-59.074597 19.36168,-4.268213 40.56784,7.489195 46.30918,25.67537 l 0.71,2.248959 1.25752,-0.04563 c 2.45863,-0.0892 2.60461,-0.192749 2.40397,-1.705253 -0.59326,-4.472215 -3.5568,-9.62905 -8.73176,-15.194057 l -2.53014,-2.720851 1.32105,-1.187736 c 8.58054,-7.714644 22.44667,-8.308979 31.50784,-1.350502 11.82402,9.08019 13.36989,29.502206 3.1271,41.311031 l -0.73793,0.850757 -2.38984,-4.687216 c -2.80134,-5.494316 -3.91733,-7.258579 -6.09411,-9.634153 -1.60162,-1.747886 -1.60244,-1.749616 -1.60244,-3.397306 0,-6.859431 -7.80572,-9.40971 -10.87368,-3.552642 -0.74127,1.41515 -0.97168,1.131847 2.5746,3.165636 3.64421,2.089952 4.64199,3.182654 9.62406,10.539669 5.44028,8.03366 9.96844,14.514623 13.9875,20.019706 12.18558,16.691116 1.21134,31.413556 -16.37081,21.962186 -4.38851,-2.35906 -5.99614,-2.91219 -8.46412,-2.91219 -2.65448,0 -2.67368,0.0349 -2.1112,3.83646 3.72336,25.16479 -2.73009,49.44223 -16.4314,61.8138 -1.28572,1.16094 -2.17225,2.18966 -2.3317,2.70569 -0.85742,2.77485 -2.13674,16.91808 -2.66006,29.40759 -0.13531,3.22947 -0.42891,6.57278 -0.7011,7.98369 -0.73543,3.81221 0.38373,17.96758 1.62786,20.58938 0.21724,0.45781 1.55249,2.13409 2.96721,3.72508 5.97614,6.72075 8.67883,12.66658 6.20285,13.64612 -0.89194,0.35286 -14.72103,0.0622 -15.44378,-0.32462 -0.73952,-0.39578 -1.30533,-1.70918 -1.69303,-3.92997 -0.49903,-2.85852 -0.71696,-3.28979 -2.28997,-4.53178 -2.7548,-2.17508 -2.6821,-1.92509 -2.90661,-9.99548 -0.34254,-12.31305 -0.68511,-17.06804 -1.4263,-19.79757 -0.36213,-1.3336 -0.88787,-3.95298 -1.1683,-5.82083 -0.28044,-1.86786 -0.87858,-4.82485 -1.32922,-6.5711 -2.47633,-9.59599 -1.78644,-13.70314 2.82955,-16.8452 4.27233,-2.90814 7.13115,-5.77807 9.8114,-9.84955 3.63356,-5.51961 3.08204,-6.09104 -1.66485,-1.72496 -3.64068,3.34862 -7.11956,5.96751 -11.21013,8.43893 -3.8362,2.31774 -3.57413,1.81462 -5.57044,10.69425 -2.04768,9.10812 -2.68768,12.93032 -3.06126,18.28236 -0.12255,1.75571 -0.44316,3.46057 -0.953,5.06758 -2.35464,7.42186 -1.9852,19.04012 0.71501,22.48579 3.75041,4.78582 4.74314,6.22521 5.82907,8.45176 1.05606,2.16528 1.98464,5.20679 1.6785,5.49786 -0.0654,0.0622 -3.53195,0.15539 -7.7034,0.20713 -9.52881,0.11817 -9.66961,0.0519 -9.99518,-4.70687 -0.17301,-2.52887 -0.4931,-3.01465 -2.60284,-3.95021 -2.68108,-1.18893 -2.87218,-2.67448 -1.76731,-13.73845 1.04266,-10.44104 1.07756,-11.55308 0.44008,-14.02291 -0.30528,-1.18275 -0.73362,-4.33473 -0.97081,-7.14376 -1.6524,-19.56894 -2.42909,-25.07801 -4.75602,-33.73438 -0.37161,-1.38245 -0.67596,-2.80524 -0.67633,-3.16177 -5.3e-4,-0.47282 -0.0797,-0.5692 -0.29275,-0.35615 -0.5754,0.5754 -1.04719,3.72413 -1.20809,8.06288 -0.1558,4.20132 -0.19032,4.41904 -0.7208,4.54576 -3.64468,0.87067 -23.716927,0.83655 -29.396737,-0.05 -10.88585,-1.69909 -26.646941,-5.99584 -26.191998,-7.14041 1.581131,-3.97789 2.454299,-17.27688 1.041588,-15.86418 -0.08586,0.0859 -0.332259,1.00721 -0.547561,2.04746 -1.593514,7.69916 -7.342476,18.21511 -13.025001,23.82521 -3.181731,3.14117 -5.461309,4.90092 -13.399068,10.34352 -10.015821,6.86745 -9.772068,6.30242 -9.747258,22.59452 0.02392,15.69776 0.14665,16.27243 4.827603,22.6021 3.377904,4.56766 5.788949,9.42978 5.042789,10.16931 -0.0682,0.0676 -4.074263,0.20984 -8.902351,0.31608 l -8.77834,0.19317 z M 206.96536,112.49556 c 1.1702,-1.09934 0.0179,-2.98402 -2.63169,-4.30437 -4.22759,-2.10669 -4.57335,1.62148 -0.37726,4.06787 1.63954,0.95588 2.1966,0.99967 3.00895,0.2365 z M 172.86787,91.705741 c -2.234,-2.33177 -2.34939,-4.305133 -0.32959,-5.636593 2.06209,-1.359337 4.57071,-0.193564 6.10956,2.839143 l 0.64751,1.276096 -0.10959,-2.385957 c -0.24472,-5.328073 -3.92538,-7.941969 -8.16093,-5.795653 -4.80906,2.436937 -4.6447,7.904033 0.30498,10.144578 2.07763,0.940464 2.69293,0.763796 1.53806,-0.441614 z M 51.892649,260.21511 c -0.07772,-0.12575 -0.495001,-1.1879 -0.927288,-2.36033 -1.597615,-4.33296 -2.471549,-5.6504 -4.588372,-6.91687 -1.319258,-0.78929 -1.506199,-1.20829 -1.689706,-3.78722 -0.122785,-1.72553 -0.363321,-2.65802 -1.143762,-4.43401 -0.543555,-1.23693 -2.209541,-5.9399 -3.70219,-10.45104 -1.492652,-4.51115 -3.37149,-9.86896 -4.175194,-11.90625 -4.435639,-11.24379 -4.380756,-11.53359 3.198768,-16.89075 6.026562,-4.25953 8.308654,-6.56227 12.010453,-12.11912 l 1.699752,-2.55153 2.42579,1.12965 c 2.715786,1.26469 7.203329,2.94125 10.297144,3.84703 1.127786,0.33019 2.050521,0.68896 2.050521,0.79728 0,1.02223 -7.059459,8.55462 -13.58102,14.49083 -5.898547,5.36911 -5.820889,4.17266 -1.224828,18.87052 4.187767,13.39216 4.188137,13.39296 8.359624,17.95838 4.815618,5.27037 8.298307,11.1521 8.298307,14.01457 0,0.57485 -16.956598,0.87744 -17.307999,0.30886 z"
       id="path1" />
  </g>
</svg>
