<?xml version="1.0" encoding="UTF-8" standalone="no"?>
<!-- Created with Inkscape (http://www.inkscape.org/) -->

<svg
   width="210.931mm"
   height="230.02066mm"
   viewBox="0 0 210.931 230.02066"
   version="1.1"
   id="svg1"
   inkscape:version="1.3.2 (091e20e, 2023-11-25)"
   sodipodi:docname="mushroom_mushroom.svg"
   xmlns:inkscape="http://www.inkscape.org/namespaces/inkscape"
   xmlns:sodipodi="http://sodipodi.sourceforge.net/DTD/sodipodi-0.dtd"
   xmlns="http://www.w3.org/2000/svg"
   xmlns:svg="http://www.w3.org/2000/svg">
  <sodipodi:namedview
     id="namedview1"
     pagecolor="#ffffff"
     bordercolor="#000000"
     borderopacity="0.25"
     inkscape:showpageshadow="2"
     inkscape:pageopacity="0.0"
     inkscape:pagecheckerboard="0"
     inkscape:deskcolor="#d1d1d1"
     inkscape:document-units="mm"
     inkscape:zoom="0.2102413"
     inkscape:cx="399.5409"
     inkscape:cy="432.83598"
     inkscape:window-width="1312"
     inkscape:window-height="449"
     inkscape:window-x="0"
     inkscape:window-y="25"
     inkscape:window-maximized="0"
     inkscape:current-layer="layer1" />
  <defs
     id="defs1" />
  <g
     inkscape:label="Layer 1"
     inkscape:groupmode="layer"
     id="layer1"
     transform="translate(1.0583338,-33.602083)">
    <path
       style="fill:#000000;stroke-width:0.264583"
       d="m 98.817193,263.41309 c -18.300223,-1.34482 -28.260442,-8.40976 -30.258017,-21.4625 -1.222568,-7.98864 -0.01042,-15.68502 5.057402,-32.1114 7.307403,-23.68554 8.690663,-31.62394 8.713549,-50.00625 0.01392,-11.17211 -0.09661,-12.56993 -0.993394,-12.56366 -1.303488,0.009 -1.195263,-0.57526 -2.963695,16.00325 -0.713645,6.69018 -1.566649,12.9278 -1.879323,13.74262 -0.425288,1.10828 -20.656742,-1.13023 -33.306916,-3.68525 C -3.1228957,163.97649 -12.277872,142.09627 11.966591,98.714193 61.880527,9.4001751 153.93542,12.441211 200.18218,104.9319 c 21.04484,42.08841 8.4654,62.05979 -44.15059,70.09441 -7.02979,1.07347 -19.38524,2.38772 -22.54553,2.39817 -1.40331,0.005 -1.70724,-1.65613 -3.38885,-18.51758 -1.09165,-10.94591 -1.15788,-11.29993 -2.15481,-11.5189 -1.20577,-0.26483 -1.54414,2.5821 -1.54414,12.99172 0,16.9343 1.62069,25.88766 9.1684,50.6501 6.91061,22.6722 6.84714,34.23744 -0.23378,42.59791 -6.00675,7.0922 -20.45967,10.96525 -36.515687,9.78536 z M 20.70069,153.26748 c -6.415289,-15.35394 78.604842,-24.64146 137.2019,-14.9878 22.74648,3.74741 32.82518,9.02323 30.00412,15.70603 -0.7052,1.67054 4.80341,-2.62826 5.67494,-4.4286 9.66913,-19.97376 -95.604509,-31.06258 -155.818809,-16.41291 -21.278035,5.17678 -29.1571943,13.87414 -18.408153,20.31974 1.818214,1.09028 1.879873,1.08128 1.346002,-0.19646 z M 45.3787,114.09942 c 6.684478,-3.43738 6.690037,-13.30084 0.0093,-16.534918 -8.004021,-3.874683 -16.391508,4.462948 -12.414718,12.340918 2.266913,4.49073 8.035713,6.44104 12.405397,4.194 z m 130.09976,-2.38826 c 7.88617,-3.71921 4.87018,-15.544531 -3.8057,-14.921713 -7.51539,0.539509 -9.80033,10.498543 -3.32667,14.499483 2.01857,1.24755 5.00723,1.42448 7.13237,0.42223 z m -72.826,-1.74803 c 8.93467,-3.35653 9.51047,-16.14094 0.91019,-20.209197 -6.065011,-2.86898 -13.371011,0.249603 -15.301813,6.531618 -2.719628,8.848509 5.769673,16.916609 14.391623,13.677579 z m 39.33159,-17.874045 c 9.51125,-2.241963 13.67288,-13.624669 7.83163,-21.420725 -7.94815,-10.608037 -24.49616,-5.00838 -24.47262,8.281252 0.0151,8.548542 8.31506,15.102033 16.64099,13.139473 z M 67.517472,86.535107 c 7.572933,-1.9725 11.319534,-9.917432 7.981378,-16.92508 -4.32308,-9.075256 -17.408845,-8.92116 -21.767212,0.256325 -4.314992,9.086146 4.05284,19.203876 13.785834,16.668755 z m 38.026188,-17.66575 c 4.81122,-2.353908 6.73495,-8.10433 4.24765,-12.697094 -4.46385,-8.242448 -17.112522,-4.959207 -17.112522,4.44193 0,6.644225 6.989898,11.129521 12.864872,8.255164 z"
       id="path1" />
  </g>
</svg>
