<?xml version="1.0" encoding="UTF-8" standalone="no"?>
<!-- Created with Inkscape (http://www.inkscape.org/) -->

<svg
   width="236.89435mm"
   height="191.62416mm"
   viewBox="0 0 236.89435 191.62416"
   version="1.1"
   id="svg1"
   inkscape:version="1.3.2 (091e20e, 2023-11-25)"
   sodipodi:docname="muskrat.svg"
   xmlns:inkscape="http://www.inkscape.org/namespaces/inkscape"
   xmlns:sodipodi="http://sodipodi.sourceforge.net/DTD/sodipodi-0.dtd"
   xmlns="http://www.w3.org/2000/svg"
   xmlns:svg="http://www.w3.org/2000/svg">
  <sodipodi:namedview
     id="namedview1"
     pagecolor="#ffffff"
     bordercolor="#000000"
     borderopacity="0.25"
     inkscape:showpageshadow="2"
     inkscape:pageopacity="0.0"
     inkscape:pagecheckerboard="0"
     inkscape:deskcolor="#d1d1d1"
     inkscape:document-units="mm"
     inkscape:zoom="0.2102413"
     inkscape:cx="-385.27159"
     inkscape:cy="294.89924"
     inkscape:window-width="1312"
     inkscape:window-height="449"
     inkscape:window-x="0"
     inkscape:window-y="25"
     inkscape:window-maximized="0"
     inkscape:current-layer="layer1" />
  <defs
     id="defs1" />
  <g
     inkscape:label="Layer 1"
     inkscape:groupmode="layer"
     id="layer1"
     transform="translate(-206.11041,-70.379168)">
    <path
       style="fill:#000000;stroke-width:0.264583"
       d="m 286.04235,261.72638 c -54.71898,-3.39177 -88.04972,-27.35472 -78.21897,-56.23509 2.02724,-5.95554 7.80539,-13.00483 13.87715,-16.93001 0.0463,-0.03 -0.4057,-1.58421 -1.00451,-3.45391 -7.96435,-24.8677 -1.42651,-57.8916 15.76381,-79.62603 24.01621,-30.364705 62.51947,-38.90349 100.18408,-22.217611 l 1.52135,0.673979 v 1.567561 c 0,8.170756 5.11641,14.854971 11.35896,14.839671 2.88297,-0.007 3.35131,-0.421814 1.2993,-1.150622 -6.42069,-2.280428 -10.74018,-13.312161 -7.55944,-19.306391 5.70551,-10.752246 17.54434,-8.684779 26.42235,4.614251 1.1298,1.692407 1.23929,1.785657 1.39027,1.184074 0.4726,-1.882995 -0.93595,-6.761996 -2.76153,-9.565526 -4.02688,-6.184062 4.97932,-8.030917 10.97645,-2.25088 l 2.3976,2.310808 2.64583,0.608232 c 17.80279,4.092556 35.4226,17.623887 47.2155,36.259664 1.059,1.67349 2.6676,3.81661 3.57466,4.7625 4.60152,4.79847 2.40187,12.74503 -6.05684,21.88121 -1.97364,2.13171 -1.96654,2.10829 -1.0926,3.60396 1.37145,2.34714 3.08118,8.616 3.47658,12.74712 0.213,2.22547 0.0346,2.10181 -1.33584,-0.92604 -1.25697,-2.77716 -5.10274,-10.05094 -5.58447,-10.56233 -0.30358,-0.32226 -0.55577,-0.24194 -1.76831,0.56314 -0.77783,0.51645 -1.89232,1.1829 -2.47666,1.481 -1.58235,0.80726 -1.70178,1.06859 -2.10413,4.60394 -0.60523,5.31809 -2.07094,13.59943 -2.48665,14.04973 -0.10846,0.11748 -0.27175,-2.85908 -0.36288,-6.61459 -0.23608,-9.72968 -0.12112,-9.42639 -3.15001,-8.31042 -0.83622,0.30809 -2.3245,0.77028 -3.30729,1.02707 -2.07656,0.54259 -1.83985,0.20206 -4.27072,6.14371 -1.95564,4.78008 -2.95606,6.95143 -3.12496,6.78253 -0.21933,-0.21934 0.44874,-5.70638 1.01385,-8.32703 0.5013,-2.32468 0.50806,-3.42151 0.0192,-3.1194 -0.1176,0.0727 -2.38798,0.38683 -5.04529,0.6981 -8.64564,1.01275 -10.46725,2.13646 -15.71989,9.69728 -5.81361,8.36828 -10.30014,12.78083 -18.44449,18.14033 -4.23651,2.78789 -3.7605,3.15045 -4.5939,-3.4989 -0.33743,-2.69213 -0.68856,-4.65666 -0.7803,-4.36562 -5.49634,17.43708 -0.55642,33.74129 11.05957,36.50211 7.88625,1.87435 12.83895,6.3683 13.53977,12.28562 0.19967,1.68592 0.16569,1.68262 -1.83863,-0.17847 -3.24608,-3.0141 -8.56744,-6.14364 -10.44645,-6.14364 -0.0647,0 0.75759,0.81829 1.82736,1.81843 3.12891,2.92524 4.77582,6.36871 4.32426,9.04143 -0.26424,1.56407 -0.69198,1.36082 -3.82244,-1.8163 -2.9633,-3.00748 -4.23064,-3.9961 -7.25091,-5.65629 -2.24818,-1.23577 -2.3428,-1.17593 -0.98065,0.62021 3.31211,4.36738 2.55935,9.54376 -0.91888,6.3187 -2.40051,-2.22578 -4.00609,-3.19452 -6.86885,-4.14438 -5.98373,-1.98539 -7.29129,-3.12381 -9.37939,-8.16617 -1.36007,-3.2843 -2.38523,-4.65506 -7.12028,-9.52057 -10.33481,-10.61956 -14.53537,-16.55151 -17.76695,-25.09013 -1.13915,-3.00991 -1.31983,-2.81144 -1.31983,1.44972 0,5.43784 1.77366,10.0925 5.66288,14.86121 0.69258,0.84918 1.2198,1.57727 1.17161,1.61797 -0.50274,0.42458 -7.89058,2.29597 -13.60611,3.44652 -5.97856,1.20351 -13.07213,2.23365 -13.07213,1.89837 0,-0.0651 0.49672,-0.93422 1.10384,-1.93136 13.16847,-21.62823 0.69917,-50.98275 -22.13822,-52.11654 l -2.64583,-0.13135 1.98437,0.89921 c 11.95645,5.418 19.63251,14.4257 22.69598,26.63327 3.10923,12.38986 -3.16231,27.77688 -13.5431,33.22757 -1.10188,0.57857 -2.00471,1.12949 -2.00628,1.22428 -0.009,0.55685 9.30528,0.58441 23.0159,0.0681 10.10899,-0.38069 16.99881,3.32717 19.09907,10.27846 0.44296,1.46606 0.23338,1.43481 -2.19908,-0.3279 -3.87272,-2.8064 -7.41988,-4.20034 -11.74061,-4.61374 l -1.85209,-0.1772 2.11511,0.9385 c 5.13765,2.27964 8.06224,5.56839 8.06877,9.07343 0.003,1.72708 -0.13276,1.72504 -2.03286,-0.0304 -3.48468,-3.21946 -6.67048,-4.80877 -11.52589,-5.74999 -3.75813,-0.72852 -4.44667,-0.64831 -2.16505,0.25221 3.74658,1.47872 6.34597,3.81 6.96574,6.24728 0.36733,1.44454 0.45244,1.44271 -3.61362,0.0777 -5.63585,-1.892 -8.80389,-2.39938 -21.09553,-3.37857 -25.76052,-2.05216 -25.48035,-1.99364 -28.48808,-5.95017 l -0.97141,-1.27785 -4.98171,-1.24909 c -9.61042,-2.40969 -15.27699,-4.98451 -20.82687,-9.46349 l -2.08682,-1.68416 -2.0885,2.07437 c -4.64481,4.61341 -4.61796,8.48731 0.0896,12.92818 8.80283,8.30414 23.14014,12.16893 59.35378,15.9995 33.51627,3.54524 47.42118,7.37667 49.97998,13.77173 3.27126,8.17569 -24.84132,15.24388 -53.55185,13.46426 z M 394.1877,146.48319 c 9.47212,-6.75916 20.23806,-18.37913 12.965,-13.99346 -4.62601,2.78949 -8.15014,6.19649 -13.14246,12.70569 -0.78127,1.01865 -1.5362,2.00091 -1.67763,2.18281 -0.49119,0.63176 0.14693,0.32388 1.85509,-0.89504 z m -20.43598,0.45738 c 1.20391,-0.23744 0.90907,-0.4297 -1.05833,-0.69015 -10.78593,-1.42787 -23.5286,-11.94439 -28.04492,-23.14544 -0.9826,-2.43698 -1.19154,-2.43816 -1.19154,-0.007 0,14.48371 15.57909,26.74464 30.29479,23.84235 z m 38.16876,-3.93993 c 1.81702,-1.26938 2.18915,-1.77862 2.45644,-3.36147 0.0983,-0.58208 0.26819,-1.3871 0.37755,-1.78893 0.32596,-1.19773 -0.47288,-0.63898 -1.933,1.35204 -1.53405,2.09185 -3.47412,5.52048 -2.93612,5.18894 0.20838,-0.12842 1.12419,-0.75418 2.03513,-1.39058 z M 268.04011,127.99751 c 3.00007,-2.7649 6.25523,-5.73409 7.23369,-6.59821 2.21578,-1.95685 2.09738,-2.08216 -1.85497,-1.96319 -7.77024,0.23389 -13.78276,6.86129 -15.5333,17.12185 -0.17247,1.01084 -0.85687,1.5878 10.15458,-8.56045 z m 124.36473,5.63611 c 6.94569,-1.81032 14.64444,-5.58786 13.57264,-6.65966 -1.16652,-1.16652 -8.17392,1.53581 -16.35076,6.30552 l -2.11667,1.23469 1.45521,-0.18167 c 0.80037,-0.0999 2.34818,-0.41442 3.43958,-0.69888 z m 36.77221,-3.64414 0.81793,-1.27463 -1.53101,-1.45202 c -3.19531,-3.03045 -4.42212,-3.58005 -5.11237,-2.29029 -0.33906,0.63354 -0.30316,0.69808 2.46188,4.42551 2.04188,2.75256 1.98338,2.74227 3.36357,0.59143 z m -184.23483,-4.83625 c 11.23367,-13.12826 22.12322,-22.41629 32.23658,-27.495554 l 3.175,-1.594588 -3.0427,0.137774 c -17.6129,0.797518 -32.11403,13.874648 -36.35928,32.788828 -0.24805,1.10516 -0.19181,1.05109 3.9904,-3.83646 z m 153.05897,-15.81557 c 1.99169,-0.55321 3.40853,-2.9671 3.04748,-5.19204 -0.46749,-2.88075 -4.38748,-4.575334 -6.79443,-2.93718 -4.4092,3.00088 -1.38802,9.55549 3.74695,8.12922 z M 362.09505,90.764675 c 1.71322,-2.445957 -1.96922,-9.259771 -5.54545,-10.261055 -5.69298,-1.593935 -8.60428,3.599545 -3.03851,5.4204 2.07153,0.677701 2.81944,1.294791 3.7118,3.062562 1.16,2.297941 3.82645,3.27106 4.87216,1.778093 z m 38.47867,124.247965 c -3.56373,-3.20101 -9.44528,-6.97868 -10.86529,-6.97868 -0.12447,0 0.27073,0.62508 0.87823,1.38906 1.44774,1.82069 2.34981,3.82056 2.53569,5.62161 0.19938,1.93181 0.16542,1.92552 -4.43982,-0.82217 -4.02883,-2.40378 -6.70323,-3.82619 -10.82977,-5.75997 -3.71859,-1.74259 -5.37941,-3.35821 -7.28819,-7.08986 -0.83015,-1.62292 -2.34516,-4.21109 -3.36671,-5.75149 -1.72341,-2.59875 -3.22463,-5.47529 -4.24459,-8.1332 l -0.42179,-1.09915 4.15491,-2.77582 c 7.9976,-5.34306 11.9264,-9.19003 17.73859,-17.36915 1.00685,-1.41687 1.00295,-1.45097 0.42191,3.69014 -2.27284,20.11033 0.055,28.5382 8.35668,30.25591 9.95296,2.05936 16.13461,6.27484 16.13461,11.00276 0,0.39174 0.29441,0.50939 -3.72134,-1.48718 -1.80957,-0.89969 -4.33309,-1.99808 -5.60783,-2.44087 l -2.3177,-0.80507 1.78854,1.7899 c 4.46211,4.46552 5.4694,10.69342 1.09387,6.76323 z m 40.38217,-73.26686 c -1.01865,-0.78006 -3.1274,-2.209 -4.68612,-3.17542 -3.20703,-1.9884 -3.47224,-2.38699 -2.46599,-3.70626 1.26577,-1.6595 3.88772,0.0642 7.06221,4.64278 2.8312,4.08346 2.84175,4.34624 0.0899,2.2389 z"
       id="path1" />
  </g>
</svg>
