<?xml version="1.0" encoding="UTF-8" standalone="no"?>
<!-- Created with Inkscape (http://www.inkscape.org/) -->

<svg
   width="236.0813mm"
   height="131.92078mm"
   viewBox="0 0 236.0813 131.92078"
   version="1.1"
   id="svg1"
   inkscape:version="1.3.2 (091e20e, 2023-11-25)"
   sodipodi:docname="mustelid.svg"
   xmlns:inkscape="http://www.inkscape.org/namespaces/inkscape"
   xmlns:sodipodi="http://sodipodi.sourceforge.net/DTD/sodipodi-0.dtd"
   xmlns="http://www.w3.org/2000/svg"
   xmlns:svg="http://www.w3.org/2000/svg">
  <sodipodi:namedview
     id="namedview1"
     pagecolor="#ffffff"
     bordercolor="#000000"
     borderopacity="0.25"
     inkscape:showpageshadow="2"
     inkscape:pageopacity="0.0"
     inkscape:pagecheckerboard="0"
     inkscape:deskcolor="#d1d1d1"
     inkscape:document-units="mm"
     inkscape:zoom="0.2102413"
     inkscape:cx="432.83598"
     inkscape:cy="304.41212"
     inkscape:window-width="1312"
     inkscape:window-height="449"
     inkscape:window-x="45"
     inkscape:window-y="340"
     inkscape:window-maximized="0"
     inkscape:current-layer="layer1" />
  <defs
     id="defs1" />
  <g
     inkscape:label="Layer 1"
     inkscape:groupmode="layer"
     id="layer1"
     transform="translate(9.7263378,-67.505932)">
    <path
       style="fill:#000000;stroke-width:0.264583"
       d="m 59.477422,198.7931 c -5.71123,-0.7409 -8.79915,-3.59085 -13.88974,-12.81936 l -1.75532,-3.18216 -1.83026,1.7591 c -16.71991,16.06998 -46.0084505,10.84165 -51.0827505,-9.11883 -2.8764595,-11.31496 4.37756,-27.29551 11.48669,-25.30508 2.95151,0.82638 3.33406,1.87223 3.26364,8.92246 -0.13918,13.93465 8.0550605,21.34217 20.1404405,18.20679 7.16216,-1.85812 7.96586,-3.39508 8.2354,-15.74908 1.00766,-46.18516 37.3847,-67.161498 87.434028,-50.41767 23.37308,7.81938 32.40246,4.64884 39.14096,-13.743788 3.32589,-9.07797 4.85028,-12.67909 6.032,-14.24967 0.35244,-0.46841 0.39221,-0.45698 0.85216,0.245 1.3739,2.09683 4.75715,3.81023 5.9655,3.02113 0.32207,-0.21032 -0.0166,-0.66398 -1.79658,-2.40668 -4.5476,-4.45234 -5.03978,-9.993958 -1.28219,-14.436558 3.17736,-3.756588 10.89177,-2.012317 14.2435,3.220532 l 1.01682,1.5875 -0.19213,-1.190625 c -0.50779,-3.146647 -0.0612,-3.815648 2.74816,-4.116503 7.54843,-0.808369 14.38484,2.076984 25.74367,10.865304 2.52085,1.95037 6.48072,4.28202 8.84161,5.20612 4.55523,1.78299 4.70422,4.01166 0.66004,9.8732 -4.02191,5.829268 -7.73946,7.697568 -18.46283,9.278708 -8.9416,1.31842 -9.29893,1.8908 -11.95471,19.14917 -2.0102,13.06316 -4.28562,19.59486 -9.71437,27.88556 -3.03788,4.6394 -5.26968,7.06521 -13.48956,14.66219 -10.77151,9.95525 -10.79566,20.97341 -0.0581,26.49834 3.79859,1.95453 4.8993,3.11955 4.57082,4.83787 -0.68471,3.58183 -17.79697,2.41523 -21.65461,-1.47627 -5.88928,-5.94094 -9.75186,-13.90143 -11.88645,-24.49708 -0.87289,-4.33279 -1.18957,-5.5049 -1.32416,-4.90099 -1.22755,5.50815 -1.75482,5.68322 -13.46632,4.47115 -14.38351,-1.4886 -21.26772,-0.48202 -23.5686,3.4461 -2.696858,4.60415 -12.846938,11.70136 -12.846938,8.98292 0,-0.0622 1.09029,-1.74214 2.42287,-3.73319 10.370488,-15.49487 5.27339,-34.92348 -10.22808,-38.98637 -2.38659,-0.62551 -11.49295,-1.07505 -10.71562,-0.52897 0.21828,0.15334 0.76856,0.28063 1.22284,0.28285 20.42102,0.10017 27.994608,29.43908 11.303,43.78607 -0.99562,0.85577 -1.9548,1.68358 -2.13151,1.83957 -0.22966,0.20273 1.73231,0.28678 6.87917,0.29468 11.48544,0.0176 16.146268,1.58252 18.358568,6.16396 1.52296,3.15389 0.93253,5.8654 -1.39474,6.40524 -1.28315,0.29764 -43.522198,0.26757 -45.836338,-0.0326 z M 202.21808,88.347372 c 2.40935,-1.57866 2.04295,-4.8008 -0.66627,-5.8593 -3.00481,-1.17399 -5.69123,2.10772 -3.99835,4.88436 0.95384,1.56448 3.08504,2.00992 4.66462,0.97494 z M 179.10342,198.88064 c -0.17593,-0.11966 -0.74622,-1.06977 -1.26731,-2.11136 -1.23578,-2.47018 -4.02666,-5.44726 -6.84916,-7.30613 -4.70453,-3.09835 -5.76087,-6.67407 -3.68626,-12.47808 1.62381,-4.54284 7.73082,-13.07746 9.37034,-13.09517 0.087,-0.001 0.23072,2.52837 0.31942,5.62069 0.41054,14.31329 1.51108,16.82828 7.77645,17.77097 8.16598,1.22865 11.78016,4.97138 9.15404,9.47962 -1.09396,1.87798 -12.7262,3.54182 -14.81752,2.11946 z"
       id="path1" />
  </g>
</svg>
