<?xml version="1.0" encoding="UTF-8" standalone="no"?>
<!-- Created with Inkscape (http://www.inkscape.org/) -->

<svg
   width="210.39435mm"
   height="211.97523mm"
   viewBox="0 0 210.39435 211.97523"
   version="1.1"
   id="svg1"
   inkscape:version="1.3.2 (091e20e, 2023-11-25)"
   sodipodi:docname="pigeon.svg"
   xmlns:inkscape="http://www.inkscape.org/namespaces/inkscape"
   xmlns:sodipodi="http://sodipodi.sourceforge.net/DTD/sodipodi-0.dtd"
   xmlns="http://www.w3.org/2000/svg"
   xmlns:svg="http://www.w3.org/2000/svg">
  <sodipodi:namedview
     id="namedview1"
     pagecolor="#ffffff"
     bordercolor="#000000"
     borderopacity="0.25"
     inkscape:showpageshadow="2"
     inkscape:pageopacity="0.0"
     inkscape:pagecheckerboard="0"
     inkscape:deskcolor="#d1d1d1"
     inkscape:document-units="mm"
     inkscape:zoom="0.2102413"
     inkscape:cx="399.5409"
     inkscape:cy="399.5409"
     inkscape:window-width="1312"
     inkscape:window-height="449"
     inkscape:window-x="0"
     inkscape:window-y="25"
     inkscape:window-maximized="0"
     inkscape:current-layer="layer1" />
  <defs
     id="defs1" />
  <g
     inkscape:label="Layer 1"
     inkscape:groupmode="layer"
     id="layer1"
     transform="translate(0.79375059,-42.597918)">
    <path
       style="fill:#000000;stroke-width:0.264583"
       d="m 147.16502,254.06898 c -0.81653,-0.71925 -2.5773,-1.15344 -9.17842,-2.2633 -8.28135,-1.39237 -14.3518,-2.80865 -17.58851,-4.10353 l -1.69773,-0.6792 -4.20191,0.6912 c -4.88868,0.80417 -6.03395,0.74432 -8.44202,-0.44117 -1.7062,-0.83995 -3.15539,-0.94389 -6.343099,-0.45494 -0.895652,0.13738 -0.750168,-0.87229 0.331419,-2.3001 1.78683,-2.35881 3.17547,-2.64867 6.99452,-1.46005 l 1.61763,0.50346 0.49769,-0.6327 c 0.44296,-0.56313 0.64278,-0.61552 1.81722,-0.47642 1.71359,0.20294 4.74869,-0.9702 4.74869,-1.8355 0,-1.48811 -5.00845,-10.72441 -6.34899,-11.70846 -4.50611,-3.30779 -7.2214,-8.95445 -6.73124,-13.99814 l 0.17751,-1.82656 -2.16561,0.18061 c -6.200362,0.51709 -9.662196,0.67705 -17.872299,0.82586 -23.529766,0.42647 -22.934639,0.20845 -57.414583,21.03348 -15.4537166,9.33366 -22.8321308,11.50102 -25.46475875,7.4801 -2.32989615,-3.55854 0.24222339,-6.22305 22.79906875,-23.61797 l 7.37661,-5.68855 -4.339836,-0.27746 c -4.435065,-0.28356 -5.194713,-0.47665 -5.913766,-1.50325 -1.115573,-1.5927 -0.348596,-2.63945 5.017971,-6.84841 7.908081,-6.20223 16.175667,-14.79477 32.811461,-34.10108 29.38129,-34.09783 44.137662,-46.92696 67.534832,-58.71449 14.12932,-7.11838 17.67132,-12.836742 21.23738,-34.286554 2.66307,-16.018381 5.84413,-23.140895 12.95249,-29.001164 13.62681,-11.234192 33.01856,-5.887501 36.39299,10.034269 0.65364,3.084113 0.53729,4.547103 -0.36163,4.547103 -4.34347,0 -6.75221,3.930229 -4.261,6.952493 0.84479,1.024885 4.6267,3.101674 5.64826,3.101674 2.04861,0 1.91838,-1.844818 -0.17819,-2.524046 -3.95336,-1.280779 -5.38196,-3.592975 -2.93683,-4.753269 4.72338,-2.241388 15.11679,4.961456 15.84583,10.981481 0.23651,1.953059 0.14862,1.971257 -3.9935,0.826892 -10.28482,-2.841435 -13.892,-2.50535 -18.36127,1.710735 -5.79,5.461987 -5.77432,11.933486 0.0615,25.375916 6.78736,15.63428 9.04993,24.07795 9.35849,34.925 0.78237,27.50303 -17.09524,53.68824 -46.21048,67.68414 -5.88218,2.82761 -7.76469,4.48367 -9.95264,8.75547 -1.62247,3.16774 -3.14617,5.29087 -5.08588,7.0867 -1.33624,1.23712 -1.52988,1.5257 -1.2303,1.83345 0.50936,0.52323 3.76313,5.98637 5.41775,9.09649 2.94894,5.543 3.10223,5.615 14.95211,7.02289 8.8078,1.04645 10.36392,1.7007 11.38956,4.78861 0.76313,2.29758 0.0202,3.88182 -1.25746,2.6815 -0.77717,-0.73012 -1.94155,-0.98148 -8.33878,-1.80014 -5.79185,-0.7412 -8.73974,-1.24037 -11.71519,-1.98375 -1.09141,-0.27268 -4.45932,-0.80472 -7.48425,-1.1823 -5.28337,-0.6595 -8.70248,-1.42031 -9.07234,-2.01876 -0.38238,-0.6187 0.595,-1.06897 2.3001,-1.05963 4.6755,0.0256 4.99361,-0.77752 2.37197,-5.98851 -2.83701,-5.63908 -3.84684,-7.18454 -5.71027,-8.73907 -0.87313,-0.72839 -1.97455,-1.66387 -2.44761,-2.07884 l -0.8601,-0.7545 4.27628,-3.70417 c 8.52334,-7.38302 9.03313,-7.95921 8.29868,-9.37948 -0.80804,-1.56258 -1.3738,-1.26208 -7.03342,3.73572 -7.62197,6.73068 -10.32544,9.0262 -12.12456,10.29497 -2.18215,1.5389 -2.66315,0.12533 4.93476,14.5023 3.047,5.76559 4.50067,6.48803 16.00668,7.9549 6.54633,0.83458 7.76193,1.15018 9.0151,2.34052 2.4029,2.28246 2.53249,7.35038 0.13392,5.23753 z M 56.982996,207.87179 c 10.399885,-0.77057 18.544529,-2.15815 25.4,-4.32734 l 1.984375,-0.62789 -1.058333,-0.46908 c -1.645407,-0.72928 -5.614075,-0.64443 -9.392709,0.20082 -10.289571,2.30167 -20.140945,3.09996 -31.638173,2.56374 -7.534899,-0.35143 -8.049326,-0.30525 -8.049326,0.72263 0,1.63007 12.516712,2.69565 22.754166,1.93712 z m 9.260417,-8.32897 c 6.655922,-0.85306 8.281619,-1.3455 8.151794,-2.46924 -0.106532,-0.92214 -1.914327,-0.93709 -7.887211,-0.0652 -6.94191,1.01333 -22.68398,0.90908 -24.416514,-0.16168 -0.470437,-0.29075 -1.158066,0.69651 -1.040942,1.49452 0.137504,0.93687 0.06177,0.91812 5.87829,1.45589 5.077171,0.46941 14.651497,0.34337 19.314583,-0.25427 z m 43.656247,-2.39144 c 34.16689,-5.23985 61.94683,-31.99818 57.17566,-55.073 -2.50415,-12.11076 -13.66097,-22.86912 -23.68204,-22.83623 l -1.34674,0.004 2.24773,1.20667 c 30.07129,16.14347 19.70877,53.46884 -18.38732,66.23035 -7.76527,2.60122 -14.72374,2.10882 -12.10468,-0.85657 0.45351,-0.51349 0.44401,-0.5204 -0.46302,-0.33658 -5.84186,1.18384 -12.44318,0.36413 -14.816671,-1.83983 -0.856528,-0.79536 -3.436736,-0.41079 -6.89823,1.02814 -4.779002,1.98662 -14.018384,4.67356 -16.070617,4.67356 -1.020347,0 -0.883271,0.53099 0.263888,1.02224 5.118629,2.19194 12.893704,2.43901 22.903397,0.72782 1.928153,-0.32963 3.505733,-0.5183 3.505733,-0.41927 0,0.58005 -6.303377,4.25299 -8.863546,5.16472 -1.90628,0.67887 -1.947317,0.82807 -0.320627,1.16578 4.259942,0.88435 11.597893,0.94434 16.857083,0.13778 z m -48.021872,-4.93887 c 2.227164,-0.34013 5.213564,-1.302 5.183658,-1.66957 -0.01339,-0.16453 -2.598531,-0.3245 -6.835925,-0.42303 -6.791421,-0.1579 -9.256165,-0.44582 -11.875649,-1.38725 -1.174556,-0.42213 -1.685626,0.007 -1.685626,1.41654 0,1.81255 8.927471,3.02333 15.213542,2.06331 z m 6.402488,-9.86574 c 1.135298,-0.36055 3.433397,-1.34719 5.106887,-2.19254 l 3.042708,-1.53698 0.08064,-1.24705 c 0.103884,-1.60646 0.08723,-1.60514 -3.945278,0.31151 -1.803511,0.85721 -4.350676,1.88445 -5.660364,2.28277 -3.621712,1.10147 -3.571875,1.07424 -3.571875,1.95178 0,1.29249 1.752796,1.44502 4.94728,0.43051 z m 98.746464,-67.221 c 1.71855,-0.40509 4.01137,-1.49187 4.57161,-2.16692 0.25235,-0.30407 0.18924,-0.33962 -0.35877,-0.20208 -1.98227,0.49752 -8.47653,-0.82927 -11.92898,-2.43712 -2.62036,-1.22033 -2.59086,-1.2867 0.66146,-1.48864 2.93794,-0.18243 5.88641,-0.88835 7.82464,-1.87339 l 1.22429,-0.6222 -1.58098,-0.30667 c -8.86093,-1.7188 -18.10364,-7.490266 -20.53261,-12.821278 -0.44551,-0.977797 -0.58368,-0.888045 -1.27575,0.828696 -0.33731,0.836745 -1.55613,3.372305 -2.70849,5.63458 -2.47736,4.863492 -2.48799,4.642042 0.35631,7.419432 6.42273,6.27163 16.60851,9.71829 23.74727,8.03559 z m 13.1198,-49.037232 c 4.45465,-2.043478 4.64011,-8.054467 0.31501,-10.209755 -3.84529,-1.916189 -8.12022,0.725731 -8.12022,5.018323 0,4.100322 4.15676,6.86508 7.80521,5.191432 z m -4.32767,-2.554259 c -2.45985,-2.06983 -1.11497,-5.944465 2.06333,-5.944465 1.42102,0 2.41181,0.602324 3.06337,1.862307 1.59633,3.086957 -2.46562,6.321306 -5.1267,4.082158 z"
       id="path1" />
  </g>
</svg>
