<?xml version="1.0" encoding="UTF-8" standalone="no"?>
<!-- Created with Inkscape (http://www.inkscape.org/) -->

<svg
   width="173.59935mm"
   height="187.84161mm"
   viewBox="0 0 173.59935 187.84161"
   version="1.1"
   id="svg1"
   inkscape:version="1.3.2 (091e20e, 2023-11-25)"
   sodipodi:docname="rabbit.svg"
   xmlns:inkscape="http://www.inkscape.org/namespaces/inkscape"
   xmlns:sodipodi="http://sodipodi.sourceforge.net/DTD/sodipodi-0.dtd"
   xmlns="http://www.w3.org/2000/svg"
   xmlns:svg="http://www.w3.org/2000/svg">
  <sodipodi:namedview
     id="namedview1"
     pagecolor="#ffffff"
     bordercolor="#000000"
     borderopacity="0.25"
     inkscape:showpageshadow="2"
     inkscape:pageopacity="0.0"
     inkscape:pagecheckerboard="0"
     inkscape:deskcolor="#d1d1d1"
     inkscape:document-units="mm"
     inkscape:zoom="0.2102413"
     inkscape:cx="-618.33711"
     inkscape:cy="190.25757"
     inkscape:window-width="1312"
     inkscape:window-height="449"
     inkscape:window-x="0"
     inkscape:window-y="25"
     inkscape:window-maximized="0"
     inkscape:current-layer="layer1" />
  <defs
     id="defs1" />
  <g
     inkscape:label="Layer 1"
     inkscape:groupmode="layer"
     id="layer1"
     transform="translate(-268.02292,-98.689582)">
    <path
       style="fill:#000000;stroke-width:0.264583"
       d="m 304.81789,285.85658 c -4.483,-0.90416 -7.76435,-2.93586 -10.21172,-6.32276 l -0.55366,-0.76622 -1.9595,0.50163 c -5.09969,1.30553 -11.1328,0.40227 -15.11845,-2.2635 -13.20171,-8.82984 -11.2588,-30.43602 2.26315,-25.16744 1.86649,0.72725 1.79876,0.78653 1.50088,-1.31379 -4.05753,-28.60915 16.54142,-58.28059 46.36026,-66.77889 7.90097,-2.25175 13.62581,-2.89407 26.13779,-2.93263 11.81112,-0.0364 12.33882,-0.0958 15.78448,-1.7758 3.79155,-1.84868 5.1176,-3.95847 5.1176,-8.14224 0,-4.37324 0.42417,-7.58368 1.64601,-12.45828 1.36813,-5.45821 1.53726,-4.99034 -3.29146,-9.10538 -13.51392,-11.51657 -19.17565,-20.29653 -21.38656,-33.16535 -1.71309,-9.9712 0.73979,-14.65769 7.01153,-13.39628 11.79348,2.37196 24.88709,18.1428 32.72638,39.41788 0.69707,1.89178 1.26846,3.26099 1.26976,3.04271 0.0656,-11.03024 -6.7043,-26.83217 -15.55857,-36.3158 l -2.21311,-2.37043 0.17467,-1.31674 c 0.97672,-7.362878 4.90808,-8.476329 12.33484,-3.49352 9.2256,6.18971 13.73768,16.66091 14.23706,33.04001 l 0.16924,5.55081 3.04271,0.30766 c 13.75596,1.39089 27.56862,12.56314 35.94274,29.07197 5.17029,10.19276 -4.75543,21.42391 -20.58214,23.28911 -4.01144,0.47275 -3.87636,0.35355 -3.50357,3.09183 2.61375,19.19882 -0.48732,32.84415 -10.26974,45.18885 -4.01458,5.06611 -3.91664,7.16249 1.04038,22.26844 2.22799,6.78955 2.20169,6.74939 4.63975,7.08643 6.63271,0.91693 13.37344,8.92342 11.42955,13.57579 -1.35325,3.2388 -8.96638,3.0374 -9.01592,-0.23851 -0.0389,-2.56934 -3.5293,-7.59864 -7.11294,-10.24886 -4.1407,-3.0622 -6.85723,-7.43408 -9.18727,-14.78567 -1.61139,-5.08416 -1.58854,-5.03214 -1.42189,-3.23783 1.12425,12.10426 2.70638,15.7028 9.5856,21.80225 3.79016,3.36056 5.14762,6.2641 3.75394,8.02952 l -0.5744,0.72761 h -6.03834 c -11.29677,0 -13.89063,-2.12274 -21.33816,-17.4625 -5.46217,-11.25048 -5.43124,-11.19421 -6.45305,-11.7413 l -0.92734,-0.49651 -4.89349,1.64135 c -4.93009,1.65362 -8.62427,2.62552 -12.03725,3.16687 -1.61041,0.25544 -8.58685,1.06995 -9.22506,1.07704 -0.12607,0.001 0.21059,-0.48427 0.74814,-1.07927 6.28786,-6.95991 8.47664,-18.621 5.25708,-28.008 -4.33316,-12.63385 -15.65605,-19.21393 -31.2137,-18.13924 l -2.87271,0.19844 3.175,0.6415 c 28.62656,5.78396 36.55577,30.70804 15.91266,50.01867 l -1.70463,1.59459 9.82932,-0.0324 c 9.52837,-0.0314 9.89384,-0.0137 11.93669,0.57771 10.98521,3.1803 15.93018,14.86536 7.40514,17.49848 -2.22168,0.68621 -58.43137,0.82086 -61.76772,0.14797 z m 108.50618,-120.3217 c 3.52141,-2.34016 2.04889,-8.39839 -2.04131,-8.39839 -1.33363,0 -2.84717,1.12648 -3.44908,2.56706 -1.16283,2.78306 0.88511,6.42878 3.61129,6.42878 0.5756,0 1.3511,-0.24657 1.8791,-0.59745 z"
       id="path1" />
  </g>
</svg>
