<?xml version="1.0" encoding="UTF-8" standalone="no"?>
<!-- Created with Inkscape (http://www.inkscape.org/) -->

<svg
   width="243.1597mm"
   height="199.34195mm"
   viewBox="0 0 243.1597 199.34195"
   version="1.1"
   id="svg1"
   inkscape:version="1.3.2 (091e20e, 2023-11-25)"
   sodipodi:docname="raccoon_dog.svg"
   xmlns:inkscape="http://www.inkscape.org/namespaces/inkscape"
   xmlns:sodipodi="http://sodipodi.sourceforge.net/DTD/sodipodi-0.dtd"
   xmlns="http://www.w3.org/2000/svg"
   xmlns:svg="http://www.w3.org/2000/svg">
  <sodipodi:namedview
     id="namedview1"
     pagecolor="#ffffff"
     bordercolor="#000000"
     borderopacity="0.25"
     inkscape:showpageshadow="2"
     inkscape:pageopacity="0.0"
     inkscape:pagecheckerboard="0"
     inkscape:deskcolor="#d1d1d1"
     inkscape:document-units="mm"
     inkscape:zoom="0.2102413"
     inkscape:cx="461.37462"
     inkscape:cy="375.75871"
     inkscape:window-width="1312"
     inkscape:window-height="449"
     inkscape:window-x="0"
     inkscape:window-y="25"
     inkscape:window-maximized="0"
     inkscape:current-layer="layer1" />
  <defs
     id="defs1" />
  <g
     inkscape:label="Layer 1"
     inkscape:groupmode="layer"
     id="layer1"
     transform="translate(17.197917,-48.947917)">
    <path
       style="fill:#000000;stroke-width:0.264583"
       d="m 80.528182,248.07434 c -3.871039,-0.52488 -4.347255,-1.05712 -9.838888,-10.9965 C 60.439103,218.52589 60.511705,219.17782 67.87522,211.80946 82.97176,196.703 87.177095,183.08855 80.869532,169.74139 c -0.816679,-1.72814 -0.781942,-1.84847 -1.113806,3.85797 -0.785027,13.49864 -4.638725,20.56831 -20.807484,38.17165 -8.93287,9.72544 -10.170059,11.33567 -10.170059,13.23656 0,2.81455 2.479071,5.79857 6.045451,7.27681 5.489281,2.27528 8.374592,6.01495 8.706911,11.28511 0.268832,4.26329 -0.462537,4.48996 -14.469655,4.48443 -14.978462,-0.006 -15.425793,-0.17653 -18.288098,-6.97523 -0.620088,-1.47286 -2.169805,-5.00127 -3.443816,-7.8409 -3.78237,-8.43048 -4.092848,-11.28126 -1.963301,-18.02696 4.047828,-12.82221 3.49481,-19.66871 -2.899164,-35.89215 -0.820275,-2.08129 -1.692138,-4.54947 -1.93747,-5.48486 -0.912828,-3.48036 -1.122719,-2.46177 -0.944351,4.58284 0.878552,34.69799 -10.0234877,61.48555 -25.04609,61.54111 -13.965721,0.0516 -15.623865,-22.3908 -4.1355644,-55.97357 2.7867136,-8.14616 4.2365443,-12.83161 6.7814388,-21.91573 C 10.0454,116.16078 37.901138,97.806081 94.500725,97.944831 c 18.093905,0.04436 16.051505,-0.621522 14.251575,4.646419 -3.11974,9.13069 -3.3139,10.64745 -1.67795,13.10826 5.47497,8.23554 18.27553,18.05179 32.85279,25.19353 9.35724,4.58433 13.47664,5.31957 16.31736,2.91236 l 0.61597,-0.52197 -2.67187,-2.6054 c -3.13387,-3.0559 -6.10066,-5.21155 -12.80625,-9.30494 -11.60764,-7.0858 -21.1889,-14.23588 -20.52212,-15.31477 0.11505,-0.18614 2.6067,-2.2559 5.537,-4.59945 20.71041,-16.563465 27.14582,-18.960198 35.82834,-13.34351 l 1.84075,1.190774 0.1412,-2.419353 c 0.5351,-9.16826 -1.99962,-12.51468 -9.06174,-11.963625 -12.94768,1.010301 -23.07078,6.261822 -35.02309,18.168784 -2.45224,2.44294 -4.39369,4.24024 -4.31433,3.99401 0.0794,-0.24623 0.50622,-1.75092 0.94856,-3.34375 2.12495,-7.651775 4.15409,-11.691904 8.68493,-17.292173 l 1.99117,-2.461149 -0.68509,-2.301351 c -8.63591,-29.009787 6.77181,-42.475661 26.40895,-23.08062 l 2.64641,2.613784 2.05394,-0.489346 c 6.47314,-1.54222 16.86091,-1.647569 23.82279,-0.241605 l 2.59455,0.523973 2.03566,-1.814475 c 4.87952,-4.349337 10.77536,-8.021728 15.35571,-9.564735 12.12262,-4.083818 18.36943,10.535089 13.23305,30.968275 l -0.8379,3.333268 1.43615,1.693815 c 4.61173,5.439164 7.30537,10.571437 9.10178,17.341929 0.53496,2.01619 1.08424,3.87432 1.22063,4.12916 0.44006,0.82226 0.13069,0.53963 -4.95149,-4.52338 -11.62991,-11.586055 -20.75075,-16.382977 -33.31602,-17.521884 -6.43183,-0.582978 -9.20658,0.925129 -10.16019,5.522161 -0.2892,1.394127 -0.41673,8.51979 -0.15248,8.51979 0.0761,0 1.0651,-0.53847 2.19778,-1.196597 7.64193,-4.440267 13.62895,-3.082129 25.9013,5.87563 4.1526,3.03104 15.68338,12.23764 15.68338,12.52219 0,1.11393 -12.17322,10.44466 -16.73965,12.83088 -1.07284,0.56062 -1.51584,0.94638 -1.51705,1.32102 -0.0506,15.71532 -6.25624,35.24083 -15.89342,50.00753 l -2.07294,3.17628 -0.66011,4.62893 c -2.23179,15.64998 -1.7511,39.58081 0.85505,42.5678 0.31361,0.35944 1.1802,0.62635 2.98904,0.9206 7.74539,1.26 13.45516,9.02121 10.63357,14.45407 -1.3354,2.57125 -18.54129,2.84245 -23.42204,0.36919 -7.16441,-3.63048 -13.47158,-18.45638 -17.54727,-41.24732 -0.52047,-2.91041 -1.06553,-5.90653 -1.21125,-6.65803 l -0.26494,-1.36637 -1.73758,0.4969 c -2.76786,0.79154 -2.84428,0.87973 -3.22228,3.71888 -1.22661,9.21279 -0.93974,28.28155 0.4463,29.66759 0.10736,0.10737 1.1169,0.43094 2.2434,0.71905 5.15496,1.31842 8.08714,4.69203 9.30515,10.70601 1.03027,5.08699 0.20846,5.44264 -12.58127,5.44471 -17.16143,0.003 -17.71723,-0.84163 -29.34383,-44.58082 -2.43885,-9.17491 -2.33724,-8.86354 -2.89231,-8.86354 -0.45405,0 -0.50351,0.39286 -0.68326,5.42638 -0.23367,6.54336 1.05519,5.77458 -9.7666,5.8256 l -8.995495,0.0424 -3.212568,3.31192 c -9.345697,9.6347 -10.155161,11.30457 -7.78011,16.04977 1.316797,2.63088 4.986988,6.65292 6.071465,6.65352 5.832242,0.003 10.735428,3.7998 12.037068,9.32049 0.90872,3.8542 0.44267,5.43197 -1.91929,6.49761 -1.07855,0.48661 -20.464161,0.76118 -23.611528,0.33442 z M 168.07365,137.26378 c -0.13226,-0.5457 -0.16712,-2.06657 -0.0774,-3.37971 l 0.16302,-2.38753 -1.49071,-0.61787 c -4.1375,-1.71489 -4.64478,-7.6667 -0.74562,-8.74813 2.76787,-0.76767 8.85173,-0.5467 10.65748,0.38708 3.06446,1.5847 1.6648,7.70077 -1.97203,8.61715 l -1.07912,0.27191 v 3.45657 3.45658 l 1.7766,-0.1652 c 14.44248,-1.34297 15.86193,-18.11572 2.27622,-26.89659 -7.38311,-4.77193 -16.93696,-0.67593 -21.93262,9.40314 -4.10193,8.27592 1.87673,17.4669 11.43579,17.58022 l 1.22891,0.0146 z m -12.64522,-28.97982 c 1.23905,-0.83499 1.60535,-1.64912 1.48712,-3.3052 -0.30258,-4.23838 -5.90574,-4.63689 -7.09095,-0.50433 -0.87857,3.06341 2.89965,5.63188 5.60383,3.80953 z m 34.79714,-0.52527 c 1.16604,-1.27237 1.36169,-2.44709 0.66854,-4.01407 -1.59461,-3.60487 -6.91385,-2.39642 -6.91385,1.57072 0,3.25794 4.04759,4.84148 6.24531,2.44335 z m 15.66317,-33.333449 c 2.30796,-11.459474 1.43617,-16.395832 -2.53979,-14.381062 -2.59892,1.316972 -9.93176,7.976944 -9.11817,8.281482 0.865,0.323779 8.51383,6.453124 9.97346,7.992174 1.07786,1.136504 1.07342,1.141494 1.6845,-1.892594 z m -66.45685,-0.467085 c 1.67838,-1.311923 4.10831,-3.127626 5.39986,-4.034896 2.9032,-2.039403 2.94743,-1.665049 -0.60513,-5.121745 -9.30819,-9.057021 -12.16731,-6.00006 -8.62971,9.226851 0.64695,2.784663 0.17154,2.793368 3.83498,-0.07021 z"
       id="path1" />
  </g>
</svg>
