<?xml version="1.0" encoding="UTF-8" standalone="no"?>
<!-- Created with Inkscape (http://www.inkscape.org/) -->

<svg
   width="188.55812mm"
   height="170.2999mm"
   viewBox="0 0 188.55812 170.2999"
   version="1.1"
   id="svg1"
   inkscape:version="1.3.2 (091e20e, 2023-11-25)"
   sodipodi:docname="seal.svg"
   xmlns:inkscape="http://www.inkscape.org/namespaces/inkscape"
   xmlns:sodipodi="http://sodipodi.sourceforge.net/DTD/sodipodi-0.dtd"
   xmlns="http://www.w3.org/2000/svg"
   xmlns:svg="http://www.w3.org/2000/svg">
  <sodipodi:namedview
     id="namedview1"
     pagecolor="#ffffff"
     bordercolor="#000000"
     borderopacity="0.25"
     inkscape:showpageshadow="2"
     inkscape:pageopacity="0.0"
     inkscape:pagecheckerboard="0"
     inkscape:deskcolor="#d1d1d1"
     inkscape:document-units="mm"
     inkscape:zoom="0.2102413"
     inkscape:cx="356.73295"
     inkscape:cy="323.43788"
     inkscape:window-width="1312"
     inkscape:window-height="449"
     inkscape:window-x="0"
     inkscape:window-y="25"
     inkscape:window-maximized="0"
     inkscape:current-layer="layer1" />
  <defs
     id="defs1" />
  <g
     inkscape:label="Layer 1"
     inkscape:groupmode="layer"
     id="layer1"
     transform="translate(-10.054166,-63.235416)">
    <path
       style="fill:#000000;stroke-width:0.264583"
       d="m 93.272696,233.38947 c -13.642586,-0.79424 -12.125269,-6.39928 3.987102,-14.72856 6.591542,-3.4075 7.369322,-3.9211 9.777512,-6.45655 5.30476,-5.58509 7.59953,-16.21524 6.38926,-29.5973 -0.23031,-2.54662 -0.50393,-6.05896 -0.60803,-7.80521 l -0.18929,-3.175 -0.49466,1.5875 c -0.89586,2.87508 -1.78105,8.6328 -2.3187,15.08197 -1.29273,15.50645 -3.94829,21.57181 -11.12044,25.39928 l -1.983171,1.05833 -7.805208,-7.9e-4 c -9.161288,-7.9e-4 -10.779455,-0.1822 -22.489583,-2.52057 -13.725149,-2.74073 -20.590319,-3.65128 -30.823958,-4.08826 l -3.439583,-0.14687 3.554859,0.94019 c 14.252649,3.76952 28.162853,11.13403 30.166421,15.97108 0.540795,1.30559 -0.925039,3.26164 -3.367698,4.49395 -1.917468,0.96735 -2.091135,0.95841 -3.577696,-0.18417 -2.803033,-2.15444 -6.891777,-4.32155 -12.035597,-6.37909 -2.84121,-1.13649 -2.872679,-1.00959 -0.340378,1.37262 2.735855,2.5737 5.11965,4.26831 8.151547,5.79486 2.690741,1.35477 2.687188,1.36857 -0.471183,1.83038 -11.846779,1.73223 -37.056279,-7.30714 -42.040574,-15.07449 -6.2715429,-9.77336 1.725168,-31.05989 17.711341,-47.14601 12.831487,-12.91171 22.581308,-17.89581 48.114507,-24.59613 18.254853,-4.79036 25.903894,-8.45288 32.786884,-15.69903 7.07265,-7.4458 8.22276,-11.26558 8.53259,-28.33857 0.15777,-8.694115 0.29419,-11.515566 0.62683,-12.964585 5.14161,-22.397016 28.98742,-31.729984 48.82595,-19.109825 4.6725,2.972385 7.6856,3.896357 12.70612,3.896357 13.20643,0 8.41689,16.989224 -7.09323,25.16075 -7.67654,4.044403 -8.53911,8.256903 -4.54125,22.178153 9.86445,34.34975 8.25924,55.47147 -5.61506,73.88405 -4.63746,6.15438 -18.82617,17.75916 -17.8139,14.5698 2.11197,-6.65424 2.50827,-15.86001 1.02205,-23.74171 l -0.44902,-2.38125 -0.33389,3.96875 c -1.63099,19.38675 -7.69496,33.49209 -17.08622,39.7441 -7.87169,5.2404 -21.97241,8.03683 -36.314654,7.20185 z M 157.33323,83.752565 c 2.60709,-1.237144 2.93279,-5.074587 0.57331,-6.754691 -1.88836,-1.344628 -4.72306,-0.677169 -5.76049,1.356373 -1.74654,3.423497 1.72823,7.0397 5.18718,5.398318 z m 23.6403,138.291415 c -12.32511,-1.03281 -21.57512,-5.37097 -26.13081,-12.25508 l -0.69569,-1.05126 0.78367,-0.65782 c 7.16765,-6.01665 11.77209,-11.04589 16.73119,-18.27478 1.38724,-2.02218 1.90491,-2.60154 2.00946,-2.24895 0.0774,0.26121 0.45638,1.90368 0.84205,3.64993 2.49723,11.30693 4.5487,14.08787 13.81139,18.7225 6.14909,3.07672 8.09198,4.25408 9.31065,5.64208 3.86538,4.40242 -4.16129,7.52089 -16.66191,6.47338 z"
       id="path1" />
  </g>
</svg>
