<?xml version="1.0" encoding="UTF-8" standalone="no"?>
<!-- Created with Inkscape (http://www.inkscape.org/) -->

<svg
   width="202.9361mm"
   height="209.00807mm"
   viewBox="0 0 202.9361 209.00807"
   version="1.1"
   id="svg1"
   inkscape:version="1.3.2 (091e20e, 2023-11-25)"
   sodipodi:docname="squirrel.svg"
   xmlns:inkscape="http://www.inkscape.org/namespaces/inkscape"
   xmlns:sodipodi="http://sodipodi.sourceforge.net/DTD/sodipodi-0.dtd"
   xmlns="http://www.w3.org/2000/svg"
   xmlns:svg="http://www.w3.org/2000/svg">
  <sodipodi:namedview
     id="namedview1"
     pagecolor="#ffffff"
     bordercolor="#000000"
     borderopacity="0.25"
     inkscape:showpageshadow="2"
     inkscape:pageopacity="0.0"
     inkscape:pagecheckerboard="0"
     inkscape:deskcolor="#d1d1d1"
     inkscape:document-units="mm"
     inkscape:zoom="0.2102413"
     inkscape:cx="385.27159"
     inkscape:cy="394.78447"
     inkscape:window-width="1312"
     inkscape:window-height="449"
     inkscape:window-x="0"
     inkscape:window-y="25"
     inkscape:window-maximized="0"
     inkscape:current-layer="layer1" />
  <defs
     id="defs1" />
  <g
     inkscape:label="Layer 1"
     inkscape:groupmode="layer"
     id="layer1"
     transform="translate(-2.9104172,-43.920834)">
    <path
       style="fill:#000000;stroke-width:0.264583"
       d="M 91.149632,252.83427 C 74.82388,252.65206 74.997,252.6677 72.389071,251.13935 c -1.41804,-0.83103 -3.050262,-2.67174 -3.251274,-3.66657 -0.139428,-0.69005 -0.223854,-0.72762 -1.6353,-0.72793 C 39.074767,246.73872 11.030344,221.705 4.665287,190.65351 -0.05010123,167.64981 4.4704108,150.7168 21.476348,127.68237 35.151642,109.15927 38.462172,101.83144 38.026554,91.048635 37.40913,75.765545 23.847496,67.007419 5.6230707,70.122403 -0.84196209,71.22743 19.191769,53.197008 29.578935,48.562045 82.73366,24.843353 126.78294,98.169673 78.453088,129.92005 c -10.256615,6.73811 -12.52892,8.30968 -15.613872,10.79886 -26.032153,21.0048 -33.058004,55.38951 -16.432628,80.42175 1.557449,2.345 4.129503,5.72157 4.129503,5.42117 0,-0.0679 -0.402283,-1.00626 -0.893961,-2.08518 -8.862012,-19.44641 -8.489966,-43.48073 0.935728,-60.44839 11.201223,-20.16388 23.458485,-29.05081 51.948862,-37.6647 13.19022,-3.98798 19.2466,-8.14085 26.59414,-18.23563 4.36032,-5.99064 6.22866,-8.05494 7.74895,-8.561704 0.17828,-0.05943 -0.17721,-0.656172 -0.83721,-1.405395 -7.29861,-8.285377 -8.19556,-23.238682 -1.77659,-29.618043 2.72362,-2.706817 5.18794,-2.452349 8.70127,0.898509 4.43489,4.229799 6.03689,8.135784 8.93865,21.794118 1.30131,6.125165 1.27968,6.08349 2.06058,3.969655 2.10994,-5.711423 1.23509,-12.140827 -2.89864,-21.302689 -2.78606,-6.174901 -0.36392,-10.379636 4.21703,-7.320595 5.8433,3.902001 9.98165,11.803819 10.24467,19.561305 l 0.12111,3.571875 2.0451,0.415538 c 11.337,2.303542 23.2839,11.783476 30.65259,24.323006 2.51098,4.273 7.50814,15.46918 7.50814,16.82204 0,3.07352 -5.06463,7.78421 -8.36907,7.78421 -1.31783,0 -1.45518,0.0685 -2.79232,1.39217 -8.95286,8.8628 -33.17731,8.67348 -44.5299,-0.34801 -1.09333,-0.86883 -1.98788,-1.54798 -1.98788,-1.50922 0,0.41911 1.50268,4.02213 2.14755,5.14924 1.47246,2.5736 6.16302,6.86135 8.27667,7.5659 0.15257,0.0509 -1.24778,3.51185 -3.11189,7.69109 -4.67287,10.47638 -5.41573,9.77273 8.56267,8.11076 10.8502,-1.29003 16.77156,-0.51807 21.09124,2.74964 6.71876,5.08254 8.58408,11.39979 4.71641,15.97303 -2.60206,3.07675 -5.49018,2.35311 -11.07764,-2.77559 -4.63765,-4.25688 -4.07034,-4.29691 -15.95518,1.12583 -9.3415,4.26228 -12.66526,5.25477 -17.56025,5.24361 -9.36224,-0.0214 -18.86938,-6.9211 -22.80717,-16.55215 -1.03281,-2.52606 -1.10123,-2.48844 -0.60567,0.33307 1.95155,11.11138 10.82412,20.47028 19.56989,20.64258 1.2405,0.0245 2.25545,0.13517 2.25545,0.24607 0,10.08619 -10.12821,27.4448 -20.10833,34.46342 -5.61621,3.94966 -6.07331,3.93735 -4.02839,-0.10846 15.60357,-30.87119 -6.83574,-67.35798 -36.034267,-58.59248 -3.493236,1.04869 -3.470188,1.09738 0.683749,1.44463 15.651342,1.30839 26.455188,8.23559 32.378708,20.76056 7.71691,16.317 0.80714,42.49814 -13.06657,49.50926 -2.21673,1.12023 0.0857,0.71081 8.16052,-1.45113 27.62777,-7.397 39.03223,-5.82436 45.13103,6.22343 3.06022,6.04528 3.06269,6.04421 -14.52474,6.25667 -30.17493,0.36453 -36.53838,0.39324 -51.111498,0.23059 z M 173.99986,117.18386 c 2.14483,-1.10772 2.91254,-4.41374 1.618,-6.96772 -1.48008,-2.92004 -6.08076,-3.20442 -8.50104,-0.52546 -3.73747,4.13693 1.77078,10.13347 6.88304,7.49318 z"
       id="path1" />
  </g>
</svg>
