<?xml version="1.0" encoding="UTF-8" standalone="no"?>
<!-- Created with Inkscape (http://www.inkscape.org/) -->

<svg
   width="237.96498mm"
   height="199.65334mm"
   viewBox="0 0 237.96498 199.65334"
   version="1.1"
   id="svg1"
   inkscape:version="1.3.2 (091e20e, 2023-11-25)"
   sodipodi:docname="wolf.svg"
   xmlns:inkscape="http://www.inkscape.org/namespaces/inkscape"
   xmlns:sodipodi="http://sodipodi.sourceforge.net/DTD/sodipodi-0.dtd"
   xmlns="http://www.w3.org/2000/svg"
   xmlns:svg="http://www.w3.org/2000/svg">
  <sodipodi:namedview
     id="namedview1"
     pagecolor="#ffffff"
     bordercolor="#000000"
     borderopacity="0.25"
     inkscape:showpageshadow="2"
     inkscape:pageopacity="0.0"
     inkscape:pagecheckerboard="0"
     inkscape:deskcolor="#d1d1d1"
     inkscape:document-units="mm"
     inkscape:zoom="0.2102413"
     inkscape:cx="451.86174"
     inkscape:cy="375.75871"
     inkscape:window-width="1312"
     inkscape:window-height="449"
     inkscape:window-x="0"
     inkscape:window-y="25"
     inkscape:window-maximized="0"
     inkscape:current-layer="layer1" />
  <defs
     id="defs1" />
  <g
     inkscape:label="Layer 1"
     inkscape:groupmode="layer"
     id="layer1"
     transform="translate(14.552079,-48.683379)">
    <path
       style="fill:#000000;stroke-width:0.264583"
       d="m 138.55136,247.9124 c -5.27647,-0.34833 -6.92982,-1.8908 -9.07294,-8.46449 -0.26093,-0.80036 -1.04003,-2.58825 -1.73134,-3.97308 -2.15506,-4.317 -2.5455,-6.35438 -4.99351,-26.05712 -4.21202,-33.90039 -4.17607,-33.21611 -2.03294,-38.70066 1.57968,-4.04259 1.893,-7.19181 1.09172,-10.97295 -0.63316,-2.9878 -0.77615,-2.95563 -1.58012,0.35549 -0.39931,1.64457 -1.2036,4.30565 -1.78731,5.9135 -2.80801,7.7348 -2.93048,8.15534 -3.06569,10.52681 -0.15232,2.67137 0.1305,2.51169 -3.36609,1.90053 -10.44417,-1.8255 -24.023369,-6.9838 -35.733893,-13.57416 l -1.867226,-1.05082 0.628245,-2.99575 c 1.002811,-4.78185 0.874239,-15.29887 -0.187031,-15.29887 -0.09802,0 -0.382262,1.56844 -0.63164,3.48543 -1.926902,14.81214 -7.170089,25.19244 -18.427655,36.4825 -3.943937,3.95532 -5.920086,5.67706 -17.335184,15.1035 -8.563941,7.07198 -8.649761,7.16323 -9.49179,10.09202 -1.365274,4.74876 -2.229233,12.05878 -2.304399,19.49768 l -0.03603,3.56633 2.058686,0.31831 c 5.345944,0.82657 9.500016,4.80953 10.0627,9.6482 0.267978,2.30441 -1.455095,3.34763 -4.477052,2.71059 l -1.103558,-0.23264 -0.184616,-1.67283 c -0.236191,-2.14019 -1.073211,-3.86047 -2.276031,-4.67781 -1.216757,-0.82681 -1.264263,-0.74236 -0.470926,0.83714 1.472036,2.93076 1.631392,5.54798 0.351885,5.77934 -4.355179,0.7875 -11.275007,-0.62963 -13.163341,-2.69577 -4.127635,-4.51629 -4.482245,-7.11157 -3.319042,-24.29095 1.313202,-19.39469 1.090184,-18.52201 6.119218,-23.94479 8.623553,-9.29873 11.064882,-17.79183 8.898323,-30.95625 -2.178063,-13.23431 -2.102138,-19.56764 0.352076,-29.36875 l 0.165629,-0.66146 -0.539162,0.66146 c -0.936591,1.14903 -2.645593,4.86697 -3.729178,8.11283 -1.796637,5.38181 -1.911234,6.55019 -1.708497,17.41946 0.278726,14.94313 -1.91407,21.87025 -9.316582,29.43144 -2.19837,2.2455 -2.677919,1.98885 -1.971098,-1.05487 0.298339,-1.28472 0.28062,-1.27846 -1.789967,0.63221 -6.2091942,5.72965 -16.610166,8.78621 -23.078891,6.78226 -2.905127,-0.89997 -2.884844,-0.99744 1.01491,-4.87694 5.693305,-5.66373 9.0912431,-10.31735 12.6193189,-17.28268 1.097669,-2.16708 1.9957627,-4.00091 1.9957627,-4.07518 0,-0.0743 -0.644943,0.0869 -1.4332056,0.35807 -5.0083153,1.72311 -5.8815292,0.84797 -2.8338885,-2.84015 3.8613688,-4.67285 7.9784177,-11.38529 10.1840214,-16.60403 5.2198771,-12.35089 12.3070301,-22.38753 21.1900581,-30.00881 10.278599,-8.81863 19.591065,-11.72564 37.451347,-11.69091 6.08547,0.0118 8.438838,0.10035 22.704779,0.85397 13.082604,0.69111 20.697264,0.17084 30.079594,-2.05518 4.69906,-1.11488 4.7772,-1.16242 2.93794,-1.7876 -3.14756,-1.0699 -3.38565,-1.85237 -0.82128,-2.69917 3.8352,-1.26644 18.26581,-9.372346 16.65434,-9.355013 -0.28311,0.003 -1.9435,0.177924 -3.68975,0.38862 -1.74625,0.210698 -3.94891,0.38455 -4.89479,0.386339 l -1.7198,0.0033 1.59557,-1.516353 c 0.87756,-0.833993 3.58992,-3.378843 6.02747,-5.65522 2.43755,-2.276377 5.8107,-5.643189 7.49589,-7.481805 3.66041,-3.993666 7.04337,-7.020425 10.28107,-9.198531 l 2.38125,-1.601944 1.3341,-2.944635 c 3.99146,-8.809982 11.59542,-18.158179 14.77012,-18.158179 1.86718,0 2.8132,2.013717 4.82012,10.260192 0.94634,3.88851 1.78034,7.270089 1.85335,7.514619 0.0883,0.295741 1.12536,0.767861 3.09732,1.410049 8.73585,2.844917 16.39283,7.974187 17.6182,11.802113 1.36117,4.252148 2.18148,5.306967 5.63937,7.251525 1.49917,0.843061 4.44559,2.545313 6.54761,3.782785 2.10203,1.237472 5.3896,2.994888 7.30572,3.905367 3.74772,1.780796 3.98146,2.02244 3.53177,3.651107 -0.6066,2.196924 -4.20183,6.508414 -6.42597,7.706184 -0.72961,0.39292 -1.05033,0.80327 -1.36256,1.74328 -1.5039,4.52784 -6.11871,5.23477 -16.34974,2.5046 -2.41289,-0.64389 -4.92048,-1.25069 -5.57243,-1.34846 l -1.18536,-0.17775 -0.27264,1.01959 c -1.11719,4.17803 -1.0623,5.86638 0.49678,15.28091 1.44862,8.74754 1.55935,8.34293 -1.6813,6.14305 -3.09432,-2.10056 -2.86412,-2.18393 -2.51007,0.90904 0.76363,6.67111 -2.25003,20.39037 -3.96008,18.02768 -1.47262,-2.03464 -3.5455,-4.57601 -3.64847,-4.47304 -0.0665,0.0665 -0.41707,1.23764 -0.77901,2.60249 -2.18549,8.24136 -7.72357,19.64199 -8.39609,17.28407 -0.75137,-2.63438 -1.54469,-5.14523 -1.62568,-5.14523 -0.0547,0 -0.78395,1.02883 -1.62064,2.28629 -2.86079,4.29951 -10.62057,10.6117 -15.95678,12.98003 -1.79529,0.79679 -1.79224,0.80246 -0.80971,-1.50644 0.94113,-2.21161 2.69884,-8.7328 2.35383,-8.7328 -0.12662,0 -0.62263,0.50987 -1.10224,1.13303 -0.47961,0.62317 -2.36952,2.97466 -4.1998,5.22553 -4.55304,5.5993 -5.97086,7.69324 -6.60983,9.76193 -4.01729,13.00595 -4.25201,42.21721 -0.42154,52.46072 l 0.62286,1.66567 2.09002,0.0363 c 5.71711,0.0994 10.46382,4.26911 10.53378,9.25322 0.0506,3.60781 -4.6134,4.86829 -5.005,1.35263 -0.21493,-1.92959 -0.86627,-3.54988 -1.72542,-4.2922 l -0.61244,-0.52917 0.21145,0.52917 c 0.45723,1.14424 0.92855,3.50052 0.93248,4.66173 0.006,1.65286 -1.56257,1.85297 -10.10244,1.28921 z m 31.84058,-128.89934 c -1.14933,-3.49494 -1.82948,-6.26256 -2.18861,-8.90579 -0.17109,-1.25926 -0.33665,-2.32327 -0.3679,-2.36447 -0.0313,-0.0412 -1.11453,0.45539 -2.40727,1.10353 -3.4603,1.73489 -3.3918,1.74728 -3.49411,-0.63175 -0.11482,-2.66957 0.34877,-5.4142 1.45241,-8.598956 1.14326,-3.299103 1.27536,-3.836458 0.94307,-3.836458 -0.50172,0 -3.4264,3.380584 -4.71929,5.454944 l -1.29502,2.07776 0.0126,3.70813 c 0.0118,3.48124 0.57143,7.93352 1.20738,9.6062 l 0.23569,0.61991 0.72737,-0.51952 c 0.40005,-0.28574 1.51776,-1.24466 2.4838,-2.13092 l 1.75644,-1.6114 0.18167,1.21146 c 0.41315,2.75512 1.67744,4.58975 4.36871,6.33952 2.13033,1.38507 2.08135,1.45265 1.10305,-1.52219 z m 23.71423,-31.053734 c 1.17035,-0.367303 -1.93553,-4.092501 -3.97763,-4.770779 -1.89906,-0.630766 -6.28103,0.572799 -6.28103,1.725166 0,1.708319 7.46145,3.92349 10.25866,3.045613 z M 168.74836,72.210191 c 1.77785,-0.628563 2.78018,-1.117849 2.75251,-1.343636 -0.0239,-0.195305 -0.31234,-3.182832 -0.64088,-6.638951 -0.70908,-7.459065 -0.47785,-7.280196 -2.69338,-2.083544 -3.11583,7.308363 -4.22221,12.295632 -2.4902,11.225194 0.15175,-0.09379 1.53413,-0.615368 3.07195,-1.159063 z m 10.1165,172.817899 c -0.86417,-0.15312 -0.88376,-0.18674 -0.98919,-1.69741 -0.12753,-1.82713 -0.63416,-2.99898 -1.7481,-4.0434 -0.449,-0.42097 -0.76465,-0.64635 -0.70144,-0.50082 0.0632,0.14552 0.31231,0.69602 0.55357,1.22333 0.49747,1.08733 1.08307,4.36296 0.84798,4.74334 -0.21825,0.35313 -9.58105,0.31675 -11.26209,-0.0438 -3.58566,-0.76899 -10.78189,-12.15973 -12.9357,-20.47563 -1.55489,-6.00346 -6.94737,-40.67013 -6.40657,-41.18596 0.10211,-0.0974 1.43581,-0.72854 2.96378,-1.40253 7.141,-3.14995 14.40415,-7.95527 16.82856,-11.13385 0.97529,-1.27866 1.01831,-1.07569 0.40432,1.90747 -3.33714,16.21404 -1.7341,51.75884 2.68287,59.48843 l 0.60478,1.05833 3.14021,0.19691 c 4.78696,0.30016 7.4611,1.87109 9.41026,5.5281 2.30371,4.32219 0.82452,7.08483 -3.39324,6.33746 z m -97.710258,-2.31286 c -0.609269,-0.10624 -0.733859,-0.30922 -0.999429,-1.6282 -0.166868,-0.82875 -0.534321,-1.98307 -0.816568,-2.56516 l -0.513172,-1.05833 0.188555,1.05833 c 0.103706,0.58209 0.189066,1.71318 0.189688,2.51354 l 0.0011,1.45521 -3.571875,0.0782 C 64.320765,242.81648 63.1814,241.60055 53.55774,219.01028 c -4.676378,-10.97719 -4.673259,-10.94842 -1.715807,-15.82667 2.758316,-4.54978 4.465354,-8.81363 4.47453,-11.17651 0.0011,-0.26249 1.154404,-1.75077 2.563072,-3.30729 6.51021,-7.1935 11.058789,-13.80285 13.557157,-19.69936 l 0.533405,-1.25891 1.397548,0.89106 c 2.795431,1.78233 6.494097,3.75432 9.599631,5.11816 3.753302,1.64832 3.647162,1.33552 1.84749,5.44487 -2.785853,6.36118 -7.758078,13.6834 -15.825671,23.30528 -4.766273,5.68453 -5.127024,6.33812 -4.839996,8.76887 0.428802,3.63136 4.873635,14.72597 7.473754,18.65502 0.645853,0.97595 0.657704,0.98057 2.953731,1.15243 5.240462,0.39225 9.604209,4.3581 10.036091,9.12099 0.193807,2.13734 -1.417707,3.04719 -4.458105,2.517 z M 192.21255,69.049772 c -2.19576,-1.816856 -4.79165,-3.102327 -7.73832,-3.831981 -1.39444,-0.345292 -2.59964,-0.692111 -2.67824,-0.77071 -0.89505,-0.895043 7.28142,-11.572245 10.17638,-13.288777 3.31093,-1.963185 3.90361,0.07837 3.14497,10.833253 -0.68004,9.640689 -0.45236,9.087453 -2.90479,7.058215 z"
       id="path1" />
  </g>
</svg>
