<?xml version="1.0" encoding="UTF-8" standalone="no"?>
<!-- Created with Inkscape (http://www.inkscape.org/) -->

<svg
   width="242.47884mm"
   height="201.83513mm"
   viewBox="0 0 242.47884 201.83513"
   version="1.1"
   id="svg1"
   inkscape:version="1.3.2 (091e20e, 2023-11-25)"
   sodipodi:docname="woodcock.svg"
   xmlns:inkscape="http://www.inkscape.org/namespaces/inkscape"
   xmlns:sodipodi="http://sodipodi.sourceforge.net/DTD/sodipodi-0.dtd"
   xmlns="http://www.w3.org/2000/svg"
   xmlns:svg="http://www.w3.org/2000/svg">
  <sodipodi:namedview
     id="namedview1"
     pagecolor="#ffffff"
     bordercolor="#000000"
     borderopacity="0.25"
     inkscape:showpageshadow="2"
     inkscape:pageopacity="0.0"
     inkscape:pagecheckerboard="0"
     inkscape:deskcolor="#d1d1d1"
     inkscape:document-units="mm"
     inkscape:zoom="0.2102413"
     inkscape:cx="437.59242"
     inkscape:cy="556.5034"
     inkscape:window-width="1312"
     inkscape:window-height="449"
     inkscape:window-x="0"
     inkscape:window-y="25"
     inkscape:window-maximized="0"
     inkscape:current-layer="layer1" />
  <defs
     id="defs1" />
  <g
     inkscape:label="Layer 1"
     inkscape:groupmode="layer"
     id="layer1"
     transform="translate(11.641667,-1.0583318)">
    <path
       style="fill:#000000;stroke-width:0.264583"
       d="m 134.97154,202.80725 c -0.7276,-0.14094 -3.52557,-0.7817 -6.2177,-1.42391 -8.25969,-1.97036 -12.04077,-2.19001 -15.54328,-0.90293 l -1.65266,0.6073 -0.72859,-0.53091 c -3.57288,-2.60348 -1.89788,-7.10934 2.64419,-7.11305 0.9819,-8e-4 1.78558,-0.10284 1.78593,-0.22673 8e-4,-0.31643 -5.24773,-7.89955 -7.89376,-11.40472 -2.13465,-2.82775 -4.54751,-6.06719 -7.848291,-10.53687 -0.873125,-1.18233 -2.279251,-2.69112 -3.124721,-3.35287 -3.354438,-2.62553 -3.907116,-5.9921 -1.921182,-11.70265 0.808595,-2.32512 1.343308,-2.08588 -3.956717,-1.77038 -3.157942,0.18799 -5.858158,0.17994 -9.096256,-0.0271 -2.532816,-0.16196 -4.685085,-0.19984 -4.782817,-0.0842 -0.09773,0.11566 -0.723649,0.99089 -1.390923,1.94495 -0.667276,0.95407 -2.23571,2.88309 -3.485411,4.28672 -1.249699,1.40363 -2.272181,2.73592 -2.272181,2.96063 0,0.53099 6.811676,21.41323 8.527195,26.14143 l 1.319972,3.63802 4.667562,0.005 c 9.833504,0.011 14.731622,2.02585 15.304275,6.2953 0.343403,2.56026 -0.844896,2.93543 -4.782685,1.51001 -2.737413,-0.9909 -7.157924,-1.98971 -8.806005,-1.98971 h -1.016773 v 1.214 c 0,2.51971 -1.814473,2.83968 -6.526448,1.15088 -5.386289,-1.93047 -12.788122,-2.45088 -15.587135,-1.0959 -2.762623,1.33736 -5.006208,-0.0321 -5.006208,-3.05578 0,-3.28043 3.028011,-4.49065 10.631321,-4.24909 1.984023,0.063 2.574993,0.005 2.479074,-0.24371 -0.06927,-0.17956 -1.990781,-6.01363 -4.270034,-12.96459 -2.279253,-6.95095 -4.605443,-13.78713 -5.169312,-15.19149 -1.639118,-4.08236 -1.377625,-6.16152 1.322443,-10.51493 0.755824,-1.21864 1.340471,-2.24527 1.29922,-2.2814 -0.04125,-0.0361 -0.967973,-0.26331 -2.059379,-0.50484 -3.363608,-0.74437 -7.522265,-1.96047 -14.552083,-4.25541 -12.195252,-3.98124 -11.167681,-3.87943 -16.139583,-1.59896 -17.936726,8.22707 -33.7863399,13.87821 -35.1366663,12.52788 -1.2221228,-1.22212 -0.7033217,-1.84733 9.0861408,-10.94967 10.2377345,-9.51916 13.3058615,-12.4136 13.2343235,-12.48514 -0.04202,-0.042 -2.027354,0.0613 -4.411866,0.22955 -8.6035412,0.60713 -25.033427,-0.35432 -25.469393,-1.49043 -0.288074,-0.75071 0.213362,-1.25385 4.3648466,-4.37963 C 4.2398024,120.37124 15.320724,110.05097 29.410983,94.884994 59.131665,62.895306 77.12145,51.730876 107.83583,46.214674 c 7.1133,-1.277525 8.2413,-2.942635 10.58386,-15.623429 3.41822,-18.503548 11.62231,-27.6857799 26.25666,-29.3871142 14.26851,-1.65880251 29.9647,11.1079492 30.11229,24.4923232 0.008,0.752107 0.31744,0.975391 5.8927,4.256047 8.93587,5.258142 42.78034,25.188775 46.23291,27.226048 1.67349,0.987484 3.25107,1.976202 3.50573,2.197151 1.53636,1.332976 -1.52509,4.122062 -3.43851,3.132595 -0.95537,-0.494041 -11.60677,-5.215837 -37.05028,-16.424492 l -19.65285,-8.657693 -2.61138,2.40769 c -6.90121,6.362903 -7.74934,9.120304 -5.29529,17.215778 5.55074,18.310934 6.07313,31.361068 1.83742,45.901472 -6.25584,21.47514 -25.22486,39.22507 -50.9116,47.63965 l -4.21155,1.37963 -0.50552,1.28911 c -0.3828,0.97614 -3.02025,6.44987 -5.16698,10.72348 -0.0481,0.0957 0.4488,0.77768 1.10414,1.51556 0.65534,0.73788 2.35447,2.98131 3.77583,4.98541 3.51935,4.96221 9.73142,13.31209 12.65143,17.00527 1.32314,1.67349 2.85943,3.67016 3.41398,4.43706 l 1.00827,1.39435 7.71264,-0.0656 c 11.13415,-0.0947 15.41698,1.18013 17.34503,5.16295 1.70781,3.52787 0.31584,4.48259 -4.14355,2.84198 -4.69564,-1.72752 -9.12793,-2.75486 -7.47321,-1.73219 2.14976,1.32862 -0.81674,3.86451 -3.83646,3.27955 z M 82.127695,134.99962 c 44.170975,-5.96381 69.371205,-38.118408 50.240715,-64.105346 -2.09948,-2.851938 -8.53177,-8.453424 -6.92887,-6.033921 9.58892,14.473986 10.84403,25.084836 4.41229,37.302067 -8.86831,16.84553 -29.23544,26.73745 -66.186934,32.1457 -2.98199,0.43645 -5.541024,0.81409 -5.686743,0.83921 -3.311268,0.57075 19.87882,0.42891 24.149542,-0.14771 z M 65.650713,122.10119 c 1.164166,-0.28965 3.053617,-0.96562 4.198778,-1.50215 l 2.08211,-0.9755 H 67.33595 c -9.435711,0 -17.188799,-3.03816 -25.971318,-10.17724 l -2.325661,-1.89047 -1.56923,1.13906 c -1.942941,1.41033 -1.998017,1.10146 0.63582,3.5657 9.006925,8.42696 18.950017,11.97916 27.545152,9.8406 z m 16.221855,-12.00047 c 0.918374,-0.22024 2.466186,-0.74206 3.439583,-1.1596 1.931355,-0.82845 5.799053,-3.05557 4.944811,-2.84734 -10.891168,2.65478 -23.057289,-0.52038 -32.512857,-8.485321 -1.000839,-0.84306 -1.972979,-1.645116 -2.160309,-1.782342 -0.344961,-0.252698 -1.418275,0.370229 -3.16225,1.835296 l -0.79375,0.666811 2.558838,2.468526 c 8.245134,7.95412 18.685111,11.46252 27.685934,9.30397 z M 92.902795,95.413055 c 2.457088,-0.762645 4.793245,-2.084496 6.59615,-3.732249 1.968935,-1.7995 1.874445,-1.898902 -0.841462,-0.8851 -7.930102,2.960182 -19.34092,0.3371 -24.806661,-5.702475 -0.667703,-0.737804 -1.002996,-0.67278 -2.790669,0.541205 -1.949307,1.32375 -1.977088,1.122384 0.477539,3.461234 6.31617,6.018255 14.516676,8.44304 21.365103,6.317385 z M 156.87564,30.25419 c 8.02093,-3.672102 5.75799,-15.455961 -3.07297,-16.001963 -6.54227,-0.404495 -11.05946,6.335046 -8.11479,12.107069 2.09045,4.097636 7.00654,5.809117 11.18776,3.894894 z m -5.24846,-3.739274 c -1.70197,-0.741328 -3.0052,-3.165848 -2.66618,-4.960128 0.68149,-3.606832 4.89783,-5.12386 7.55896,-2.719695 3.94265,3.561954 -0.0302,9.797833 -4.89278,7.679823 z"
       id="path1" />
  </g>
</svg>
